<svg version="1.1" xmlns="http://www.w3.org/2000/svg" xmlns:xlink="http://www.w3.org/1999/xlink" width="102.72252" height="126.21414" viewBox="0,0,102.72252,126.21414"><g transform="translate(-188.63874,-116.89293)"><g data-paper-data="{&quot;isPaintingLayer&quot;:true}" fill-rule="nonzero" stroke="none" stroke-width="1" stroke-linecap="butt" stroke-linejoin="miter" stroke-miterlimit="10" stroke-dasharray="" stroke-dashoffset="0" style="mix-blend-mode: normal"><g><path d="M262.97657,145.0539c1.62955,-0.43108 3.29972,-0.90279 5.00375,-0.72449c-0.02483,0.67782 -0.13555,1.34975 -0.32952,1.99969c-0.82606,2.72419 -2.10352,5.29039 -3.54574,7.73245c-1.70403,2.76481 -3.64279,5.48675 -6.29023,7.42325c-0.86525,0.66809 -1.88406,1.10882 -2.96343,1.28197c-0.32049,-0.65453 -0.65829,-1.29852 -1.01338,-1.93198c0.12865,-0.1467 0.19636,-0.33855 0.32501,-0.48526c0,-0.2257 -0.03611,-0.39272 -0.02708,-0.6139c-0.4356,-0.60939 -1.05402,-0.79671 -1.74691,-0.94342l-0.325,-0.12865c0.78092,-0.16701 1.38128,-0.40174 2.17574,-0.48525c0,-0.53716 0.43334,-0.99985 0.12413,-1.48059c-0.99082,-0.71773 -2.25699,-0.14896 -3.34712,0c0.4514,-0.42883 0.85992,-0.93214 0.90279,-1.57989c0.19861,-1.78979 -0.02934,-3.59313 -0.16927,-5.37841c3.38548,-2.29987 7.31491,-3.60667 11.22627,-4.68552z" fill="#fd8781"/><path d="M229.4783,121.67599c1.38805,-0.38143 2.93409,-0.6771 4.32214,-0.17379c1.24586,0.51685 1.92295,1.8056 2.39692,2.99729c1.15332,3.33132 1.3226,6.89962 1.33163,10.3957l-0.58682,0.21442c-3.67212,-2.49849 -7.19303,-5.23171 -10.90353,-7.66249c-1.19251,-0.78585 -2.43414,-1.49449 -3.71726,-2.12157c2.23668,-1.46704 4.59523,-2.82575 7.15691,-3.64955z" fill="#ffffff"/><path d="M261.62237,134.3016c2.98825,-0.24149 6.04423,-0.42206 8.98734,0.29567c1.41739,0.37691 3.01985,0.95245 3.68566,2.38112c0.6297,1.42642 0.60939,3.05597 0.40852,4.57492c-0.66355,4.15738 -2.50074,7.98749 -4.3447,11.73636c-0.31658,0.65079 -0.68017,1.27763 -1.08787,1.87556c-0.75639,0.09339 -1.52382,0.0343 -2.25699,-0.17379c1.55055,-2.70839 2.93409,-5.56122 3.70598,-8.59462c0.31146,-1.31808 0.44011,-2.89346 -0.49203,-3.99939c-0.84863,-0.96825 -2.23893,-1.18944 -3.46222,-1.1127c-2.11706,0.16701 -4.17543,0.74255 -6.20221,1.3542c-0.38821,-2.80093 0.10608,-5.68988 1.05853,-8.33733z" fill="#ffffff"/><path d="M216.15077,161.18462c0.73893,0.41726 1.6585,0.33652 2.31341,-0.20313c0.80095,-0.06468 1.60682,-0.02982 2.39918,0.10382c-0.4198,0.96825 -0.64099,2.32922 0.19411,3.14399c0.81703,0.78092 2.05386,0.55522 3.0334,0.26181c0.4514,0.40175 0.94116,0.86669 1.57989,0.87797c0.83283,0.09253 1.60021,-0.30244 2.27053,-0.74706c1.71532,-0.4988 3.48028,-0.81251 5.19108,-1.32485c0.42432,0.51685 1.04499,1.01339 1.76045,0.85089c0.83283,-0.14445 1.43094,-0.83735 1.7108,-1.59795c3.75789,-0.6613 7.51352,0.39723 11.16534,1.18041c1.48736,0.3047 2.77384,1.1601 4.2296,1.55958c0.32727,0.10382 0.65904,0.20539 0.98856,0.31598l2.00872,0.83283l2.70839,0.90279c0.43334,0.27976 0.88587,0.52865 1.3542,0.74481c-1.12849,0.7403 -2.58651,1.57989 -2.65648,3.10336c-0.20538,1.8417 1.48735,3.0176 2.71967,4.06258c-1.72208,1.87556 -4.4237,2.12834 -6.81385,2.23668c-1.50767,-0.05191 -3.01308,-0.14219 -4.51398,-0.25053c-0.36337,0.09028 -0.8712,-0.04966 -1.09916,0.32726c-0.08802,0 -0.03159,0.18056 -0.12187,0.17379l-0.19185,0.06319l-0.03385,0.18282l-0.24376,0.08125v0.17605l-0.1625,0.03611l-0.09479,0.14445c-0.37015,0.94568 -0.53491,1.91393 -0.02934,2.81898c0.47622,0.84186 0.99533,1.65889 1.45802,2.50752c-1.24812,-0.13316 -2.50301,-0.03837 -3.75338,-0.05417c-2.62714,0.02257 -5.25878,-0.01354 -7.88592,0.06771c-0.20764,2.0516 0.39046,4.06258 0.4514,6.09387c0.43635,6.56333 0.85992,13.12742 1.27069,19.69225c0.25729,3.86171 -0.14444,7.86787 -1.79205,11.40684c-1.08336,1.67694 -3.0334,3.01308 -5.10983,2.75804c-1.23458,-0.30921 -2.50527,-0.6771 -3.52768,-1.46479c-0.6455,-0.54168 -1.55281,-0.18733 -2.31567,-0.2257c-1.21652,-1.39256 -2.27731,-2.96117 -2.8235,-4.73968c-1.39213,-3.78273 -2.06573,-7.79214 -1.98615,-11.82212c-0.03385,-4.85253 -0.01579,-9.82469 1.54604,-14.47409c0.52137,-1.53927 0.86217,-3.13722 1.5167,-4.63135c0.09705,-0.32049 0.36789,-0.85765 -0.0948,-1.02016c-1.41513,-0.55297 -2.93409,-0.7764 -4.44176,-0.96825l-0.27084,-0.15122c0.30018,-1.10141 -0.09028,-2.40821 -1.15558,-2.93409c-1.99743,-0.97727 -4.26345,-1.12849 -6.37374,-1.76271c-2.00872,-0.62744 -4.02196,-1.26843 -5.93589,-2.15091c-1.41965,-0.73578 -2.78513,-1.5799 -4.12804,-2.44207c-2.1527,-1.49156 -3.99666,-3.38533 -5.43032,-5.57702c1.29325,-1.83494 3.31552,-2.90927 5.22494,-3.98134c2.01549,-1.0653 4.06258,-2.13512 6.24961,-2.77836c1.66075,-0.48317 3.35305,-0.85044 5.06469,-1.09915c1.50541,-0.23021 3.05371,-0.51008 4.57718,-0.30695z" fill="#ffffff"/><path d="M273.5122,197.98035c1.21877,-1.98164 2.49398,-3.94973 4.0355,-5.70115l0.18959,-0.20539c2.87315,0.11962 5.81853,0.52362 8.39375,1.89136c0.37014,0.2257 0.76738,0.47622 0.97277,0.87797c0.079,0.6771 -0.32049,1.291 -0.63873,1.85976c-1.39256,2.27053 -3.70598,3.70824 -5.79144,5.26782c-0.77415,0.60036 -1.31583,1.55958 -1.20524,2.56394c0.05642,1.32711 1.18718,2.21637 2.14189,2.97923c1.63632,1.3542 3.53897,2.6813 4.27249,4.77579c0.78092,2.60908 0,5.45064 -1.4061,7.70763c-1.95907,3.05145 -5.34456,4.79611 -8.60591,6.12774c-1.47607,-0.96599 -2.9702,-1.96584 -4.13255,-3.30875c-1.12849,-1.45576 -1.83268,-3.20718 -2.27731,-4.98569c-0.43334,-1.69275 -0.23923,-3.45319 -0.22569,-5.17754c0.18633,-3.00193 0.70253,-5.97423 1.53927,-8.8632c0.69187,-2.03302 1.61023,-3.98178 2.73773,-5.8095z" fill="#ffffff"/><path d="M247.88858,208.22032c1.41288,-1.14655 3.20493,-2.21636 5.09855,-1.86201c1.89362,0.30695 3.87525,0.69289 5.41678,1.89587c0.18574,0.36629 0.14075,0.80725 -0.11511,1.1285c-0.7448,1.07658 -1.44448,2.18251 -2.15317,3.28167c-0.24149,-0.90279 -0.21215,-1.98615 -1.00436,-2.60908h-0.92311c-0.28357,0.28364 -0.48884,0.63587 -0.59584,1.02241c0.29567,1.28648 0.67709,2.55943 0.84637,3.87074c-0.25956,0.52362 -0.24375,1.26617 -0.90279,1.23909l-0.25729,0.12865c-0.0948,0 -0.39949,0.11059 -0.49428,0.10156c-0.4514,0.36563 -1.1285,0.28438 -1.69726,0.38594c-0.42206,-0.51911 -0.24601,-1.28197 -0.37466,-1.89813c-0.15122,-0.88474 0.35886,-1.73788 0.35209,-2.6136c-0.0158,-0.54394 -0.62293,-0.56199 -1.01339,-0.74481c-0.55973,0.18282 -1.16235,0.4514 -1.21201,1.09464c-0.09253,1.37225 0.03386,2.75353 -0.06545,4.12804c-1.23683,-1.69048 -1.78077,-3.75564 -2.50075,-5.69439l0.01806,-0.04965c0.36563,-1.01565 0.67032,-2.13061 1.57763,-2.80544z" fill="#ffffff"/><path d="M207.63063,213.16539c-2.6655,-1.31582 -0.99759,-7.6038 0.69515,-9.20175c0.33629,0.31598 -0.7087,4.45981 -0.36112,4.76902c-0.04514,1.48736 -0.33404,2.94537 -0.33404,4.43273z" fill="#ffffff"/><path d="M241.39296,231.13104c2.01098,-0.48299 4.03776,0.23924 5.84787,1.07658c1.47608,0.69741 2.50074,2.03129 3.38548,3.36743c0.4514,0.6771 0.55297,1.4851 0.65679,2.25699c-0.69741,0 -1.39482,0 -2.08998,0c-0.2257,-1.28422 0.33404,-2.66776 -0.38369,-3.85268l-0.2257,0.02031v-0.2099c-0.60487,-0.39497 -1.20298,-0.33629 -1.80559,0.02934c-0.07448,0.11737 -0.34758,0.36563 -0.42432,0.483c-0.32275,0.88249 -0.19636,1.83267 -0.13542,2.74901c0,0.3047 0.12414,0.71773 -0.2099,0.9028c-1.38353,0.07448 -2.76933,0.14896 -4.15286,0.13768c-0.05642,-0.28213 -0.1264,-0.55973 -0.20765,-0.83283c0.20764,-1.12849 0.4514,-2.25699 0.76738,-3.36969c0.29567,-1.05401 -0.84863,-2.18025 -1.88685,-1.80559c-0.6771,0.1941 -1.08561,0.85314 -1.18266,1.52121c-0.26181,1.49413 -0.77415,2.95666 -0.7764,4.4869c-1.34659,0.08727 -2.69784,0.07294 -4.04228,-0.04289h0.0316c0.31373,-0.06996 0.63196,-0.1151 0.95245,-0.16701c0.29115,-3.20267 2.85961,-5.87494 5.88172,-6.75066z" fill="#ffffff"/><path d="M214.71984,233.13976c1.33839,-0.40851 2.8709,-0.4514 4.17092,0.10833c1.78303,1.04725 3.07854,2.78062 3.87074,4.67198c-1.23006,0.07674 -2.44432,0.35209 -3.6789,0.32501c0.03034,-0.64084 -0.04594,-1.28227 -0.2257,-1.89813c0.16701,-0.4514 0.25504,-0.93439 0.4514,-1.3745c-0.10156,-0.6139 -0.23924,-1.12849 -0.79898,-1.44222c-0.56876,-0.02032 -1.2278,-0.11961 -1.66566,0.34081c-1.3068,1.12849 -1.11269,3.14399 -0.65227,4.64714c-1.61601,0.07899 -3.22976,0.27085 -4.85253,0.25053c0.35209,-1.39708 1.21426,-2.582 1.80559,-3.87977c0.28438,-0.76737 1.04499,-1.16687 1.57538,-1.74917z" fill="#ffffff"/><path d="M218.65152,129.31816c0.4356,-0.75609 1.3542,-0.26632 1.94779,0c3.11916,1.56184 5.86818,3.73081 8.7323,5.70567c1.73337,1.27294 3.48705,2.51881 5.23396,3.77369c0.70192,0.4988 1.53024,0.87572 2.40596,0.8554c0.72675,0.04063 1.35419,-0.57554 2.03129,-0.78769c1.21239,-0.38383 2.45095,-0.67952 3.70598,-0.88475c0.32778,1.09063 0.75619,2.14844 1.27971,3.15979c1.46479,2.55491 2.78964,5.24525 4.85704,7.38939c-0.47397,1.02693 0.2257,2.15994 0.2257,3.22524c0.2257,1.46027 -0.1422,2.8867 -0.26182,4.34019c0.26181,0.19861 0.62745,0.43108 0.9028,0.63196c-0.09555,0.38212 -0.21158,0.75884 -0.34758,1.1285c0.07223,0.23924 0.14444,0.48074 0.2257,0.72449c0.32952,0.04739 0.6771,0.08351 1.06756,0.10383c0.4796,0.02737 0.96036,0.02737 1.43996,0l0.32501,0.12865c-0.72224,0 -1.29552,0.2257 -1.99293,0.39723c-0.0948,0.25504 -0.32275,0.40626 -0.41528,0.66355c0.08802,0.24601 0.17379,0.49429 0.25956,0.74256c0.78318,0.38369 1.67469,0.33177 2.52106,0.45139c0.37163,0.06769 0.75517,-0.00467 1.07659,-0.20313c0.35661,0.63196 0.69439,1.27596 1.01338,1.93198c-0.95245,-0.05642 -1.86653,-0.36789 -2.8235,-0.37015c-0.34743,0.332 -0.67525,0.68394 -0.98179,1.05402c-0.05642,0.76737 0.41755,1.36999 0.97277,1.83719c-1.45576,-0.39948 -2.74225,-1.25489 -4.2296,-1.55958c-3.65181,-0.78317 -7.40744,-1.84171 -11.16533,-1.18041c0.07674,-0.59133 0.15347,-1.20523 0,-1.78754c-0.33177,-0.77189 -1.37676,-1.0495 -2.08772,-0.6771c-0.97727,0.72449 -1.9523,1.9207 -1.37225,3.20267c-1.71532,0.51234 -3.48028,0.82606 -5.19108,1.32485c0.6613,-0.80575 1.16461,-1.60246 0.97953,-2.7287c-0.16476,-0.15347 -0.15121,-0.28213 -0.31372,-0.4356c-0.3047,0 -0.32502,0 -0.62745,0c-0.6771,0.59584 -1.3745,2.55717 -2.16671,1.94778c-0.62744,-0.48525 -0.14445,-1.47833 -0.84411,-1.46479c-0.90279,-0.20539 -1.57989,0.56651 -2.39467,0.78995c0.04063,-0.21215 0.08351,-0.42206 0.12865,-0.63196c0.08802,-0.64099 0.25504,-0.9028 0.6771,-1.03145c-0.02708,-0.58682 0.46268,-0.74255 0.11736,-1.06078c-1.02016,-0.50782 -2.09674,0.22571 -2.64971,1.07885c-0.80786,-0.14382 -1.63068,-0.18478 -2.44884,-0.12188c0.40851,-0.60036 0.86443,-1.32034 0.65904,-2.07869c-0.16927,-0.8554 -0.83734,-1.76948 -1.80559,-1.69952c-1.08336,-0.13768 -1.91619,0.95471 -1.92296,1.95682c-0.03545,0.74936 0.23217,1.48146 0.74255,2.03129c-1.5325,-0.20764 -3.07176,0.07674 -4.58621,0.30469c-1.70615,0.24721 -3.39314,0.61221 -5.04888,1.09238c-2.19606,0.64324 -4.23412,1.71306 -6.24961,2.77836c-1.90941,1.07207 -3.93168,2.14639 -5.22493,3.98133c-0.97277,-1.68372 -1.96133,-3.45771 -2.1306,-5.43257c-0.06539,-1.03585 0.38688,-2.03678 1.20749,-2.67228c1.52121,-1.2752 3.46674,-1.87556 5.34456,-2.40595c0.86443,-0.27084 1.83042,-0.2257 2.61811,-0.72449c0.6771,-0.39948 1.03822,-1.17589 1.14429,-1.92747c0.14824,-1.61194 0.47835,-3.20195 0.98404,-4.73969c0.36563,-1.29325 1.70177,-2.11705 1.68372,-3.55024c-0.09437,-0.75643 -0.47277,-1.44868 -1.05853,-1.9365c-1.21426,-0.99082 -2.4037,-2.04709 -3.21396,-3.40806c1.55281,-0.16025 3.11691,-0.14444 4.66746,-0.32501c2.5504,-0.25278 5.19108,-0.22571 7.61735,-1.18718c1.46024,-0.60252 2.51785,-1.9012 2.81221,-3.45319c0.53942,-2.76255 0.40626,-5.79369 1.94778,-8.26736z" fill="#fddf7d"/><path d="M209.40688,137.5968c1.12849,-1.39482 2.35179,-2.6971 3.51865,-4.06258c-0.26181,1.08561 -0.20313,2.23216 -0.54394,3.30198c-0.81703,0.63873 -1.98164,0.60939 -2.97472,0.7606z" fill="#fddf7d"/><path d="M253.00744,165.60381c1.1589,0.22998 2.35522,0.18982 3.49608,-0.11737c0.32049,0.53491 0.6771,1.05401 1.02016,1.57989l0.19185,0.27987c-0.98631,-0.04063 -1.88685,-0.64324 -2.70839,-0.90279c-0.72675,-0.24601 -1.39934,-0.41754 -1.9997,-0.8396z" fill="#fddf7d"/><path d="M235.63538,183.7771c2.62714,-0.08125 5.25878,-0.04513 7.88592,-0.0677c1.25037,0.0158 2.50526,-0.07899 3.75338,0.05417c4.00842,6.75518 7.83627,13.70671 10.22191,21.21571c0.35435,1.07658 0.76512,2.1464 0.91859,3.27715c-1.55281,-1.20298 -3.53445,-1.57989 -5.41678,-1.89587c-1.89362,-0.35435 -3.68567,0.71547 -5.09855,1.86202c-0.90279,0.6771 -1.20975,1.78979 -1.55732,2.80544c-0.59359,-1.50767 -1.01114,-3.07854 -1.48962,-4.62458c-0.3724,-1.17138 0.11737,-2.70839 -1.0179,-3.54799c-1.1962,-1.10141 -3.30875,-0.28438 -3.61119,1.26391c-0.20539,1.55958 0.37692,3.07403 0.77641,4.55687c1.00436,3.15978 1.94101,6.3918 3.46222,9.35974c0.808,1.62503 2.80093,2.87767 4.6968,2.93409c1.59795,-0.05191 2.88443,0.4514 4.34696,-0.36789c0.69064,-0.35209 1.49639,-0.3408 2.21186,-0.64099c0.31598,3.36517 1.11044,6.68069 1.23683,10.06167c0.14445,0.63873 0.38369,1.26166 0.43108,1.92522c0.1941,1.97938 0.39949,3.96102 0.53265,5.94717c-2.2096,-0.08802 -4.42145,-0.02031 -6.63104,-0.04063c-0.10382,-0.78092 -0.2099,-1.59569 -0.65679,-2.25699c-0.88022,-1.32936 -1.9049,-2.67002 -3.38548,-3.36743c-0.6771,-0.31598 -3.08982,-1.71757 -5.84787,-1.07658c-2.99277,0.69515 -5.35584,3.57959 -5.99908,7.15015c-0.12865,0 -0.26633,-0.06545 -0.41303,-0.06997c-0.1467,-0.00451 -0.28438,-0.0158 -0.41303,-0.02934l-0.16476,-0.0993c-0.95245,-5.92008 -0.81477,-8.6172 -0.47622,-9.97816c0.10382,-0.4198 0.55071,-2.02001 -0.24149,-2.91378c-0.0632,-0.07223 -0.21216,-0.2257 -0.80124,-0.53491c-0.76752,-0.41653 -1.5873,-0.7285 -2.43755,-0.92762c1.02118,0.07599 2.04202,-0.15174 2.93409,-0.65453c0.88142,-0.5216 1.62878,-1.24192 2.18251,-2.10352c1.6476,-3.53896 2.04934,-7.54513 1.79205,-11.40683c-0.40927,-6.57988 -0.8396,-13.15149 -1.291,-19.71482c-0.04288,-2.04484 -0.64098,-4.06258 -0.43334,-6.09387z" fill="#fddf7d"/><path d="M217.05131,187.04523c0.32501,-0.90279 0.62293,-1.80559 0.93439,-2.70839l0.33404,0.02934c1.5009,0.19185 3.02663,0.41529 4.44176,0.96825c0.4514,0.16251 0.19184,0.69967 0.09479,1.02016c-0.65453,1.49413 -0.99534,3.09208 -1.5167,4.63135c-1.56184,4.6494 -1.57989,9.62156 -1.54603,14.47409c-0.07958,4.02998 0.59402,8.03939 1.98615,11.82212c0.54619,1.78077 1.60697,3.34938 2.82349,4.73968l0.2257,0.25278l-0.34758,-0.04288c-0.33142,0.41363 -0.49714,0.93574 -0.46494,1.46479c0.10608,0.93213 1.0021,1.4851 1.77173,1.95907c0.76963,0.47397 1.5009,0.6771 2.986,1.1285c0.72449,0.2257 1.33162,0.37692 1.76045,0.48525c0.24111,0.76044 0.42667,1.53738 0.55522,2.3247c0.25278,1.56861 0.2099,2.77836 0.1309,4.73968c-0.03611,0.87797 -0.10383,2.08997 -0.25278,3.53896c-2.73548,0 -5.47771,-0.14445 -8.20641,0.04739c-0.7922,-1.89136 -2.08772,-3.62473 -3.87074,-4.67198c-1.30003,-0.56199 -2.83253,-0.51685 -4.17092,-0.10833c0.19861,-0.63647 0.32276,-1.31357 0.13317,-1.9681c-1.16687,-4.64038 -2.25699,-9.32138 -2.74224,-14.09266c-0.4514,-5.10757 0.03837,-10.25125 0.95922,-15.28208c1.00211,-4.99472 2.14189,-9.98945 3.98134,-14.7517z" fill="#fddf7d"/><path d="M268.81766,194.41431c2.74676,-1.37677 5.76887,-2.27279 8.85869,-2.27731l-0.12865,0.14219c-1.54152,1.75143 -2.81673,3.71952 -4.0355,5.70116c-1.1275,1.82772 -2.04586,3.77648 -2.73773,5.8095c-0.83292,2.88941 -1.34533,5.8617 -1.52798,8.8632c-0.01354,1.72434 -0.20765,3.48479 0.2257,5.17754c0.4514,1.77851 1.12849,3.52993 2.2773,4.98569c1.16235,1.34291 2.65648,2.34276 4.13256,3.30875c-3.25007,1.31132 -6.79129,1.43544 -10.23095,1.80559c-1.4535,0.04966 -2.88669,0.32049 -4.33568,0.39046c-0.65679,-3.73758 -1.10593,-7.51126 -1.63632,-11.2669c-0.10086,-0.36372 -0.26513,-0.70678 -0.48525,-1.01339c0.95922,-1.61827 1.99292,-3.19138 3.06951,-4.73968c0.8554,-1.27972 0.70192,-2.907 0.36112,-4.33116c-0.51008,-2.21862 -1.3745,-4.33116 -2.03129,-6.5069c2.09449,-2.74676 5.16625,-4.53429 8.22447,-6.04873z" fill="#fddf7d"/><path d="M252.27392,135.62419c3.11014,-0.48074 6.19318,-1.17589 9.34846,-1.3226c-0.9502,2.64745 -1.44673,5.5364 -1.04724,8.33507c-3.78949,1.18718 -7.62864,2.52106 -10.83356,4.95184c-0.33498,0.27414 -0.63784,0.58533 -0.90279,0.92763c-2.06741,-2.14414 -3.38549,-4.83447 -4.85705,-7.38939c-0.52352,-1.01135 -0.95193,-2.06916 -1.27971,-3.15979c3.15753,-0.88474 6.34214,-1.7266 9.5719,-2.34276z" fill="#3a3b29"/><path d="M267.02561,154.98467c0.73318,0.20809 1.50061,0.26717 2.25699,0.17378c-0.33403,1.12849 -1.04273,2.08546 -1.61601,3.0966c-2.17574,3.79626 -4.97892,7.29234 -8.57657,9.82469c-0.46833,-0.21616 -0.92085,-0.46505 -1.35419,-0.74481l-0.19185,-0.27987c-0.35435,-0.5146 -0.69968,-1.03371 -1.02017,-1.5799c1.61633,-0.59868 3.10107,-1.50546 4.3718,-2.67002c2.48269,-2.22314 4.41919,-4.98343 6.12999,-7.82047z" fill="#3a3b29"/><path d="M226.75637,118.03321c2.70839,-1.04273 5.81401,-1.64535 8.60365,-0.5823c2.37436,0.87571 3.95425,3.08757 4.83899,5.36938c1.28648,3.47125 1.57989,7.20657 1.6634,10.8787c3.00857,-0.77866 5.99908,-1.64083 9.05956,-2.20282c4.93379,-0.90279 9.91497,-1.8056 14.95483,-1.64987c3.13045,-0.11059 6.38729,0.30018 9.1521,1.86202c2.08497,1.19627 3.5188,3.26949 3.90233,5.64247c0.73578,3.89783 -0.42431,7.81145 -1.76497,11.44295c-1.39256,3.51188 -3.11239,6.88382 -4.92927,10.19257c-1.774,3.1011 -3.71952,6.14353 -6.20221,8.7323c-1.36816,1.42156 -2.86154,2.71704 -4.46207,3.87074c1.06304,0.92311 2.15317,2.08998 2.10352,3.61119c-0.10156,2.09449 -1.77174,3.70146 -3.46223,4.73968c-2.67228,1.67694 -5.93137,1.90039 -9.00539,1.8056c1.47608,2.78964 3.15978,5.46869 4.58169,8.2967c1.04273,1.95004 1.97487,3.95651 2.95666,5.9404c2.7445,-2.67002 6.12096,-4.5659 9.59672,-6.11194c2.97923,-1.3068 6.21801,-2.11028 9.47937,-2.00646c3.06502,-0.09943 6.11617,0.45371 8.95122,1.62277c1.71305,0.6771 3.44192,1.73788 4.25895,3.46448c0.42883,0.7922 0.30695,1.71757 0.325,2.582c0.04062,1.49639 -0.7922,2.83253 -1.57989,4.04679c-1.32034,1.98615 -3.23879,3.43288 -5.09178,4.88413c2.28407,1.72208 4.51398,3.82559 5.3739,6.64006c1.08561,3.61119 0.2257,7.58801 -1.65437,10.78842c-1.54829,2.75579 -4.09192,4.79611 -6.81611,6.31958c-3.36824,1.95725 -7.11417,3.17588 -10.98929,3.57507c-2.93409,0.27084 -5.85464,0.6613 -8.80227,0.73352c0.04965,1.14655 0.19862,2.28407 0.36112,3.42159c0.15799,1.02241 -0.2257,2.18476 -1.19621,2.67679c0.42206,0.4514 0.81252,0.99534 0.77866,1.64535c0.07674,1.12849 -0.88925,2.14188 -1.98841,2.24119c-0.99759,0.14896 -8.95348,-0.36789 -11.96205,-0.29792c-4.42596,0.30695 -8.86772,0.26858 -13.30271,0.19184c-3.08531,-0.11285 -12.56692,-0.06997 -14.20324,0.15799c-2.64068,0.17604 -5.27685,0.40852 -7.91979,0.53942c-1.31808,0.04288 -2.74901,-0.0316 -3.85945,-0.82606c-1.08787,-0.75609 -1.62955,-2.12609 -1.52572,-3.42612c0.05868,-2.39241 1.60246,-4.34019 2.52106,-6.45048c0.2257,-0.6771 0.97953,-1.25488 0.66581,-2.03129c-0.83734,-3.38548 -1.57989,-6.81612 -2.07643,-10.27609c-0.06545,-0.28889 -0.0632,-0.62518 -0.30018,-0.83282c-0.92536,-0.95922 -2.06515,-1.67469 -3.0018,-2.61811c-1.44899,-1.46027 -2.28408,-2.98825 -2.50526,-3.65407c-0.4514,-1.38353 -0.38594,-2.58426 -0.32952,-3.5164c0.06896,-1.14911 0.29683,-2.28313 0.6771,-3.36969c1.10818,-3.23201 2.7919,-6.1345 6.34892,-11.4768c0.78318,-1.17589 1.84847,-2.23216 2.17122,-3.65181c0.58456,-2.15768 1.39256,-4.2454 2.12383,-6.35568c-2.178,-0.49654 -10.51758,-3.38549 -12.42925,-4.4395c-5.38969,-2.66777 -9.76826,-7.44807 -11.73636,-13.14923c-0.59811,-1.57989 -0.48976,-3.29972 -0.40174,-4.94958c0.59359,-3.00405 3.24555,-5.07823 5.94266,-6.18641c1.38128,-0.6771 2.91377,-0.96599 4.33568,-1.49639c0.43335,-2.07417 0.79898,-4.20703 1.83719,-6.09387c-1.38128,-1.27746 -2.63617,-2.72645 -3.4374,-4.44402c-0.57327,-1.08787 -0.37466,-2.36081 -0.31823,-3.5367c0.32501,-0.90279 1.22104,-1.50993 2.11932,-1.76497c1.4693,-0.3882 3.00179,-0.38369 4.51398,-0.51234c0.55522,-0.71321 0.93666,-1.56184 1.54604,-2.2412c3.69695,-4.54333 7.70312,-8.89705 12.39766,-12.43151c2.77382,-2.19361 5.84065,-3.98874 9.11147,-5.33327zM229.4783,121.67599c-2.56169,0.8238 -4.92023,2.18251 -7.15691,3.64504c1.28313,0.62708 2.52475,1.33572 3.71726,2.12157c3.72403,2.43304 7.24043,5.17076 10.91707,7.67377l0.57327,-0.30469c-0.01128,-3.47126 -0.18733,-7.01022 -1.33163,-10.31445c-0.47397,-1.18944 -1.15106,-2.48269 -2.39692,-2.99728c-1.39708,-0.50557 -2.92281,-0.20538 -4.32214,0.17605zM218.64475,129.31816c-1.53475,2.48269 -1.40836,5.5048 -1.95004,8.26961c-0.29435,1.552 -1.35197,2.85068 -2.81221,3.4532c-2.4195,0.95245 -5.06695,0.93439 -7.61734,1.18717c-1.55056,0.18056 -3.11465,0.16476 -4.66746,0.32501c0.81026,1.3542 1.9997,2.41724 3.21395,3.40806c0.58576,0.48782 0.96416,1.18007 1.05853,1.93649c0.01806,1.43319 -1.31808,2.257 -1.68371,3.55025c-0.5057,1.53773 -0.83581,3.12774 -0.98405,4.73968c-0.10608,0.75158 -0.47171,1.52799 -1.14429,1.92747c-0.78769,0.49203 -1.75368,0.4514 -2.61811,0.7245c-1.87781,0.53039 -3.82335,1.1285 -5.34456,2.40596c-0.81739,0.6365 -1.26694,1.63616 -1.20072,2.67002c0.16927,1.97486 1.15783,3.74886 2.1306,5.43257c1.43366,2.19169 3.27761,4.08547 5.43032,5.57703c1.3542,0.86668 2.70839,1.70628 4.12804,2.44206c1.91393,0.88249 3.92717,1.52347 5.93589,2.15091c2.11029,0.63647 4.37631,0.78544 6.37374,1.76271c1.0653,0.52813 1.45576,1.83494 1.15558,2.93409l0.27084,0.15122l-0.33404,-0.02934c-0.31146,0.90279 -0.60939,1.80559 -0.93439,2.70839c-1.83945,4.76225 -2.97923,9.75698 -3.98134,14.7517c-0.92085,5.03083 -1.4061,10.17451 -0.95922,15.28208c0.47622,4.77128 1.57989,9.45228 2.74224,14.09266c0.18959,0.65453 0.06545,1.33163 -0.13317,1.9681c-0.53039,0.5823 -1.291,0.9818 -1.57989,1.74917c-0.58908,1.29777 -1.45124,2.48269 -1.80559,3.87977c1.62277,0.02032 3.23653,-0.17154 4.85253,-0.25053c-0.25721,-0.79359 -0.37108,-1.62662 -0.33629,-2.46012c0.04739,-0.69289 0.20538,-1.64534 0.98856,-2.18702c0.45147,-0.29065 0.99061,-0.41366 1.52347,-0.34758c0.32484,0.1156 0.59934,0.34062 0.77641,0.63647c0.11619,0.20085 0.18129,0.42715 0.18959,0.65904c-0.02482,0.16476 -0.06546,0.41754 -0.13768,0.72223c-0.10608,0.4514 -0.15122,0.53491 -0.20313,0.84412c-0.05122,0.29803 -0.07089,0.60064 -0.05868,0.90279c0.0152,0.32002 0.06669,0.63728 0.15348,0.94568c1.23458,0.02708 2.44884,-0.24827 3.6789,-0.32501c2.7287,-0.19185 5.47094,-0.05191 8.20641,-0.04739c0.07448,-1.18267 0.31146,-2.35405 0.25278,-3.53897c-0.07072,-1.59043 -0.20012,-3.17559 -0.3882,-4.75548c-0.08125,-0.76963 -0.02256,-1.56184 -0.29115,-2.29987c-1.63858,-0.34306 -3.27489,-0.808 -4.73968,-1.61826c-1.57989,-0.86443 -1.73112,-1.59344 -1.77174,-1.95907c-0.03177,-0.529 0.13391,-1.05096 0.46494,-1.46479c0.18627,-0.175 0.41134,-0.30338 0.65678,-0.37465c0.36789,-0.10382 0.78318,-0.06772 1.774,0.40174c1.16912,0.55297 1.30454,0.8396 2.15994,1.15107c0.53942,0.19636 0.6613,0.14671 1.36774,0.31373c0.94794,0.2257 2.42627,0.6455 3.23878,1.46253c0.81251,0.81703 0.31598,2.04935 0.48751,3.06274c0.33855,3.26136 0.73352,6.56107 0.2257,9.8292l0.16476,-0.0316h-0.0316c1.34444,0.11582 2.69568,0.13015 4.04227,0.04288c0,-1.53024 0.5146,-2.99276 0.77641,-4.48689c0.09705,-0.6771 0.50556,-1.32711 1.18266,-1.52121c1.03822,-0.37015 2.18251,0.75609 1.88684,1.80559c-0.31598,1.10818 -0.42206,2.1464 -0.6297,3.28166c-0.02802,0.17007 -0.03333,0.34312 -0.0158,0.5146c0.01343,0.13818 0.0422,0.27443 0.08577,0.40625c1.38353,0 2.76933,-0.0632 4.15286,-0.13768c0.33404,-0.18508 0.21215,-0.5981 0.2099,-0.90279c-0.06094,-0.91634 -0.18733,-1.86653 0.13542,-2.74901c0.14088,-0.26836 0.3596,-0.48786 0.62745,-0.6297c0.75609,-0.3882 1.54378,0.08576 1.59569,0.11736l0.2257,0.18959c0.71773,1.18492 0.16927,2.56846 0.38369,3.85269c0.69515,0 1.39257,0 2.08998,0c2.2096,0.02032 4.42145,-0.04739 6.63104,0.04063c-0.13316,-1.98615 -0.33855,-3.96779 -0.53265,-5.94717c-0.04739,-0.66356 -0.28663,-1.28648 -0.43108,-1.92522c-0.12639,-3.38548 -0.92085,-6.69649 -1.23683,-10.06167c-1.06154,0.4995 -2.18486,0.85547 -3.34035,1.05853c-0.96825,0.16927 -2.29536,0.40175 -3.67664,0.08577c-2.10577,-0.48299 -3.62698,-1.86653 -4.23863,-3.05822c-1.52121,-2.96794 -2.45786,-6.19093 -3.46222,-9.35975c-0.39948,-1.48284 -0.9818,-2.99728 -0.77641,-4.55686c0.30018,-1.54829 2.41273,-2.36532 3.61119,-1.26391c1.12849,0.84186 0.6455,2.37661 1.0179,3.54799c0.47848,1.54604 0.9028,3.11691 1.48962,4.62457l-0.01806,0.04966c0.71998,1.93875 1.26391,4.00391 2.50074,5.69439c0.09931,-1.3745 -0.02708,-2.75579 0.06545,-4.12804c0.04288,-0.57327 0.49428,-0.9186 0.98405,-1.1285c0.13151,-0.05246 0.27659,-0.06039 0.41303,-0.02257c0.27483,0.06401 0.52034,0.21815 0.69741,0.43786c0.48525,0.64099 -0.04063,1.51444 -0.06997,3.01082c-0.01089,0.62588 0.06507,1.25024 0.2257,1.85524c1.35897,-0.00294 2.62123,-0.70353 3.3426,-1.85524c-0.01127,-0.66574 -0.13961,-1.32429 -0.37917,-1.94553c-0.2257,-0.54394 -0.6297,-1.3226 -0.4672,-1.92521c0.0462,-0.15536 0.10586,-0.3064 0.1783,-0.4514c0.08003,-0.22725 0.22527,-0.42586 0.41755,-0.57102c0.14064,-0.08624 0.30222,-0.1323 0.46719,-0.13316c0.1591,0.00287 0.3147,0.04721 0.4514,0.12865c0.77866,0.65001 0.75383,1.74014 1.00436,2.64294c0.70869,-1.09915 1.40837,-2.20508 2.15317,-3.28167c0.25586,-0.32125 0.30084,-0.76221 0.11511,-1.1285c-0.15348,-1.12849 -0.56424,-2.20057 -0.91859,-3.27715c-2.38564,-7.51803 -6.2135,-14.46956 -10.22192,-21.21571c-0.4514,-0.84863 -0.98179,-1.66566 -1.45801,-2.50752c-0.50556,-0.90279 -0.47397,-2.01775 -0.10382,-2.96343c0.15591,-0.2802 0.37547,-0.51987 0.64099,-0.69967c0.4231,-0.28671 0.93393,-0.4146 1.44222,-0.36111c1.50315,0.10834 3.00857,0.19862 4.51398,0.25053c2.39015,-0.10834 5.09177,-0.36112 6.81385,-2.23668c-1.23232,-1.05401 -2.93409,-2.22991 -2.71967,-4.06259c0.06997,-1.52798 1.5167,-2.36306 2.65648,-3.10336c3.61118,-2.53234 6.4076,-6.02843 8.57657,-9.82469c0.57328,-1.01113 1.28197,-1.9681 1.61601,-3.0966c0.4077,-0.59793 0.77129,-1.22477 1.08787,-1.87555c1.84396,-3.74209 3.68116,-7.5722 4.34471,-11.73636c0.20087,-1.51896 0.2257,-3.1485 -0.40851,-4.57492c-0.6771,-1.42867 -2.25699,-2.00422 -3.68567,-2.38113c-2.93409,-0.71773 -5.99909,-0.53716 -8.98734,-0.29566c-3.15978,0.1467 -6.23832,0.84186 -9.34846,1.3226c-3.22976,0.61616 -6.41437,1.45801 -9.57415,2.34953c-1.291,0.21215 -5.0015,1.71305 -5.72825,1.67243c-0.87572,0.02032 -1.70403,-0.3566 -2.40595,-0.8554c-1.74691,-1.25489 -3.50059,-2.50074 -5.23396,-3.77369c-2.85961,-1.97486 -5.61314,-4.14384 -8.7323,-5.70568c-0.58456,-0.25278 -1.50316,-0.74255 -1.93876,0.01354zM209.39108,137.5968c0.99308,-0.15122 2.15769,-0.12188 2.97472,-0.75158c0.3408,-1.06982 0.28213,-2.21636 0.54394,-3.30197c-1.15106,1.35645 -2.37887,2.65873 -3.50285,4.05355zM268.81766,194.41431c-3.05822,1.51444 -6.12998,3.30197 -8.24027,6.05099c0.6613,2.17574 1.52573,4.28829 2.03129,6.5069c0.3408,1.42416 0.49428,3.05145 -0.36111,4.33117c-1.07659,1.54153 -2.11029,3.11465 -3.06951,4.73968c0.22012,0.30661 0.38439,0.64967 0.48525,1.01339c0.53039,3.75564 0.97953,7.52932 1.63632,11.2669c1.44899,-0.06996 2.88218,-0.3408 4.33568,-0.39046c3.43966,-0.36563 6.98088,-0.48977 10.23095,-1.8056c3.25007,-1.31582 6.65135,-3.07854 8.61042,-6.12999c1.39708,-2.25699 2.18702,-5.09855 1.4061,-7.70763c-0.73352,-2.09449 -2.63617,-3.41483 -4.27249,-4.77579c-0.95471,-0.76286 -2.08546,-1.65212 -2.14189,-2.97923c-0.11059,-1.00436 0.43108,-1.96358 1.20524,-2.56394c2.08546,-1.55958 4.39888,-2.99728 5.79144,-5.26782c0.31824,-0.56876 0.71773,-1.18041 0.63873,-1.85976c-0.20538,-0.40175 -0.60262,-0.65227 -0.97277,-0.87797c-2.57522,-1.36774 -5.5206,-1.77174 -8.39375,-1.89136l-0.18959,0.20539l0.12865,-0.14219c-3.08982,0.00451 -6.11193,0.89377 -8.85869,2.27731zM206.64884,207.70121c-0.24919,0.76001 -0.35331,1.56008 -0.30695,2.35855c0.10938,1.14078 0.55829,2.22256 1.28874,3.10562c0.08351,-1.64083 0.2257,-4.34696 0.2257,-4.34696v0c0,0 0.04966,-1.3858 0.14219,-2.43755c0.05191,-0.60261 0.14445,-1.42867 0.32952,-2.41724c-0.1783,0.36789 -0.4356,0.9028 -0.74029,1.55507c-0.76963,1.64534 -0.87797,1.97938 -0.93891,2.18251z" fill="#001773"/><path d="M260.57513,142.63667c2.0313,-0.61616 4.08515,-1.19169 6.20221,-1.3542c1.22329,-0.07674 2.6136,0.14445 3.46223,1.1127c0.93214,1.10593 0.80349,2.6813 0.49202,3.99938c-0.78318,3.0334 -2.15543,5.88398 -3.70598,8.59463c-1.7108,2.83253 -3.6473,5.59282 -6.12999,7.81596c-1.37676,1.23232 -2.61811,2.22314 -4.39888,2.68131c-1.11438,0.28074 -2.27295,0.34054 -3.41031,0.17604c-0.19206,-0.02659 -0.38105,-0.07194 -0.56424,-0.13542c-0.18115,-0.05348 -0.35315,-0.13414 -0.51009,-0.23924c-0.29719,-0.21008 -0.54201,-0.48578 -0.71546,-0.80575c-0.19566,-0.30668 -0.28599,-0.6688 -0.25729,-1.03145c0.02321,-0.24949 0.12248,-0.48585 0.28438,-0.6771c0.18542,-0.1984 0.43009,-0.33142 0.69741,-0.37918c0.47848,-0.11059 0.79898,0.02708 1.41288,0.16476c0.46454,0.10295 0.93601,0.1716 1.41062,0.20539c1.07936,-0.17315 2.09818,-0.61388 2.96343,-1.28197c2.64745,-1.9365 4.58621,-4.65842 6.29023,-7.42324c1.44221,-2.44207 2.70839,-5.00827 3.54573,-7.73246c0.19397,-0.64995 0.30469,-1.32187 0.32952,-1.99969c-1.70403,-0.16927 -3.3742,0.29341 -5.00375,0.72449c-3.91136,1.07884 -7.84079,2.37661 -11.21499,4.69228c0.13994,1.78528 0.36789,3.58862 0.16927,5.37841c-0.05417,0.64099 -0.47171,1.14429 -0.90279,1.57989c1.08336,-0.14896 2.35629,-0.71773 3.34712,0c0.33042,0.27327 0.46624,0.71712 0.34532,1.12849c-0.05784,0.14407 -0.15381,0.26969 -0.27761,0.36338c-0.14555,0.08139 -0.29635,0.15302 -0.4514,0.21442c-0.56199,0.2257 -0.88474,0.18733 -1.91844,0.27084c-0.52813,0.04288 -1.05853,0.05417 -1.57989,0.09253c-0.29115,0.02032 -0.65904,0.0474 -0.9186,-0.18958c-0.10416,-0.09337 -0.182,-0.21244 -0.2257,-0.34532c0,-0.12639 0,-0.25279 0,-0.37918c0.03512,-0.19575 0.08109,-0.3894 0.13768,-0.58005c0.09705,-0.32952 0.18733,-0.51008 0.10608,-0.58456c-0.08125,-0.07448 -0.19184,0.01806 -0.34531,-0.01806c-0.27535,-0.0632 -0.40401,-0.4514 -0.4514,-0.57779c-0.2257,-0.69967 0.06771,-1.48962 0.19636,-2.18026c0.12756,-0.72584 0.10529,-1.4701 -0.06545,-2.18702c0,-1.0653 -0.55974,-2.17123 -0.08577,-3.19816c0.26495,-0.3423 0.56781,-0.65348 0.90279,-0.92762c3.20944,-2.44658 7.04859,-3.77595 10.83808,-4.96764z" fill="#001773"/><path d="M215.40822,159.15784c0,-1.00211 0.8396,-2.09448 1.92296,-1.95681c0.96374,-0.06996 1.63181,0.84411 1.8056,1.69951c0.20539,0.75835 -0.25053,1.47833 -0.65904,2.07869c-0.65625,0.54443 -1.58084,0.6262 -2.32245,0.20539c-0.51087,-0.54799 -0.78007,-1.27832 -0.74706,-2.02678z" fill="#001773"/><path d="M252.38902,158.79221c0.35381,0.04618 0.69856,0.14587 1.02242,0.29566c0.17855,0.09359 0.34589,0.20717 0.4988,0.33855c0.26408,0.2277 0.36401,0.59262 0.25278,0.9231v0c-0.06624,0.18314 -0.17718,0.34685 -0.32275,0.47623c-0.32142,0.19846 -0.70495,0.27082 -1.07658,0.20313c-0.84637,-0.11059 -1.73788,-0.05868 -2.52105,-0.45139c-0.23334,-0.16885 -0.3369,-0.46511 -0.25956,-0.74255c0.0227,-0.14032 0.0717,-0.2751 0.14444,-0.39723c0.34758,-0.56876 1.2436,-0.79897 2.2615,-0.6455z" fill="#001773"/><path d="M220.8724,161.08306c0.55297,-0.84637 1.62955,-1.57989 2.64971,-1.07884c0.05841,0.02085 0.1121,0.05307 0.15799,0.0948c0.18186,0.20667 0.24338,0.49294 0.1625,0.75609c-0.16476,0.60261 -1.02467,0.808 -1.12849,1.24134c0,0.02032 -0.03386,0.16025 -0.06546,0.31598c-0.0316,0.15573 -0.04965,0.24149 -0.06319,0.31597c0.81703,-0.2257 1.49187,-0.99533 2.39467,-0.78994c0.11111,-0.00509 0.22161,0.01904 0.32049,0.06996c0.48299,0.25956 0.29115,1.10141 0.6139,1.23232c0.28213,0.11285 0.74932,-0.39723 1.02241,-0.6929c0.59584,-0.65227 0.62068,-1.0653 1.11044,-1.23231c0.21581,-0.09448 0.46129,-0.09448 0.6771,0c0.09956,0.05352 0.18413,0.13111 0.24601,0.2257c0.09978,0.05406 0.18497,0.1315 0.24827,0.2257c0.26407,0.4198 -0.06094,1.04498 -0.31373,1.53701c-0.24937,0.4781 -0.56973,0.91566 -0.95019,1.29777c-0.6771,0.4514 -1.4377,0.8396 -2.27053,0.74706c-0.6455,-0.01128 -1.12849,-0.47622 -1.57989,-0.87797c-0.97953,0.29341 -2.21637,0.51911 -3.0334,-0.26181c-0.8396,-0.79672 -0.61841,-2.15768 -0.19861,-3.12593z" fill="#001773"/><path d="M233.15269,163.29491c-0.58005,-1.28197 0.39498,-2.48269 1.37225,-3.20267c0.71096,-0.38143 1.75594,-0.10382 2.08772,0.6771c0.16476,0.5823 0.08802,1.1962 0,1.78753c-0.27987,0.7606 -0.87796,1.4535 -1.71079,1.59795c-0.70418,0.15347 -1.31583,-0.34306 -1.74917,-0.85992z" fill="#001773"/></g></g></g></svg>