<svg version="1.1" xmlns="http://www.w3.org/2000/svg" xmlns:xlink="http://www.w3.org/1999/xlink" width="74.70833" height="91.607" viewBox="0,0,74.70833,91.607"><g transform="translate(-202.64584,-134.1965)"><g data-paper-data="{&quot;isPaintingLayer&quot;:true}" fill-rule="nonzero" stroke="none" stroke-width="1" stroke-linecap="butt" stroke-linejoin="miter" stroke-miterlimit="10" stroke-dasharray="" stroke-dashoffset="0" style="mix-blend-mode: normal"><g><path d="M272.45511,197.72256c0.38196,0.32687 0.71363,0.60807 1.0425,0.89251c3.11464,2.69385 3.94557,6.01136 2.51774,9.88342c-0.92453,2.50718 -2.5735,4.39267 -4.78491,5.8437c-3.30464,2.16836 -6.96238,3.1808 -10.8716,3.43236c-1.30533,0.08399 -2.6034,0.2887 -3.90901,0.35642c-0.60356,0.03131 -0.6648,0.28398 -0.58391,0.76349c0.0906,0.53739 0.15397,1.07947 0.22575,1.61995c0.08272,0.62282 -0.02292,1.19486 -0.46114,1.67547c-0.17679,0.1939 -0.41387,0.34011 -0.15761,0.67615c0.42364,0.55555 0.42829,1.17261 0.05193,1.75844c-0.41989,0.65357 -1.08314,0.85209 -1.79117,0.7059c-1.70646,-0.35228 -3.4259,-0.1458 -5.13844,-0.1984c-2.45829,-0.07546 -4.90927,0.15331 -7.36472,0.20469c-2.81273,0.05887 -5.6197,-0.1137 -8.42938,-0.18879c-4.00264,-0.10697 -7.98673,0.29491 -11.97295,0.59152c-0.76281,0.05675 -1.52302,0.1202 -2.28404,-0.02376c-1.90227,-0.35982 -2.80987,-1.73257 -2.43328,-3.65037c0.3334,-1.69775 1.36994,-3.07783 2.06408,-4.61188c0.15388,-0.34006 0.25246,-0.61427 0.15883,-0.9937c-0.60757,-2.46204 -1.14576,-4.93967 -1.49527,-7.4532c-0.06069,-0.43647 -0.35044,-0.66331 -0.62962,-0.91225c-0.79298,-0.70702 -1.65553,-1.33136 -2.35724,-2.14569c-1.44908,-1.68156 -1.92064,-3.59556 -1.33205,-5.71965c0.91353,-3.29674 2.39961,-6.36336 4.56156,-8.98439c1.8545,-2.24831 2.38868,-4.97414 3.40933,-7.53384c0.2156,-0.5407 -0.23974,-0.43778 -0.4813,-0.49079c-3.52003,-0.77641 -6.88686,-2.13143 -9.96336,-4.00987c-3.57193,-2.16997 -6.05524,-5.30873 -7.1622,-9.40233c-0.68263,-2.52449 0.11843,-4.63542 2.22443,-6.18939c1.36299,-1.00572 2.93244,-1.55376 4.54296,-1.99037c0.41188,-0.11166 0.64677,-0.25492 0.72136,-0.71641c0.20036,-1.23946 0.47463,-2.46838 1.06067,-3.59274c0.20668,-0.39654 -0.06522,-0.54029 -0.26983,-0.73804c-0.95203,-0.9201 -1.75291,-1.94611 -2.22376,-3.19801c-0.73178,-1.94564 0.04718,-3.44908 2.11667,-3.53699c1.91266,-0.08124 3.03679,-0.88739 4.18501,-2.38293c3.17158,-4.13103 6.88923,-7.74795 11.35544,-10.51032c1.6487,-1.01972 3.36958,-1.90463 5.26139,-2.40756c4.29164,-1.14094 7.29451,0.53727 8.56737,4.78333c0.62438,2.08283 0.82585,4.22564 0.90235,6.38226c0.02002,0.56431 0.15347,0.66686 0.70063,0.5096c3.90643,-1.12169 7.8991,-1.91771 11.93702,-2.37989c2.876,-0.33046 5.76633,-0.54309 8.6381,0.07103c1.48456,0.31745 2.89128,0.83488 3.99134,1.93914c1.76382,1.77056 2.01027,3.99491 1.73893,6.31315c-0.36986,3.15985 -1.61643,6.04247 -3.0123,8.85983c-1.89291,3.82056 -3.88687,7.5832 -6.99146,10.6024c-0.81801,0.7955 -1.71419,1.51061 -2.70337,2.3753c0.19759,0.12732 0.38568,0.26883 0.56278,0.4234c1.20645,1.20699 1.31209,2.60989 0.24213,3.96233c-1.28925,1.62962 -3.06836,2.3849 -5.06896,2.71432c-1.02578,0.1689 -2.05885,0.20333 -3.24344,0.20215c1.96997,3.38767 3.82869,6.73515 5.45417,10.28248c2.34998,-2.18019 5.03877,-3.71411 7.96393,-4.81895c4.24596,-1.60377 8.48747,-1.50184 12.68232,0.23222c0.4274,0.17918 0.8364,0.39942 1.22125,0.65762c1.84885,1.23024 2.37829,3.02457 1.49917,5.06051c-0.60649,1.40456 -1.54912,2.56297 -2.69855,3.5557c-0.55634,0.4805 -1.14112,0.92807 -1.78624,1.44973z" fill="#001773"/><path d="M234.51788,212.64021c-0.87885,-0.26327 -1.75769,-0.52654 -2.63652,-0.78983c-0.60109,-0.18019 -1.09984,-0.51644 -1.65145,-0.83943c-0.49432,-0.23974 -1.08664,-0.33231 -1.41429,0.15917c-0.4064,0.6096 -1.01646,0.10656 -1.36192,-0.38421c-1.07359,-1.5184 -1.86331,-3.21868 -2.33092,-5.01853c-0.71868,-2.76474 -0.87335,-5.56636 -0.69211,-8.42551c0.19207,-3.03008 0.51878,-6.02438 1.25824,-8.96984c0.24556,-0.95064 0.5471,-1.88594 0.90304,-2.801c0.36892,-0.96825 0.35187,-0.96582 -0.69101,-1.21093c-0.69806,-0.16408 -1.49127,-0.09098 -2.02913,-0.71779c0.20173,-1.60429 -0.12837,-2.1845 -1.70438,-2.63817c-2.35132,-0.67684 -4.77958,-1.09286 -7.03937,-2.07736c-3.0972,-1.34931 -5.85635,-3.1401 -7.7725,-6.01671c-0.14958,-0.22445 -1.0713,-1.51677 -1.09973,-1.8046c0.20973,-0.59961 1.4358,0.12287 1.89569,-0.24337c3.9227,-3.12366 8.42153,-4.81983 13.38515,-5.34462c0.10825,-0.01199 0.2178,-0.00256 0.3224,0.02777c0.04847,0.02357 0.04383,-0.07459 0.0768,-0.03325c0.49583,-0.12408 0.89576,-0.2277 2.2924,0.36678c0.70636,0.06561 1.48879,0.71298 1.65135,1.5003c0.07128,1.45992 0.41471,1.7658 1.91828,1.69675c0.19256,-0.00884 0.39466,-0.02622 0.55992,0.06741c1.20939,0.68512 2.24122,0.32076 3.19836,-0.52151c0.99161,-0.40195 4.2258,-2.19278 5.14276,-2.19278c0.88799,-0.14034 3.0978,-0.15046 3.94293,0c2.35217,0.41877 4.03463,1.10035 6.39447,2.12262c0.31523,0.08337 0.61921,0.20458 0.90532,0.361c0.75994,0.76577 1.73981,0.92521 2.75261,0.99294c0.98401,0.2983 1.84575,0.8433 2.721,1.3596c0.15487,0.09136 0.30514,0.14926 0.24746,0.39052c-0.36678,0.36678 -0.71947,0.57437 -1.07265,0.8702c-1.06191,0.88945 -1.16325,2.10747 -0.26646,3.15375c0.21604,0.24478 0.44678,0.47619 0.69093,0.69294c0.77311,0.7062 0.77175,0.7086 -0.10209,1.26389c-1.073,0.68187 -2.28604,0.83749 -3.50992,0.92001c-1.1693,0.07886 -2.33534,-0.04345 -3.5027,-0.12406c-1.72987,-0.11943 -2.64334,1.30265 -1.85312,2.86825c0.29327,0.581 0.65233,1.12878 0.98138,1.6917c0.05487,0.6828 -0.49509,0.55102 -0.83841,0.55476c-2.07176,0.02281 -4.14436,0.05911 -6.21586,-0.01404c-0.77963,-0.02751 -0.81243,-0.01241 -0.70239,0.73615c0.64646,4.39906 0.94838,8.82193 1.14429,13.26476c0.14962,3.3931 0.11538,6.7508 -0.40538,10.10367c-0.19408,1.24953 -0.53341,2.44698 -1.1969,3.54095c-0.32608,0.53802 -0.77079,0.99442 -1.30018,1.33433c-0.31237,0.20392 -0.63411,0.31521 -0.99537,0.12729z" fill="#fefefe"/><path d="M221.80599,165.6539c-3.05106,0.3511 -5.99686,1.08245 -8.79535,2.37744c-2.26002,1.0307 -4.32842,2.43802 -6.11686,4.16183c-0.6695,-0.85486 -1.0248,-1.85644 -1.26288,-2.89129c-0.27549,-1.19755 0.17086,-2.13327 1.19394,-2.8054c1.37028,-0.90021 2.91232,-1.33652 4.49239,-1.6645c1.02566,-0.21291 1.50198,-0.66401 1.70521,-1.70589c0.15616,-0.80067 0.26598,-1.6109 0.43916,-2.40759c0.18011,-0.82859 0.48034,-1.6005 1.01531,-2.29332c0.76572,-0.99166 0.60886,-1.97715 -0.37347,-2.79794c-0.62936,-0.52587 -1.2399,-1.07009 -1.75491,-1.70997c-0.14467,-0.17972 -0.40896,-0.37412 -0.26942,-0.62742c0.11095,-0.20135 0.3975,-0.09573 0.60545,-0.10956c2.28191,-0.15175 4.57127,-0.23933 6.82525,-0.66104c2.24074,-0.41925 3.19967,-1.52413 3.47093,-3.80997c0.16644,-1.40252 0.29227,-2.8169 0.80278,-4.15867c0.50337,-1.32296 0.80344,-1.47172 2.04671,-0.83196c2.46026,1.26605 4.61951,2.99043 6.87446,4.56808c0.98298,0.68772 1.95636,1.38909 2.92015,2.1041c0.94858,0.70148 1.89719,0.80799 3.06515,0.44328c4.12713,-1.28881 8.29307,-2.45018 12.58979,-3.05403c1.10255,-0.15496 2.20525,-0.30892 3.3081,-0.46187c0.08393,0.51399 -0.20184,0.94942 -0.31419,1.41998c-0.29866,1.25097 -0.41944,2.52623 -0.58539,3.79604c-0.03703,0.32818 0.05152,0.65822 0.24785,0.9238c-0.01959,0.51155 -0.47518,0.45501 -0.77249,0.55c-2.0625,0.65901 -4.01713,1.52955 -5.8368,2.71987c-0.87425,0.57188 -1.1797,1.27258 -0.9851,2.28369c0.19164,0.99569 0.11577,2.0106 0.04919,3.01705c-0.02395,0.3622 0.07818,0.68697 0.14829,1.03261c0.18922,0.93291 0.79311,1.73062 0.82893,2.7093c0.01457,0.39869 0.34639,0.52182 0.68231,0.59004c0.34246,0.06955 0.71689,0.03312 0.9937,0.31201c0.21167,0.34526 0.53426,0.64508 0.46318,1.10861c-0.95136,-0.08082 -1.40584,0.4744 -1.6528,1.29464c-3.36145,-1.54652 -6.29573,-2.46348 -10.23866,-2.46348c-2.01731,0.0917 -1.65053,0.0917 -3.57615,0.91696c-0.27509,0.18339 -1.52424,0.97036 -2.56199,1.23164c-0.21428,-0.28811 0.01308,-0.51158 0.11636,-0.74808c0.13167,-0.30143 0.17838,-0.59164 -0.14494,-0.78901c-0.33763,-0.20611 -0.55751,0.03258 -0.7644,0.25832c-0.14693,0.16035 -0.26256,0.34679 -0.41114,0.5061c-0.35717,0.38301 -0.71027,0.51773 -1.04596,-0.02362c-0.32867,-0.53006 -0.75538,-0.55626 -1.25235,-0.25158c-0.13467,0.09342 -0.28882,0.15501 -0.4508,0.18011c-0.16532,0.01672 -0.34053,0.01389 -0.43989,-0.14086c-0.11144,-0.17356 0.02331,-0.30468 0.12522,-0.42709c0.10584,-0.12713 0.25701,-0.19836 0.39186,-0.28943c0.2141,-0.1446 0.38826,-0.32153 0.30702,-0.60489c-0.08965,-0.31268 -0.35679,-0.39896 -0.63954,-0.40478c-0.58509,-0.01207 -0.94905,0.32185 -1.22177,0.80495c-0.12082,0.214 -0.05928,0.57569 -0.44473,0.59367c-0.13805,-0.75005 -1.46614,-1.91275 -3.79672,-1.77086z" fill="#619ac9"/><path d="M234.42618,212.64021c0.99393,-0.11261 1.58359,-0.79134 2.07562,-1.55224c0.9305,-1.43888 1.15842,-3.10199 1.36243,-4.74864c0.60992,-4.92283 0.21631,-9.84273 -0.1151,-14.76092c-0.164,-2.63563 -0.47476,-5.26006 -0.93082,-7.86111c-0.09413,-0.52126 0.11095,-0.54574 0.50287,-0.51477c2.28611,0.18058 4.57598,0.07301 6.86428,0.06977c0.26423,-0.00038 0.62995,0.15292 0.75082,-0.28014c3.01202,5.08638 5.86454,10.24921 7.62095,15.93519c0.10545,0.30495 0.18106,0.61941 0.22577,0.93897c-0.21511,0.09353 -0.36191,-0.04506 -0.51533,-0.15432c-2.27571,-1.6206 -4.6795,-1.41366 -6.7136,0.52663c-0.60141,0.57367 -0.98961,1.28772 -1.49166,1.92479c-0.39399,-1.31852 -0.96053,-2.58876 -0.98086,-4.00672c-0.01215,-0.84683 -0.7917,-1.54008 -1.60738,-1.53464c-0.80601,0.00536 -1.55627,0.71383 -1.62345,1.54648c-0.0536,0.6642 0.11913,1.30025 0.3005,1.92619c0.81049,2.79729 1.57649,5.61475 2.99009,8.18876c0.71112,1.2949 1.79615,1.92371 3.33158,1.9611c1.38216,0.03497 2.75869,-0.18854 4.05878,-0.65903c0.42257,-0.15071 0.59832,-0.13197 0.65701,0.38807c0.23773,2.10665 0.63679,4.19001 0.82225,6.30855c0.10805,1.23411 0.44976,2.45358 0.51224,3.70606c0.02304,0.46181 0.08711,0.9217 0.10581,1.38356c0.04265,1.05267 0.03593,1.04597 -1.06239,1.05267c-1.47172,0.00896 -2.94333,0.0387 -4.41497,0.03753c-0.24371,-0.00019 -0.5495,-0.00669 -0.7314,-0.17155c0.27181,-0.24965 0.61204,-0.17843 0.93255,-0.19822c0.6594,-0.04072 0.74885,-0.14964 0.43907,-0.7285c-0.85167,-1.59151 -2.12382,-2.67303 -3.91917,-3.05909c-0.96111,-0.20667 -1.92944,-0.34595 -2.88675,0.03707c-0.55948,-0.17027 -1.05079,-0.04927 -1.47791,0.34595c-1.18196,0.33451 -2.13256,1.05387 -3.05733,1.82213c-0.16274,0.13519 -0.26225,0.45216 -0.58161,0.28103c0.04325,-1.82319 -0.22051,-3.62658 -0.35179,-5.4385c-0.01367,-0.18853 -0.01041,-0.32441 -0.04418,-0.5624c-0.05789,-1.22916 -0.26445,-1.6449 -1.0469,-2.14972z" fill="#619ac9"/><path d="M223.7801,183.64238c0.92811,0.21791 1.84951,0.47396 2.78704,0.63835c0.50331,0.08828 0.64936,0.18257 0.42628,0.71234c-1.66395,3.9513 -2.19709,8.1266 -2.43401,12.36539c-0.15929,2.84978 -0.05659,5.669 0.70568,8.43457c0.50442,1.83009 1.07287,3.46537 2.17255,5.01687c0.22267,0.30915 0.72631,0.83071 1.10035,0.55018c0.36678,-0.27509 -0.55018,0.55018 0.2464,1.75192c0.93805,0.79884 2.11242,1.13865 3.2778,1.41066c0.67548,0.15772 0.92762,0.43759 0.97506,1.12933c0.13578,1.9796 0.4311,3.94534 0.254,5.94466c-0.06052,0.68363 -0.28433,0.83908 -0.93713,0.84819c-1.6031,0.02247 -3.2053,-0.20523 -4.80741,-0.01252c-0.0471,-1.00512 -0.61499,-1.72137 -1.33117,-2.33871c-1.34875,-1.1626 -2.96103,-1.54887 -4.69773,-1.54461c0.03432,-1.63554 -0.61817,-3.13739 -0.92968,-4.70526c-0.60464,-3.04315 -1.21944,-6.07793 -1.22323,-9.2019c-0.00566,-4.66324 0.79287,-9.21586 2.04496,-13.67593c0.69198,-2.46475 1.27757,-4.98126 2.37024,-7.32352z" fill="#619ac9"/><path d="M265.87626,189.36801c2.6738,-0.41229 5.19323,0.06447 7.56842,1.33382c0.53617,0.28654 0.56943,0.72561 0.32148,1.25108c-0.47644,0.98537 -1.17268,1.84825 -2.03511,2.52217c-0.72073,0.58106 -1.47213,1.12411 -2.21132,1.68217c-1.4768,1.11492 -1.56038,2.45592 -0.19999,3.69575c0.62371,0.56843 1.28626,1.09532 1.94425,1.62486c1.9062,1.53397 2.38151,3.48402 1.72101,5.78279c-0.48997,1.77671 -1.57662,3.3306 -3.07732,4.4005c-1.47687,1.07671 -3.11643,1.9103 -4.85657,2.4692c-0.41942,0.14129 -0.65668,-0.15814 -0.91513,-0.38787c-2.41745,-2.14864 -3.52388,-4.93824 -3.87222,-8.07036c-0.65942,-5.92868 1.34272,-11.04113 4.87273,-15.67554c0.20595,-0.27041 0.46814,-0.44876 0.73976,-0.62855z" fill="#fefefe"/><path d="M265.87626,189.36801c-2.05229,2.57783 -3.7518,5.3517 -4.67602,8.54377c-1.16947,4.03921 -1.26849,8.04975 0.39826,11.99725c0.65975,1.5625 1.6868,2.85542 2.95549,3.96344c0.13663,0.11934 0.33032,0.17341 0.49733,0.2578c-1.75415,0.65523 -3.60882,0.73762 -5.43985,0.94638c-1.18897,0.13554 -2.3838,0.21939 -3.57287,0.35404c-0.61503,0.06969 -0.92199,-0.05789 -1.00555,-0.7768c-0.27317,-2.35012 -0.41599,-4.74929 -1.03273,-7.01419c-0.44373,-1.62944 0.47957,-2.51637 1.20878,-3.44669c1.26785,-1.61752 1.34578,-3.24753 0.72227,-5.06212c-0.37153,-1.08125 -0.6933,-2.1798 -1.07497,-3.25728c-0.14262,-0.4026 -0.16602,-0.75208 0.14611,-1.05308c3.05672,-2.94776 6.56651,-4.99653 10.87375,-5.4525z" fill="#619ac9"/><path d="M253.78899,153.66792c-0.21796,0.47378 -0.30966,-0.0764 -0.30966,-0.44319c0,-0.45848 0.2129,-4.03938 1.10861,-5.90656c2.38868,-0.18871 4.77977,-0.43985 7.15584,0.10713c2.44053,0.56182 3.55011,1.46087 3.21461,4.65705c-0.35609,3.39218 -1.90525,6.38749 -3.42652,9.37226c-0.26771,0.52524 -0.53459,1.05981 -0.86227,1.71511c-0.32765,0 -1.19529,-0.09243 -1.63823,-0.49149c0,-0.49149 0.30381,-0.84184 0.52186,-1.23523c0.86227,-1.54749 1.56443,-3.17892 2.09556,-4.86894c0.16455,-0.51983 0.2759,-1.05502 0.33234,-1.59735c0.13388,-1.32786 -0.75318,-2.32578 -2.08961,-2.39173c-1.49447,-0.07374 -2.91487,0.29454 -4.34028,0.67572c-0.53114,0.14206 -0.94312,0.24338 -1.76224,0.4072z" fill="#fefefe"/><path d="M226.92001,140.7185c2.03761,-1.2758 3.94186,-2.44187 6.18448,-2.86497c1.90361,-0.35911 3.00734,0.19052 3.72662,1.94571c0.99058,2.41722 1.11355,4.98418 1.0815,7.55209c-0.00946,0.75751 -0.50433,0.43716 -0.84956,0.19121c-1.35332,-0.9642 -2.69831,-1.94006 -4.05035,-2.90606c-1.92301,-1.37395 -3.83907,-2.7589 -6.09268,-3.91798z" fill="#fefefe"/><path d="M244.06241,202.16343c0.11382,-0.97244 0.79148,-1.591 1.46047,-2.16687c1.58242,-1.36216 3.36208,-2.04999 5.47446,-1.37149c0.72653,0.23338 1.23007,0.7706 1.78563,1.24111c0.44632,0.87918 0.52887,1.70463 -0.19124,2.52303c-0.40337,0.45843 -0.85463,1.2684 -1.22141,1.91027c-0.0917,0.18339 -0.0917,0 -0.45848,-1.28375c-0.0917,-0.27509 -0.32428,-0.85487 -0.76016,-0.63188c-0.52867,0.27044 -0.46923,0.77392 -0.3396,1.26152c0.12087,0.58607 0.22654,1.17582 0.36732,1.75705c0.11823,0.48823 -0.12501,0.8208 -0.48883,1.0203c-0.48411,0.24717 -0.98728,0.45507 -1.50467,0.6217c-0.31182,0.11038 -0.52281,0.02371 -0.49371,-0.37998c0.03537,-0.90055 0.03537,-1.39202 0.03537,-2.21114c0,-0.59039 0.04187,-1.02739 -0.53178,-1.12242c-0.58929,-0.09763 -0.96084,0.25238 -0.9906,0.82298c-0.0463,0.88771 -0.01225,1.77962 -0.12351,2.70082c-1.00507,-1.42951 -1.47268,-3.07776 -2.01924,-4.69125z" fill="#fefefe"/><path d="M259.16771,162.67258c0.48175,0.10118 1.02009,0.39613 1.50188,0.49713c-0.49149,1.14676 -0.98298,1.80206 -1.47441,2.62118c-1.63824,1.96589 -3.88193,4.48932 -5.62415,5.86476c-0.45848,-0.55018 -1.91658,-1.10841 -2.94903,-1.57527c0.05087,-0.09787 0.14158,-0.16897 0.24877,-0.19498c2.78223,-0.62547 4.60916,-2.52911 6.25678,-4.67283c0.51331,-0.66785 1.01233,-1.34552 1.47434,-2.0509c0.13611,-0.20776 0.19874,-0.53498 0.56582,-0.48909z" fill="#609ac9"/><path d="M221.51781,218.54905c2.1883,-0.6703 5.76286,1.1572 6.21594,3.35424c0.07658,0.37137 0.1666,0.4972 -0.18725,0.52909c-0.46081,0.04155 -0.9856,0.14117 -1.52447,0.15046c-1.33305,0.17136 -1.65595,-0.14605 -1.55781,-1.55473c0.13082,-1.04865 0.01953,-1.22944 -0.11393,-1.34688c-0.24323,-0.21403 -0.62262,-0.23178 -0.86873,-0.15615c-0.88366,0.27152 -1.17892,2.01325 -1.15264,2.84782c0.00226,0.07183 -0.02628,0.44918 -0.02628,0.44918c0,0.0917 -0.14197,0.11004 -0.33509,0.1158c-0.81457,0.02447 -1.62777,0.0955 -2.44122,0.14864c-0.55627,0.03632 -0.48165,-0.1024 -0.43305,-0.53953c0.0917,-0.82527 0.9712,-2.46677 2.02217,-3.30065c0.21804,-0.17301 0.31709,-0.43638 0.40235,-0.6973z" fill="#fdfdfd"/><path d="M248.21897,222.47396h-1.63823c0.02138,-0.01866 -0.16201,0.07304 -0.16061,-0.18367c0.04866,-1.29483 -0.16067,-2.2809 -0.4947,-2.60135c-0.12544,-0.12198 -0.27938,-0.21069 -0.44782,-0.25807c-0.20207,-0.03995 -0.41166,-0.0125 -0.59663,0.07813c-0.26786,0.12113 -0.66296,0.3788 -0.64867,0.99179c0.015,0.64283 0.07739,1.77114 -0.13268,1.84364c-0.82129,0.28341 -1.79991,0.24311 -2.71628,0.23841c-0.50158,-0.00257 -0.44279,-0.49828 -0.39227,-0.81953c0.10076,-0.64053 0.26777,-1.2715 0.42482,-1.90207c0.12045,-0.4837 0.13575,-0.93001 -0.16809,-1.28787c-0.30764,-0.2139 -0.69249,-0.28496 -1.05623,-0.19502c-0.61532,0.1645 -0.83543,0.73283 -0.85523,0.7867c-0.31035,0.94799 -0.45089,1.93758 -0.61063,2.91639c-0.07748,0.47477 -0.2448,0.58119 -0.66093,0.54751c-0.32339,-0.02617 -0.6504,-0.00503 -0.9757,-0.01111c-1.54645,-0.02887 -1.6684,-0.21226 -1.22001,-1.82703c1.55877,-1.71515 3.72945,-2.7486 6.04353,-2.87727l-0.01668,0.01656c2.47646,-0.16845 5.1681,1.009 6.26167,3.72616c0.06245,0.15517 0.24221,0.81768 0.06136,0.81768z" fill="#fcfdfe"/><path d="M216.27332,202.48744v1.88619c-1.13887,-0.64662 -1.3565,-1.93564 -0.70003,-3.86855c0.51166,-0.04923 0.75181,0.20907 0.74852,0.69701c-0.00251,0.37275 -0.04849,0.9577 -0.04849,1.28535z" fill="#fafbfc"/><path d="M219.94675,146.91565c0.08782,2.20689 -0.30678,2.66349 -2.2441,2.6267c0.62386,-0.97111 1.39372,-1.73267 2.2441,-2.6267z" fill="#5e96c6"/><path d="M216.27332,202.15979c0,-0.81912 -0.16382,-1.31059 -0.69993,-1.65479c0.25792,-0.69336 0.50407,-1.39248 1.04075,-1.98602c-0.11359,1.26731 -0.22721,2.37349 -0.34083,3.64081z" fill="#6295c6"/><path d="M259.16771,162.67258c-1.19726,1.78663 -2.3865,3.58013 -3.98705,5.04754c-1.30592,1.19729 -2.72765,2.17515 -4.55866,2.36026c-1.02035,-0.06533 -2.08157,-0.01807 -2.76753,-1.00456c0.01626,-1.25578 0.39183,-1.56744 1.62767,-1.35068c2.39485,0.13734 3.87783,-1.39913 5.2389,-2.99894c2.21282,-2.60102 3.87369,-5.53893 4.86134,-8.8285c0.33185,-1.10526 0.11515,-1.34001 -1.04867,-1.1027c-3.006,0.61293 -5.92098,1.50113 -8.65094,2.93435c-1.31401,0.68987 -1.49578,0.92182 -1.28033,2.38241c0.15068,1.02136 0.11698,1.99898 -0.23827,3.03874c0.63306,-0.03619 1.24919,-0.31023 1.76484,0.17456c0.18928,0.15962 0.31387,0.38277 0.35045,0.62765c0.06893,0.56075 -0.22885,0.87514 -1.06857,1.05367c0.24956,0.12437 0.42138,0.26016 0.52271,0.46185c0.17163,0.48295 0.04493,0.88639 -0.32421,1.22624c-0.19207,0.14139 -0.38991,0.24941 -0.6262,0.09255c-0.3764,0.00464 -0.74964,-0.06911 -1.09599,-0.21656c-0.55152,-0.23318 -0.65294,-0.48705 -0.8266,-1.15014c-1.00866,-3.85124 -0.91696,-5.31837 -1.00866,-6.41873c0,-1.19205 0.14114,-1.75658 0.99817,-2.33145c2.0278,-1.79488 9.72157,-4.01056 11.20178,-4.25554c3.23951,-0.53617 4.56754,0.94612 3.6648,4.08965c-0.62773,2.18592 -1.69847,4.17209 -2.74899,6.16833z" fill="#021974"/><path d="M225.60265,167.42479c0.18811,-0.53556 0.27615,-0.90412 0.88842,-1.40076c0.57979,-0.42033 1.29912,-0.50569 1.56009,0.11802c0.12005,0.28692 0.12583,0.75742 -0.33843,1.02049c-0.22228,0.12594 -0.48979,0.1503 -0.5385,0.52358c0.17172,0.39338 0.55046,-0.0886 0.79364,-0.22676c0.59133,-0.33599 1.11839,-0.33607 1.40876,0.36536c0.23658,0.57142 0.47407,0.38749 0.73859,0.06152c0.17103,-0.21077 0.30076,-0.45514 0.47278,-0.665c0.26244,-0.32023 0.57522,-0.51836 0.98921,-0.24834c0.41585,0.27126 0.47163,0.63454 0.2545,1.06268c-0.12163,0.23981 -0.23603,0.48324 -0.35383,0.72525c-0.91728,0.95926 -1.91834,1.45289 -3.1706,0.57751c-0.19849,-0.13876 -0.41651,-0.0773 -0.63294,-0.04729c-1.53193,0.21238 -2.14551,-0.34182 -2.07168,-1.86626z" fill="#021a74"/><path d="M221.91803,165.09679c0.086,-0.47995 0.42256,-1.07237 1.01008,-1.22622c0.22355,-0.05592 0.45849,-0.04615 0.67662,0.02816c0.79302,0.25524 1.21962,1.25202 0.88374,2.08123c-0.06872,0.14556 -0.14622,0.28681 -0.23208,0.42297c-0.13501,0.10061 -0.2852,0.17904 -0.44492,0.23233c-0.46014,0.15233 -1.21161,0.15811 -1.64044,-0.3529c-0.38355,-0.45695 -0.27715,-1.05073 -0.25299,-1.18557z" fill="#031a74"/><path d="M234.12411,167.94471c0.00076,-1.31383 0.68093,-2.25091 1.34962,-2.31767c0.35671,-0.0148 0.70645,0.10179 0.98294,0.32765c0.30453,0.24321 0.42566,0.65768 0.47803,0.95962c0.00861,0.09437 0.00293,0.1895 -0.01685,0.28218c-0.10121,0.76555 -0.37498,1.43498 -1.19322,1.66617c-0.81679,0.23079 -1.50148,-0.23297 -1.60051,-0.91794z" fill="#031b75"/><path d="M248.98319,166.78699c0.18574,-0.00316 0.36497,-0.06897 0.50861,-0.18678c0.36541,-0.15405 0.52923,-0.80933 0.313,-1.10431c-0.27114,-0.35395 -0.70923,-0.34605 -1.16219,-0.48546c0.39549,-0.03868 0.6372,-0.08822 0.88696,-0.2025c0.46531,-0.21289 0.6487,-0.21289 0.8014,-0.72717c0.01233,-0.54604 -0.32362,-0.90097 -0.80142,-0.91107c-0.35993,0.0499 -0.08484,-0.0418 -0.81841,0.1416c-0.27509,-1.37544 -0.36678,-2.10901 -0.38375,-3.9772c0.01696,-0.88269 0.1487,-1.04316 0.70962,-1.36933c3.05772,-1.77813 6.37993,-2.79746 9.82982,-3.43164c1.15347,-0.21204 1.34874,0.03614 1.00499,1.15404c-1.18884,3.86586 -3.12775,7.30386 -5.95224,10.21838c-0.59812,0.63904 -1.30058,1.1717 -2.07733,1.57517c-0.75205,0.37545 -1.52896,0.59021 -2.35986,0.24445c-0.19495,-0.29764 -0.47591,-0.5494 -0.49918,-0.93819z" fill="#ee9999"/><path d="M235.26955,162.03999c0.89991,0.00917 1.46245,0.54272 1.46235,1.38694c-0.0001,0.86546 -0.73858,1.55024 -1.65302,1.53281c-0.81387,-0.01551 -1.61503,-0.78033 -1.60791,-1.53486c0.00745,-0.79071 0.79251,-1.39517 1.79857,-1.3849z" fill="#f8fbfe"/><path d="M224.92544,162.23366c0.0333,-1.00642 0.55682,-1.56641 1.41595,-1.51461c0.78808,0.04751 1.39798,0.77337 1.37886,1.64103c-0.00781,0.38547 -0.16983,0.75171 -0.44982,1.01677c-0.27998,0.26506 -0.65454,0.4068 -1.03986,0.39351c-0.86692,-0.04602 -1.33619,-0.59856 -1.30514,-1.53671z" fill="#f9fbfd"/></g></g></g></svg>