<svg version="1.1" xmlns="http://www.w3.org/2000/svg" xmlns:xlink="http://www.w3.org/1999/xlink" width="74.77156" height="92.20992" viewBox="0,0,74.77156,92.20992"><g transform="translate(-202.74445,-133.99008)"><g data-paper-data="{&quot;isPaintingLayer&quot;:true}" fill-rule="nonzero" stroke="none" stroke-width="1" stroke-linecap="butt" stroke-linejoin="miter" stroke-miterlimit="10" stroke-dasharray="" stroke-dashoffset="0" style="mix-blend-mode: normal"><g><path d="M237.6,167.3v0c0,-0.4 0.1,-0.9 0,-1.3c-0.2,-0.2 -0.3,-0.4 -0.5,-0.5c0.2,0.1 0.4,0.3 0.5,0.5c0.1,0.4 0,0.9 0,1.3z" fill="none"/><path d="M249,164.6v0l-0.2,-0.1h-0.1c0,0 0,0 0.1,0v0z" fill="none"/><path d="M250.1,166v0c-0.2,0.2 -0.5,0.2 -0.8,0.2c-0.6,-0.1 -1.3,0 -1.8,-0.3v0c0.6,0.3 1.2,0.2 1.8,0.3c0.3,0 0.6,0 0.8,-0.2z" fill="none"/><path d="M258.6,154.1c-0.6,0.1 -1.2,0.3 -1.8,0.4c-2.5,0.7 -5,1.5 -7.2,2.8c2.2,-1.3 4.7,-2.1 7.2,-2.8c0.5,-0.1 1.1,-0.3 1.8,-0.4z" fill="none"/><path d="M247.1,156.4c2.3,-1.8 5.1,-2.8 7.9,-3.6c0.2,-0.1 0.4,-0.1 0.5,-0.2c-0.2,0.1 -0.4,0.1 -0.5,0.2v0c-2.8,0.8 -5.6,1.8 -7.9,3.6c-0.2,0.2 -0.5,0.4 -0.7,0.7c-1.5,-1.6 -2.5,-3.5 -3.5,-5.4v0c1.1,1.9 2,3.8 3.5,5.4c0.2,-0.3 0.5,-0.5 0.7,-0.7z" fill="none"/><path d="M248.8,169.3z" fill="none"/><path d="M260.4,154c-0.1,0 -0.2,0 -0.3,0c0.1,0 0.2,0 0.3,0z" fill="none"/><path d="M248.7,162.1c-0.1,0.3 -0.3,0.6 -0.5,0.8c0.2,-0.2 0.4,-0.5 0.5,-0.8z" fill="none"/><path d="M250.4,163v0c-0.7,-0.5 -1.6,-0.1 -2.4,0v0c0.8,-0.1 1.8,-0.5 2.4,0z" fill="none"/><path d="M223.9,219c-0.3,0.1 -0.5,0.1 -0.8,0.3c0.3,-0.3 0.6,-0.3 0.8,-0.3z" fill="none"/><path d="M220.4,220c-0.4,0.9 -1,1.8 -1.3,2.8v0c0.2,-1 0.9,-1.9 1.3,-2.8c0.3,-0.6 0.8,-0.9 1.2,-1.3c0,-0.1 0,-0.2 0.1,-0.4c0,0.2 -0.1,0.3 -0.1,0.4c0.9,-0.3 2.1,-0.3 3,0.1c-0.9,-0.4 -2,-0.4 -3,-0.1c-0.4,0.5 -1,0.8 -1.2,1.3z" fill="none"/><path d="M252.9,170.8c0.3,0.2 0.7,0.3 1,0.5v0c-0.1,0 -0.1,0 -0.1,0c0.1,0 0.1,0 0.1,0c-0.4,-0.1 -0.7,-0.3 -1,-0.5v0l-0.1,-0.2c-0.3,-0.4 -0.5,-0.8 -0.7,-1.1c-0.5,0.1 -0.9,0.2 -1.4,0.2c0.5,0 0.9,-0.1 1.4,-0.2v0c0.2,0.3 0.4,0.7 0.7,1.1z" fill="none"/><path d="M224.6,219.3c-0.1,-0.2 -0.2,-0.2 -0.4,-0.3h0.1c0.2,0.1 0.3,0.2 0.3,0.3z" fill="none"/><path d="M222.2,188.4c-0.7,2.4 -1.3,5 -1.8,7.5v0v0c0.5,-2.5 1,-5 1.8,-7.5z" fill="none"/><path d="M223.1,181c0.1,0 0.1,0.1 0.2,0.1c-0.1,0 -0.1,-0.1 -0.2,-0.1c-1.4,-0.7 -3.1,-0.8 -4.6,-1.3c-1.5,-0.5 -2.9,-1 -4.3,-1.6c-1,-0.6 -2,-1.2 -3,-1.8c-1.6,-1.1 -3,-2.5 -4,-4.1c-0.8,-1.3 -1.5,-2.6 -1.6,-4c0,-0.7 0.3,-1.4 0.9,-1.9c1.1,-1 2.5,-1.4 3.9,-1.8c0.6,-0.2 1.3,-0.1 1.9,-0.5c0.5,-0.3 0.7,-0.9 0.8,-1.4c0.1,-1.2 0.3,-2.4 0.7,-3.5c0.2,-1 1.2,-1.6 1.2,-2.6c-0.1,-0.5 -0.4,-1 -0.8,-1.4c-0.8,-0.7 -1.7,-1.5 -2.3,-2.5v0c0.5,1 1.4,1.8 2.3,2.5c0.5,0.3 0.7,0.8 0.8,1.4c0,1.1 -0.9,1.7 -1.2,2.6c-0.4,1.2 -0.6,2.3 -0.7,3.5c0,0.5 -0.3,1.1 -0.8,1.4c-0.6,0.3 -1.3,0.3 -1.9,0.5c-1.4,0.4 -2.8,0.9 -3.9,1.8c-0.6,0.4 -0.9,1.1 -0.9,1.9c0.2,1.5 0.9,2.8 1.6,4c0.9,-1.3 2.4,-2.1 3.8,-2.9c1.5,-0.8 3,-1.5 4.6,-2c0.9,-0.2 1.9,-0.4 2.8,-0.6c-1,0.1 -1.9,0.3 -2.8,0.6c-1.6,0.4 -3.1,1.2 -4.6,2c-1.4,0.8 -2.9,1.6 -3.8,2.9c1.1,1.6 2.4,3 4,4.1c1,0.6 2,1.3 3,1.8c1.4,0.7 2.8,1.1 4.3,1.6c1.6,0.4 3.2,0.5 4.6,1.3z" fill="none"/><path d="M225.9,143.1c2.3,1.1 4.3,2.7 6.4,4.2c1.3,0.9 2.5,1.8 3.8,2.8c0.5,0.4 1.1,0.6 1.8,0.6c0.2,0 0.3,0 0.5,-0.1c-0.2,0.1 -0.4,0.1 -0.5,0.1c-0.6,0 -1.2,-0.3 -1.8,-0.6c-1.3,-0.9 -2.6,-1.8 -3.8,-2.8c-2.2,-1.5 -4.2,-3.1 -6.4,-4.2c-0.4,-0.2 -1.1,-0.6 -1.4,0c0.3,-0.6 0.9,-0.2 1.4,0z" fill="none"/><path d="M224.9,220.1z" fill="none"/><path d="M223,149.1c0.4,-2 0.3,-4.2 1.4,-6v0c-1.1,1.8 -1,4 -1.4,6c-0.2,1.1 -1,2.1 -2.1,2.5c-1.2,0.5 -2.6,0.6 -3.9,0.7c1.3,-0.1 2.6,-0.2 3.9,-0.7c1.1,-0.4 1.9,-1.4 2.1,-2.5z" fill="none"/><path d="M242,149.4c-0.1,0 -0.3,0 -0.3,0.1c0.1,-0.1 0.2,-0.1 0.3,-0.1c2.3,-0.7 4.6,-1.3 7,-1.7c2.3,-0.4 4.5,-0.9 6.8,-1c2.2,-0.2 4.5,-0.3 6.6,0.2c0.6,0.2 1.2,0.4 1.7,0.7c-0.5,-0.3 -1.1,-0.5 -1.7,-0.7c-2.2,-0.5 -4.4,-0.4 -6.6,-0.2c-2.3,0.1 -4.5,0.6 -6.8,1c-2.4,0.4 -4.7,1.1 -7,1.7z" fill="none"/><path d="M233.1,137.3c0.8,-0.1 1.6,-0.2 2.4,0.1c0.9,0.3 1.4,1.3 1.7,2.2c0.9,2.4 1,5 1,7.5v0c0,-2.5 -0.2,-5.1 -1,-7.5c-0.3,-0.9 -0.8,-1.8 -1.7,-2.2c-0.8,-0.3 -1.6,-0.3 -2.4,-0.1z" fill="none"/><path d="M237.8,147.3z" fill="none"/><path d="M231.6,137.7c-1.6,0.6 -3.1,1.5 -4.5,2.4v0c1.4,-0.9 2.9,-1.8 4.5,-2.4z" fill="none"/><path d="M220.3,146.1v0c-0.8,1 -1.7,1.9 -2.5,2.9v0c0.7,-0.9 1.6,-1.9 2.5,-2.9z" fill="none"/><path d="M216.5,203.1c0,0.3 -0.1,0.7 -0.1,1c0,-0.2 0,-0.6 0.1,-1z" fill="none"/><path d="M243.4,198.4c0,-0.2 0,-0.5 -0.1,-0.7c0.1,0.2 0.1,0.5 0.1,0.7z" fill="none"/><path d="M216.9,197.5z" fill="none"/><path d="M235.9,168.4c-0.3,0 -0.7,-0.3 -0.9,-0.6v0c0.3,0.3 0.6,0.6 0.9,0.6z" fill="none"/><path d="M227.4,167l0.1,-0.1c0,0 0,0 0,0.1c0,0.1 -0.1,0.3 -0.1,0.4v0c0,0 0,-0.1 0,-0.2c0,-0.1 0,-0.2 0,-0.2z" fill="none"/><path d="M222.1,164.8c0,-0.6 0.5,-1.3 1.1,-1.4c-0.7,0.1 -1.1,0.8 -1.1,1.4c0,0.5 0.2,1.1 0.5,1.5v0c0.1,0.1 0.3,0.1 0.4,0.2c-0.1,0 -0.3,-0.1 -0.4,-0.2c-0.4,-0.4 -0.5,-0.9 -0.5,-1.5z" fill="none"/><path d="M251.9,173.5c0,-0.5 0.2,-0.9 0.5,-1.2c-0.3,0.3 -0.5,0.7 -0.5,1.2c-0.1,1.4 1.1,2.2 2,3c-0.2,0.3 -0.5,0.5 -0.8,0.7c0.3,-0.2 0.6,-0.4 0.8,-0.7c-0.9,-0.7 -2.1,-1.6 -2,-3z" fill="none"/><path d="M249.3,209.9c-0.2,0.1 -0.4,0.1 -0.6,0.1c0.1,-0.1 0.2,-0.1 0.3,-0.1c0.1,0 0.2,-0.1 0.3,0z" fill="none"/><path d="M231.2,168.8c-0.5,0.3 -1,0.6 -1.7,0.5c-0.5,0 -0.8,-0.3 -1.2,-0.6c-0.7,0.2 -1.6,0.4 -2.2,-0.2c-0.6,-0.6 -0.5,-1.6 -0.1,-2.3v0c-0.3,0.7 -0.5,1.7 0.1,2.3c0.6,0.6 1.5,0.4 2.2,0.2c0.3,0.3 0.7,0.6 1.2,0.6c0.7,0.1 1.2,-0.2 1.7,-0.5c0,0 0.1,0 0,0c0.2,-0.2 0.4,-0.4 0.5,-0.6c-0.1,0.2 -0.3,0.4 -0.5,0.6z" fill="none"/><path d="M219.7,207c0.3,2.3 0.7,4.6 1.2,6.9c-0.6,-2.3 -1,-4.6 -1.2,-6.9z" fill="none"/><path d="M245.7,219c0.2,0 0.3,0.1 0.4,0.1c-0.1,0 -0.2,-0.1 -0.4,-0.1z" fill="none"/><path d="M222.4,221.4c0,-0.1 0,-0.3 0,-0.4c0,0.2 0,0.3 0,0.4z" fill="none"/><path d="M273.9,192.1c0.2,-0.3 0.4,-0.7 0.4,-1.1c0,0.4 -0.2,0.8 -0.4,1.1z" fill="none"/><path d="M244.9,217.9c-0.8,-0.3 -1.6,-0.6 -2.5,-0.7c1.1,0.1 2,0.4 2.5,0.7z" fill="none"/><path d="M249.9,202.7v0c0,-0.2 0.1,-0.3 0.1,-0.4c0,0 0,0 0,-0.1c0,0.2 0,0.3 -0.1,0.5z" fill="none"/><path d="M240.6,217.4c-0.4,0.2 -0.9,0.4 -1.3,0.7c0.4,-0.3 0.9,-0.6 1.3,-0.7z" fill="none"/><path d="M250.5,205.5v0c0,-0.5 -0.1,-1 -0.2,-1.5v-0.1c0.1,0.5 0.2,1.1 0.2,1.6z" fill="none"/><path d="M253.5,200.6c0.1,0.2 0.1,0.6 -0.1,0.8c-0.6,0.8 -1.1,1.6 -1.6,2.4v0c0.6,-0.8 1.1,-1.6 1.6,-2.4c0.2,-0.2 0.2,-0.5 0.1,-0.8c-0.2,-0.1 -0.5,-0.3 -0.7,-0.4c0.2,0.1 0.5,0.2 0.7,0.4c-0.1,-0.8 -0.4,-1.6 -0.7,-2.4c-1.8,-5.5 -4.6,-10.5 -7.5,-15.6c-0.9,-0.1 -1.8,0 -2.7,0c-1.9,0 -3.8,-0.1 -5.7,0c0,0.2 0,0.4 0,0.6c0,-0.2 0,-0.4 0,-0.6c1.9,0 3.8,0 5.7,0c0.9,0 1.8,-0.1 2.7,0c-0.4,-0.6 -0.8,-1.2 -1.1,-1.8c0,0 -0.1,-0.1 -0.1,-0.2c0,0.1 0.1,0.2 0.1,0.3c0.4,0.6 0.8,1.2 1.1,1.8c3,5 5.8,10 7.5,15.5c0.2,0.8 0.5,1.6 0.7,2.4z" fill="none"/><path d="M235.2,211.4c0.6,-0.4 1.2,-0.9 1.6,-1.5c1.2,-2.6 1.5,-5.5 1.3,-8.3v0c0.2,2.8 -0.1,5.7 -1.3,8.3c-0.8,1.2 -2.2,2.2 -3.7,2c-0.5,-0.1 -1.1,-0.3 -1.6,-0.5c0.2,0.1 0.3,0.2 0.6,0.3c0.4,0.1 0.5,0.1 1,0.2h0.1c0.7,0 1.4,-0.1 2,-0.5z" fill="none"/><path d="M251.5,209.1c0,0 -0.1,0.1 -0.2,0.1c0,0 0.1,-0.1 0.2,-0.1c0.2,2.5 0.8,4.9 0.9,7.4c0.1,0.4 0.2,0.9 0.3,1.4c0.2,1.4 0.3,2.9 0.4,4.3v0c-0.1,-1.4 -0.3,-2.9 -0.4,-4.3c0,-0.5 -0.2,-0.9 -0.3,-1.4c-0.1,-2.5 -0.7,-4.9 -0.9,-7.4z" fill="none"/><path d="M240.8,200.9c-0.3,-0.9 -0.6,-1.9 -0.6,-2.9c0,1 0.3,2 0.6,2.9c0.7,2.3 1.4,4.6 2.5,6.8c0.2,0.5 0.7,1.1 1.5,1.6c-0.6,-0.4 -1.2,-1 -1.5,-1.6c-1.2,-2.1 -1.8,-4.5 -2.5,-6.8z" fill="none"/><path d="M236.7,222.1v0.1v0c0,-0.1 0,-0.1 0,-0.1z" fill="none"/><path d="M267.5,188.8c-2.3,0.1 -4.5,0.7 -6.5,1.7c2,-1 4.2,-1.7 6.5,-1.7z" fill="none"/><path d="M246.5,203.8c0,-0.2 0,-0.3 0.1,-0.4c0,0.1 -0.1,0.3 -0.1,0.4c-0.1,1 0,2 -0.1,3v0c0.1,-1 0,-2 0.1,-3z" fill="none"/><path d="M239.6,219c0,-0.3 0.2,-0.6 0.4,-0.8c-0.2,0.2 -0.4,0.5 -0.4,0.8c-0.2,1.1 -0.6,2.2 -0.6,3.3v0c0,-1.1 0.3,-2.1 0.6,-3.3z" fill="none"/><path d="M244.5,221.6c0,0.2 0.1,0.4 -0.1,0.6c0.2,-0.2 0.1,-0.4 0.1,-0.6c0,-0.7 -0.1,-1.4 0.1,-2v0v0c-0.2,0.6 -0.1,1.3 -0.1,2z" fill="none"/><path d="M248.2,222.1v0c0,-0.2 -0.1,-0.5 -0.1,-0.7c0.1,0.3 0.1,0.5 0.1,0.7z" fill="none"/><path d="M229.6,213.3c-0.1,-0.1 -0.2,-0.1 -0.3,-0.2c0.1,0.1 0.2,0.1 0.3,0.2c0.3,0.1 0.6,0.3 0.9,0.4c-0.3,-0.1 -0.6,-0.2 -0.9,-0.4z" fill="none"/><path d="M224.8,222.4v0c-0.1,-0.2 -0.1,-0.5 -0.1,-0.7c0,-0.1 0,-0.3 0,-0.4c0,0.4 0.1,0.8 0.1,1.1z" fill="none"/><path d="M228.6,210.8v0c-0.2,0.3 -0.3,0.7 -0.3,1.1c0.1,0.2 0.2,0.5 0.7,1.1c-0.3,-0.3 -0.6,-0.6 -0.7,-1.1c0,-0.4 0.1,-0.8 0.3,-1.1z" fill="none"/><path d="M233.6,219.6v0c0,0.6 0,1.2 -0.1,1.8c0,-0.7 0.1,-1.3 0.1,-1.8z" fill="none"/><path d="M233.1,214.5h-0.1h0.1c0.1,0.1 0.1,0.2 0.1,0.3c0,-0.1 -0.1,-0.2 -0.1,-0.3z" fill="none"/><path d="M230.5,210.8v0v0c-0.2,-0.1 -0.4,-0.1 -0.5,-0.2c0.2,0 0.3,0.1 0.5,0.2z" fill="none"/><path d="M258.6,214.9c2,-0.3 4.1,-0.4 6.1,-0.9c-2,0.6 -4.1,0.7 -6.1,0.9c-1,0.1 -2.1,0.3 -3.1,0.3c-0.5,-2.7 -0.8,-5.5 -1.2,-8.2c-0.1,-0.2 -0.2,-0.5 -0.4,-0.7c0.7,-1.2 1.4,-2.4 2.2,-3.5c0.7,-1 0.5,-2.2 0.3,-3.2c-0.4,-1.6 -1,-3.1 -1.5,-4.7c1.5,-1.9 3.5,-3.1 5.6,-4.2c-2.1,1.1 -4.2,2.3 -5.6,4.2c0.5,1.5 1.1,3.1 1.5,4.7c0.2,1.1 0.3,2.3 -0.3,3.2c-0.7,1.2 -1.5,2.3 -2.2,3.5c0.2,0.2 0.3,0.4 0.4,0.7c0.4,2.7 0.7,5.5 1.2,8.2c1.1,0 2.1,-0.2 3.1,-0.3z" fill="none"/><path d="M271.7,210.1c-1.5,1.7 -3.5,2.7 -5.5,3.5v0c1.9,-0.8 4,-1.8 5.5,-3.5z" fill="none"/><path d="M270.3,200.1v0c-0.3,-0.2 -0.5,-0.4 -0.8,-0.7c0.3,0.2 0.6,0.4 0.8,0.7z" fill="none"/><path d="M228.8,210.7h0.1h-0.1v0c-0.9,-1.1 -1.7,-2.2 -2.1,-3.5c-1,-2.8 -1.5,-5.7 -1.4,-8.6c-0.1,-3.6 0,-7.2 1.1,-10.6c0.4,-1.1 0.6,-2.3 1.1,-3.4c0,-0.2 0.2,-0.6 -0.1,-0.7c-0.5,-0.3 -1.1,-0.4 -1.6,-0.5c0.5,0.2 1.1,0.3 1.6,0.5c0.4,0.1 0.2,0.5 0.1,0.7c-0.5,1.1 -0.7,2.3 -1.1,3.4c-1.1,3.4 -1.1,7.1 -1.1,10.6c-0.1,2.9 0.4,5.8 1.4,8.6c0.4,1.3 1.2,2.4 2.1,3.5z" fill="none"/><path d="M264.4,193.1c-0.8,1.3 -1.5,2.8 -2,4.2v0v0c0.5,-1.4 1.2,-2.9 2,-4.2c0.9,-1.4 1.8,-2.9 2.9,-4.2l0.1,-0.1c2.1,0.1 4.2,0.4 6.1,1.4c0,0 0,0 0.1,0c0,0 0,0 -0.1,0c-1.9,-1 -4,-1.3 -6.1,-1.4v0.2v0c-1.2,1.2 -2.1,2.7 -3,4.1z" fill="none"/><path d="M224.3,166.2c-0.4,0.3 -0.9,0.4 -1.3,0.3c-0.1,-0.1 -0.3,-0.1 -0.4,-0.2c-0.3,-0.4 -0.5,-1 -0.5,-1.5c0,-0.6 0.5,-1.3 1.1,-1.4c0.1,0 0.2,0 0.3,0c0.7,-0.1 1.2,0.6 1.3,1.2c0.1,0.6 -0.2,1.1 -0.5,1.6z" fill="#001773"/><path d="M253,166.4c-0.6,0.5 -1.3,0.8 -2.1,0.9c-0.2,-0.5 -0.4,-0.9 -0.7,-1.4v0v0v0c0.1,-0.1 0.2,-0.2 0.2,-0.3c0.1,-0.3 0,-0.5 -0.2,-0.7c-0.1,0 -0.3,-0.1 -0.4,-0.2c-0.2,-0.1 -0.4,-0.2 -0.7,-0.2v0l-0.2,-0.1c0.8,-0.1 1,0 1.4,-0.2c0.1,-0.1 0.2,-0.1 0.3,-0.2c0.1,-0.1 0.2,-0.2 0.2,-0.3c0,-0.3 -0.1,-0.6 -0.3,-0.8v0v0c-0.7,-0.5 -1.6,-0.1 -2.4,0l0.1,-0.1c0.2,-0.2 0.4,-0.5 0.5,-0.8c0,-0.1 0,-0.1 0,-0.2c0.2,-1.3 0,-2.6 -0.1,-3.9c0.3,-0.2 0.7,-0.4 1,-0.6c2.2,-1.3 4.7,-2.1 7.2,-2.8c0.6,-0.1 1.2,-0.3 1.8,-0.4c0.5,-0.1 1,-0.1 1.5,-0.1c0.1,0 0.2,0 0.3,0c0,0.5 -0.1,1 -0.2,1.5c-0.6,1.9 -1.5,3.8 -2.6,5.6c-1.3,2 -2.7,4 -4.6,5.3z" fill="#fd8781"/><path d="M227.1,140.1c1.4,-0.9 2.9,-1.8 4.5,-2.4c0.2,0 0.5,-0.1 0.7,-0.2c0.3,-0.1 0.5,-0.1 0.8,-0.2c0.8,-0.1 1.6,-0.2 2.4,0.1c0.9,0.4 1.4,1.3 1.7,2.2c0.9,2.4 1,5 1,7.5l-0.4,0.2h-0.1c-2.6,-1.8 -5.2,-3.8 -7.9,-5.6c-0.8,-0.6 -1.7,-1.1 -2.7,-1.6z" fill="#ffffff"/><path d="M262.3,146.9c0.6,0.2 1.2,0.4 1.7,0.7c0.4,0.2 0.8,0.5 1,1c0.5,1 0.4,2.2 0.3,3.3c-0.5,3.1 -1.9,5.9 -3.2,8.6c-0.2,0.5 -0.5,1 -0.8,1.4v0c-0.5,0.1 -1.1,0 -1.6,-0.1c1.1,-2 2.1,-4.1 2.7,-6.3c0.2,-0.9 0.3,-2.1 -0.4,-2.9c-0.6,-0.7 -1.6,-0.9 -2.5,-0.8c-1.4,0.1 -2.7,0.4 -4,0.8c-0.1,0.1 -0.3,0.1 -0.5,0.2c-0.3,-2.1 0.1,-4.2 0.8,-6.1c2.1,-0.2 4.4,-0.3 6.5,0.2z" fill="#ffffff"/><path d="M232.9,212c-0.6,-0.1 -1.1,-0.3 -1.6,-0.5c-0.2,-0.2 -0.5,-0.4 -1,-0.6v0c-0.2,-0.1 -0.3,-0.2 -0.5,-0.2c-0.4,-0.2 -0.6,-0.2 -0.8,-0.1c-0.1,0 -0.2,0 -0.3,0.1h-0.1c-0.9,-1.1 -1.7,-2.2 -2.1,-3.5c-1,-2.7 -1.5,-5.7 -1.4,-8.6c-0.1,-3.6 0,-7.2 1.1,-10.6c0.4,-1.1 0.6,-2.3 1.1,-3.4c0,-0.2 0.2,-0.6 -0.1,-0.7c-0.5,-0.2 -1.1,-0.4 -1.6,-0.5c-0.5,-0.2 -1.1,-0.2 -1.6,-0.3h-0.2v-0.1c0.2,-0.7 0,-1.6 -0.6,-2c-0.1,0 -0.1,-0.1 -0.2,-0.1c-1.4,-0.7 -3.1,-0.8 -4.6,-1.3c-1.4,-0.5 -2.9,-1 -4.3,-1.6c-1,-0.6 -2,-1.2 -3,-1.8c-1.6,-1.1 -3,-2.5 -4,-4.1c0.9,-1.3 2.4,-2.1 3.8,-2.9c1.5,-0.8 3,-1.5 4.6,-2c1,-0.2 1.9,-0.4 2.8,-0.6c0.3,0 0.6,-0.1 0.9,-0.1c1.1,-0.1 2.2,-0.4 3.3,-0.2v0v0c0.1,0.1 0.3,0.2 0.4,0.2c0.5,0.1 0.9,0 1.3,-0.3c0.5,0 1.1,0 1.7,0.1c-0.3,0.7 -0.5,1.7 0.1,2.3c0.6,0.6 1.5,0.4 2.2,0.2c0.4,0.3 0.7,0.6 1.2,0.6c0.7,0.1 1.2,-0.2 1.7,-0.5h0.1v0c1.3,-0.4 2.6,-0.6 3.8,-1c0.3,0.3 0.6,0.6 1,0.6c0.1,0 0.2,0 0.3,0c0.6,-0.1 1,-0.6 1.2,-1.2v0v0v0c2.7,-0.4 5.4,0.3 8.1,0.9c1.1,0.2 2,0.8 3.1,1.1v0v0c0.2,0.1 0.3,0.2 0.4,0.2c0.1,0 0.3,0.1 0.4,0.1v0c0.4,0.3 0.9,0.4 1.4,0.6c0.6,0.2 1.3,0.7 2,0.7c0.3,0.2 0.7,0.3 1,0.5c-0.1,0 -0.1,0 -0.1,0c-0.4,0.3 -0.9,0.6 -1.3,1c-0.3,0.3 -0.5,0.7 -0.5,1.2c-0.1,1.4 1.1,2.2 2,3c-0.3,0.3 -0.5,0.5 -0.8,0.7c-1.2,0.8 -2.8,0.9 -4.2,1c-1.1,-0.1 -2.2,-0.1 -3.3,-0.2c-0.4,0 -0.8,0.1 -1.1,0.3c-0.2,0.1 -0.4,0.3 -0.5,0.5c-0.2,0.5 -0.3,1.1 -0.1,1.7c0.1,0.1 0.1,0.1 0.1,0.2v0c0,0 0.1,0.1 0.1,0.2c0.4,0.6 0.8,1.2 1.1,1.8c-0.9,-0.1 -1.8,0 -2.7,0c-1.9,0 -3.8,-0.1 -5.7,0c0,0.2 0,0.4 0,0.6c-0.1,1.3 0.3,2.6 0.3,3.9c0.3,4.7 0.6,9.5 0.9,14.3c0.2,2.8 -0.1,5.7 -1.3,8.3c-0.8,1.2 -2.2,2.2 -3.9,2.1z" fill="#ffffff"/><path d="M274.4,190.8c0,0.1 0,0.1 0,0.2c0,0.4 -0.2,0.8 -0.4,1.1c0,0.1 0,0.1 0,0.1c-1,1.6 -2.7,2.7 -4.2,3.8c-0.6,0.5 -1,1.2 -0.9,1.9c0.1,0.6 0.4,1.1 0.8,1.5c0.3,0.3 0.5,0.5 0.8,0.7v0c1.2,1 2.6,2 3.1,3.5c0.6,1.9 0,4 -1,5.6c-0.3,0.4 -0.5,0.7 -0.8,1c-1.5,1.7 -3.5,2.7 -5.5,3.5c-1.1,-0.7 -2.2,-1.4 -3,-2.4c-0.9,-1 -1.4,-2.3 -1.7,-3.6c-0.4,-1.3 -0.2,-2.5 -0.2,-3.8c0.1,-2.2 0.5,-4.4 1.1,-6.5v0c0.5,-1.4 1.2,-2.9 2,-4.2c0.8,-1.5 1.8,-2.9 2.9,-4.2l0.1,-0.2c2.1,0.1 4.2,0.4 6.1,1.4c0.1,0 0.1,0 0.1,0c0.1,0.1 0.2,0.1 0.3,0.2l0.1,0.1c0.1,0.1 0.2,0.2 0.3,0.3z" fill="#ffffff"/><path d="M253.3,201.4c-0.6,0.8 -1.1,1.6 -1.6,2.4c-0.1,-0.6 -0.1,-1.4 -0.7,-1.9c-0.1,-0.1 -0.2,-0.1 -0.3,-0.1c-0.1,0 -0.2,0 -0.3,0.1c-0.1,0.1 -0.2,0.3 -0.3,0.4c-0.1,0.1 -0.2,0.3 -0.2,0.4v0c-0.1,0.4 0.1,0.8 0.3,1.2c0.1,0.6 0.2,1.1 0.3,1.6v0c-0.5,0.7 -1.3,1.2 -2.1,1.3c-0.1,0 -0.1,0 -0.2,0c-0.1,0 -0.1,0 -0.2,0c-0.2,-0.5 -0.2,-0.9 -0.2,-1.4c0.1,-1.1 0.5,-1.7 0.1,-2.2c-0.1,-0.1 -0.3,-0.3 -0.5,-0.3c-0.1,0 -0.2,0 -0.3,0c-0.2,0.1 -0.5,0.3 -0.6,0.5c0,0.1 -0.1,0.3 -0.1,0.4c0,1 0.1,2 0,3c-0.9,-1.2 -1.3,-2.7 -1.8,-4.1v0v0c0.2,-0.7 0.4,-1.5 1.1,-2c1,-0.9 2.3,-1.7 3.7,-1.4c1.1,0.1 2.3,0.4 3.3,0.9c0.3,0.1 0.5,0.2 0.7,0.4c0.2,0.3 0.1,0.6 -0.1,0.8z" fill="#ffffff"/><path d="M216.9,197.5v0c-0.1,0.8 -0.2,1.4 -0.2,1.8c-0.1,0.8 -0.1,1.8 -0.1,1.8c0,0 0,1.1 -0.1,2.1c-0.1,0.3 -0.1,0.7 -0.1,1c-0.5,-0.7 -0.8,-1.5 -0.9,-2.3c-0.1,-0.6 0,-1.1 0.2,-1.7c0.1,-0.2 0.1,-0.4 0.7,-1.6c0.2,-0.5 0.4,-0.9 0.5,-1.1z" fill="#ffffff"/><path d="M248.2,221.4c0,0.2 0.1,0.5 0.1,0.7c-0.5,0 -1,0 -1.5,0c-0.2,-0.9 0.2,-1.9 -0.3,-2.8l-0.2,-0.1c-0.1,0 -0.1,-0.1 -0.2,-0.1c-0.1,-0.1 -0.3,-0.1 -0.4,-0.1c-0.2,0 -0.4,0 -0.6,0.1c-0.1,0.1 -0.3,0.2 -0.4,0.4v0c-0.2,0.6 -0.1,1.3 -0.1,2c0,0.2 0,0.4 -0.1,0.6c-0.1,0.1 -0.1,0.1 -0.1,0.1c-1,0.1 -2,0.1 -3,0.1c-0.1,-0.1 -0.1,-0.2 -0.1,-0.3c0,-0.1 0,-0.3 0,-0.4c0.2,-0.8 0.3,-1.6 0.5,-2.4c0.2,-0.7 -0.6,-1.6 -1.4,-1.3c-0.2,0.1 -0.4,0.2 -0.5,0.3c-0.2,0.2 -0.4,0.5 -0.4,0.8c-0.2,1.1 -0.6,2.2 -0.6,3.3c-0.8,0 -1.5,0 -2.3,0c0,-0.1 0,-0.1 0,-0.2v0v-0.1c0.4,-1.7 1.4,-3.1 2.6,-4c0.4,-0.3 0.8,-0.5 1.3,-0.7c0.2,0 0.3,-0.1 0.4,-0.1c0.5,-0.1 1,-0.1 1.4,-0.1c0.9,0.1 1.7,0.4 2.5,0.7c0.2,0.1 0.3,0.2 0.4,0.2c1.1,0.6 1.9,1.5 2.5,2.5c0.2,0.3 0.3,0.6 0.5,0.9z" fill="#ffffff"/><path d="M226.6,220.7c0.3,0.5 0.6,1 1,1.5c-0.9,0 -1.8,0.2 -2.7,0.2c0,-0.4 0,-0.7 -0.1,-1.1c0,0 0,-0.1 0,-0.2c0,-0.2 0,-0.3 0.1,-0.6c0.1,-0.2 0.1,-0.3 0.1,-0.4v0v0v-0.1c0,-0.2 0,-0.4 -0.1,-0.5c-0.1,-0.1 -0.1,-0.1 -0.2,-0.2c-0.1,-0.1 -0.2,-0.2 -0.3,-0.3h-0.1v0c-0.1,0 -0.2,0 -0.3,0c-0.3,0 -0.6,0 -0.7,0.3v0c-0.6,0.4 -0.7,1.1 -0.7,1.6c0,0.1 0,0.1 0,0.2c0,0.1 0,0.3 0,0.4c0,0.4 0.1,0.8 0.2,1.2c-1.1,0.1 -2.3,0.2 -3.5,0.2c0.2,-1 0.9,-1.9 1.3,-2.8c0.2,-0.6 0.7,-0.9 1.1,-1.3c0.9,-0.3 2.1,-0.3 3,0.1c0,0 0.1,0 0.2,0.1h0.1c0,0.1 0.1,0.1 0.1,0.1l0.1,0.1c0,0.1 0.1,0.1 0.1,0.1l0.1,0.1c0.1,0.1 0.1,0.1 0.1,0.1l0.1,0.1c0.1,0.1 0.1,0.1 0.1,0.1c0.1,0.1 0.1,0.1 0.2,0.2v0c0.1,0 0.1,0.1 0.1,0.2v0c0.1,0.1 0.1,0.1 0.2,0.2v0c0.1,0.1 0.1,0.1 0.2,0.2v0c0.1,0.1 0.1,0.1 0.2,0.2z" fill="#ffffff"/><path d="M217.8,149c0.8,-1 1.7,-1.9 2.5,-2.9c-0.2,0.8 -0.2,1.6 -0.4,2.4c-0.6,0.5 -1.5,0.5 -2.1,0.5z" fill="#fddf7d"/><path d="M253,170.8v0c-0.7,-0.1 -1.4,-0.5 -2,-0.7c-0.5,-0.2 -1,-0.3 -1.4,-0.6c0.4,0.1 0.7,0.1 1.1,0.1c0.5,0 0.9,-0.1 1.4,-0.2c0.2,0.4 0.4,0.8 0.7,1.2z" fill="#fddf7d"/><path d="M244.6,202.6v0v0c-0.4,-1.1 -0.8,-2.3 -1.1,-3.4c-0.1,-0.2 -0.1,-0.5 -0.1,-0.8c-0.1,-0.2 -0.1,-0.5 -0.1,-0.7c-0.1,-0.4 -0.2,-0.7 -0.6,-1c-0.8,-0.8 -2.4,-0.2 -2.6,0.9c0,0.1 0,0.3 0,0.4c0,1 0.4,2 0.7,2.6c0.7,2.3 1.4,4.6 2.5,6.8c0.3,0.7 0.8,1.2 1.5,1.6c0.5,0.3 1,0.6 1.6,0.7c0.9,0.2 1.7,0.1 2.4,0c0.2,0 0.4,0 0.6,-0.1c0.6,-0.1 1.3,-0.3 1.9,-0.6c0,0 0.1,-0.1 0.2,-0.1c0.2,2.4 0.8,4.8 0.9,7.3c0.1,0.5 0.3,0.9 0.3,1.4c0.2,1.4 0.3,2.9 0.4,4.3c-1.6,0 -3.2,0 -4.8,0v0c0,-0.2 0,-0.5 -0.1,-0.7c-0.1,-0.3 -0.2,-0.6 -0.4,-0.9c-0.7,-1 -1.4,-2 -2.5,-2.5c-0.1,-0.1 -0.2,-0.1 -0.4,-0.2c-0.5,-0.2 -1.4,-0.6 -2.5,-0.7c-0.4,0 -0.9,0 -1.4,0.1c-0.2,0 -0.3,0.1 -0.4,0.1c-0.4,0.2 -0.9,0.4 -1.3,0.7c-1.3,0.9 -2.2,2.3 -2.6,4v0.1c0,0.1 0,0.1 0,0.2c-0.2,0 -0.4,0 -0.6,0v0v0v0h-0.1c0.3,-2.4 0,-4.8 -0.2,-7.2c-0.2,-0.7 0.2,-1.6 -0.4,-2.2c-0.5,-0.5 -1.5,-0.8 -2.2,-1c0.7,0 1.4,-0.2 2,-0.5c0.7,-0.3 1.2,-0.9 1.6,-1.5c1.2,-2.6 1.5,-5.5 1.3,-8.3v0c-0.3,-4.7 -0.6,-9.5 -0.9,-14.3c0,-1.3 -0.3,-2.6 -0.3,-3.9c0,-0.2 0,-0.4 0,-0.6c1.9,0 3.8,0 5.7,0c0.9,0 1.8,-0.1 2.7,0c3,5 5.8,10 7.5,15.5c0.3,0.8 0.6,1.6 0.7,2.4c-0.2,-0.1 -0.5,-0.3 -0.7,-0.4c-1,-0.5 -2.2,-0.7 -3.3,-0.9c-1.4,-0.2 -2.7,0.6 -3.7,1.4c-0.7,0.5 -0.9,1.3 -1.2,2z" fill="#fddf7d"/><path d="M228.9,210.5v0l-0.1,0.1v0v0c-0.2,0.3 -0.3,0.7 -0.3,1.1c0,0.5 0.3,0.8 0.7,1.1c0,0.1 0.1,0.1 0.2,0.2c0.1,0.1 0.2,0.1 0.3,0.2c0.3,0.2 0.6,0.3 0.9,0.4c0.8,0.3 1.7,0.5 2.5,0.7h0.1c0,0.1 0.1,0.2 0.1,0.3c0.1,0.5 0.1,0.9 0.1,1.4c0.2,1.2 0.2,2.3 0.3,3.5v0v0c0,0.5 0,1.1 -0.1,1.8c-0.1,0.3 -0.1,0.5 -0.1,0.8c-2,0 -4,-0.1 -6,0v0c-0.2,-0.5 -0.5,-1 -0.8,-1.5v0c-0.1,-0.1 -0.1,-0.1 -0.2,-0.2v0c-0.1,-0.1 -0.1,-0.1 -0.2,-0.2v0c-0.1,-0.1 -0.1,-0.1 -0.2,-0.2v0c-0.1,0 -0.1,-0.1 -0.3,0.1v0c-0.1,-0.1 -0.1,-0.1 -0.2,-0.2c-0.1,-0.1 -0.1,-0.1 -0.1,-0.1l-0.1,-0.1c-0.1,-0.1 -0.1,-0.1 -0.1,-0.1c0,0 0,-0.1 -0.1,-0.1c0,-0.1 -0.1,-0.1 -0.1,-0.1l-0.1,-0.1c0,-0.1 -0.1,-0.1 -0.1,-0.1c-0.1,0 -0.1,-0.1 -0.2,-0.1c0,0 -0.1,-0.1 -0.2,-0.1c-0.9,-0.4 -2,-0.4 -3,-0.1c0,-0.2 0.1,-0.3 0.1,-0.4c0.1,-0.2 0.1,-0.3 0.1,-0.4c0,-0.1 0,-0.1 0,-0.2c0,-0.1 0,-0.1 0,-0.2c0,-0.1 0,-0.1 0,-0.2c0,-0.1 0,-0.1 0,-0.2c-0.3,-1.1 -0.5,-2.3 -0.8,-3.4c-0.5,-2.3 -1,-4.6 -1.2,-6.9v0c-0.3,-3.7 0,-7.4 0.7,-11.1v0c0.5,-2.5 1.1,-5.1 1.8,-7.5c0.3,-1.1 0.7,-2.2 1.1,-3.3c0.3,-0.7 0.5,-1.3 0.7,-2h0.2c0.5,0.1 1.1,0.2 1.6,0.3c0.6,0.2 1.1,0.3 1.6,0.5c0.4,0.1 0.2,0.5 0.1,0.7c-0.5,1.1 -0.7,2.3 -1.1,3.4c-1.1,3.4 -1.1,7.1 -1.1,10.6c-0.1,2.9 0.4,5.8 1.4,8.6c0.4,1.3 1.2,2.4 2.2,3.3z" fill="#fddf7d"/><path d="M266,213.5v0v0c-0.4,0.2 -0.8,0.4 -1.3,0.5c-2,0.6 -4.1,0.7 -6.1,0.9c-1.1,0.1 -2.1,0.2 -3.2,0.3c-0.5,-2.7 -0.8,-5.5 -1.2,-8.2c-0.1,-0.2 -0.2,-0.5 -0.4,-0.7c0.7,-1.2 1.4,-2.4 2.2,-3.5c0.7,-1 0.5,-2.2 0.3,-3.2c-0.4,-1.6 -1,-3.1 -1.5,-4.7c1.5,-1.9 3.5,-3.1 5.6,-4.2c0.1,-0.1 0.3,-0.1 0.4,-0.2c2,-1 4.2,-1.7 6.5,-1.7l-0.1,0.1v0v0c-1.1,1.3 -2,2.8 -2.9,4.2c-0.8,1.3 -1.5,2.7 -2,4.2v0c-0.6,2.2 -1,4.3 -1.1,6.5c0,1.3 -0.1,2.6 0.2,3.8c0.4,1.3 0.9,2.5 1.7,3.6c0.9,1 2,1.7 2.9,2.3z" fill="#fddf7d"/><path d="M246.4,157.1c-1.5,-1.6 -2.4,-3.5 -3.5,-5.4c-0.4,-0.7 -0.7,-1.5 -0.9,-2.3v0v0c2.3,-0.6 4.6,-1.3 7,-1.7c2.3,-0.4 4.5,-0.9 6.8,-1c-0.7,2 -1.1,4.1 -0.8,6.1v0c-2.8,0.9 -5.6,1.8 -7.9,3.6c-0.2,0.2 -0.5,0.4 -0.7,0.7z" fill="#3a3b29"/><path d="M261.2,161.7c-0.3,0.9 -0.8,1.6 -1.2,2.3c-1.5,2.8 -3.6,5.4 -6.2,7.2c-0.4,-0.1 -0.7,-0.3 -1,-0.5l-0.1,-0.2c-0.2,-0.3 -0.5,-0.7 -0.7,-1.1c1.3,-0.3 2.2,-1 3.2,-1.9c1.8,-1.6 3.3,-3.6 4.5,-5.7v0c0.5,0.1 1.1,0.2 1.5,-0.1z" fill="#3a3b29"/><path d="M212.1,152.6c1.1,-0.1 2.3,-0.1 3.4,-0.2c0.6,0 1.1,-0.1 1.7,-0.1c1.3,-0.1 2.7,-0.2 3.9,-0.7c1,-0.4 1.8,-1.4 2,-2.5c0.4,-2 0.3,-4.2 1.4,-6c0.3,-0.6 1,-0.2 1.4,0c2.3,1.2 4.3,2.8 6.4,4.2c1.2,1 2.5,1.9 3.8,2.8c0.6,0.3 1.2,0.6 1.8,0.6c0.2,0 0.3,0 0.5,-0.1c0.8,-0.3 2.4,-0.9 3.3,-1.1c0.1,-0.1 0.2,-0.1 0.3,-0.1v0c0.2,0.8 0.5,1.6 0.9,2.3v0c1,1.9 2,3.8 3.5,5.4v0c-0.3,0.7 0.1,1.5 0.1,2.3c0.1,0.5 0.1,1.1 0,1.6c-0.1,0.5 -0.3,1.1 -0.1,1.6c0,0.1 0.1,0.4 0.3,0.4c0.2,0 0.2,-0.1 0.3,0c0,0.1 0,0.2 0,0.5c0,0.1 -0.1,0.3 -0.1,0.4c0,0.1 0,0.2 0,0.3c0.1,0.1 0.1,0.2 0.2,0.3c0.2,0.1 0.5,0.1 0.7,0.1c0.3,-0.1 0.7,-0.1 1,-0.1h0.1l0.2,0.1c-0.7,-0.1 -1.3,0.1 -1.6,0.5c0,0.1 -0.1,0.2 -0.1,0.3c0,0.2 0,0.4 0.2,0.5v0v0c0.5,0.3 1.2,0.2 1.8,0.3c0.3,0.1 0.6,0 0.8,-0.1v0c0.2,0.5 0.5,0.9 0.7,1.4v0c-0.3,0 -0.7,0 -1,-0.1c-0.4,-0.1 -0.7,-0.2 -1,-0.1c-0.2,0.1 -0.4,0.2 -0.5,0.3c-0.1,0.1 -0.2,0.3 -0.2,0.5c0,0.3 0.1,0.6 0.2,0.8c0.1,0.2 0.3,0.4 0.5,0.6v0v0v0c-1.1,-0.3 -2,-0.9 -3.1,-1.1c-2.6,-0.6 -5.4,-1.4 -8.1,-0.9v0c0.1,-0.4 0.1,-0.9 0,-1.3c-0.1,-0.2 -0.3,-0.4 -0.5,-0.5c-0.3,-0.2 -0.8,-0.2 -1.1,0c-0.7,0.5 -1.4,1.4 -1,2.3v0v0c-1.3,0.4 -2.6,0.6 -3.8,1v0c0.1,-0.2 0.3,-0.4 0.4,-0.6c0.1,-0.1 0.1,-0.2 0.2,-0.3c0.2,-0.3 0.4,-0.8 0.2,-1.1c-0.1,-0.1 -0.1,-0.2 -0.2,-0.2c-0.1,-0.1 -0.1,-0.2 -0.2,-0.2c-0.2,-0.1 -0.3,-0.1 -0.5,0c-0.3,0.1 -0.4,0.4 -0.8,0.9c-0.2,0.2 -0.5,0.6 -0.7,0.5c-0.2,-0.1 0,-0.7 -0.4,-0.9c0,-0.1 -0.1,-0.1 -0.2,-0.1c-0.6,-0.1 -1.1,0.4 -1.7,0.6c0,-0.1 0.1,-0.3 0.1,-0.4v-0.1c0.2,-0.3 0.7,-0.4 0.8,-0.8c0.1,-0.2 0,-0.4 -0.1,-0.6c0,-0.1 -0.1,-0.1 -0.1,-0.1c-0.7,-0.4 -1.5,0.2 -1.9,0.8v0v0c-0.5,-0.1 -1.1,-0.1 -1.7,-0.1c0.3,-0.4 0.6,-0.9 0.5,-1.5c-0.1,-0.6 -0.6,-1.3 -1.3,-1.2c-0.1,0 -0.2,0 -0.3,0c-0.6,0.1 -1.1,0.8 -1.1,1.4c-0.1,0.6 0.1,1.1 0.5,1.5v0c-1.1,-0.2 -2.2,0 -3.3,0.2c-0.3,0 -0.6,0 -0.9,0.1c-1,0.1 -1.9,0.3 -2.8,0.6c-1.6,0.4 -3.1,1.2 -4.6,2c-1.4,0.8 -2.9,1.6 -3.8,2.9c-0.8,-1.3 -1.5,-2.6 -1.6,-4c0,-0.7 0.3,-1.4 0.9,-1.9c1.1,-1 2.5,-1.4 3.9,-1.8c0.6,-0.2 1.3,-0.1 1.9,-0.5c0.5,-0.3 0.7,-0.9 0.8,-1.4c0.1,-1.2 0.3,-2.4 0.7,-3.5c0.2,-1 1.2,-1.6 1.2,-2.6c-0.1,-0.5 -0.4,-1 -0.8,-1.4c-0.9,-0.7 -1.8,-1.5 -2.3,-2.6z" fill="#fddf7d"/><path d="M272.5,198.1c1.6,1.2 3.3,2.7 3.9,4.8c0.8,2.7 0.2,5.6 -1.2,7.9c-1.2,2 -3,3.5 -5,4.6c-2.4,1.4 -5.2,2.3 -8,2.6c-2.1,0.2 -4.3,0.4 -6.4,0.5c0.1,0.8 0.2,1.7 0.3,2.5c0.1,0.8 -0.2,1.6 -0.9,2c0.3,0.3 0.6,0.7 0.6,1.2c0.1,0.8 -0.6,1.5 -1.4,1.6c-0.7,0.1 -6.5,-0.3 -8.7,-0.2c-3.2,0.2 -6.5,0.2 -9.7,0.1c-2.3,-0.1 -9.2,-0.1 -10.4,0.1c-2,0.1 -3.9,0.3 -5.8,0.4c-0.9,0 -2,0 -2.8,-0.6c-0.8,-0.6 -1.2,-1.6 -1.1,-2.5c0,-1.7 1.1,-3.2 1.8,-4.7c0.2,-0.5 0.7,-0.9 0.5,-1.5c-0.6,-2.5 -1.1,-5 -1.5,-7.5c0,-0.2 0,-0.4 -0.2,-0.6c-0.7,-0.7 -1.5,-1.2 -2.2,-1.9c-1,-1.1 -1.6,-2.2 -1.8,-2.7c-0.3,-1 -0.2,-1.9 -0.2,-2.6c0.1,-0.9 0.2,-1.7 0.5,-2.5c0.8,-2.4 2,-4.5 4.6,-8.4c0.6,-0.9 1.4,-1.7 1.6,-2.7c0.4,-1.6 1,-3.1 1.8,-4.7c-1.6,-0.3 -7.7,-2.4 -9.1,-3.2c-4,-2 -7.2,-5.4 -8.6,-9.6c-0.4,-1.1 -0.4,-2.4 -0.3,-3.6c0.4,-2.2 2.3,-3.7 4.3,-4.5c1,-0.5 2.2,-0.7 3.2,-1.1c0.3,-1.5 0.5,-3 1.3,-4.4c-1,-0.9 -1.9,-1.9 -2.5,-3.2c-0.4,-0.8 -0.2,-1.7 -0.2,-2.6c0.2,-0.7 0.8,-1.1 1.5,-1.3c1.1,-0.3 2.2,-0.3 3.3,-0.4c0.4,-0.5 0.7,-1.1 1.1,-1.6c2.7,-3.4 5.6,-6.5 9,-9.1c2,-1.6 4.2,-2.9 6.6,-3.9c2,-0.7 4.3,-1.2 6.3,-0.4c1.7,0.6 2.9,2.2 3.5,3.9c0.9,2.5 1.1,5.2 1.2,7.9c2.2,-0.6 4.4,-1.2 6.6,-1.6c3.6,-0.7 7.2,-1.3 10.9,-1.2c2.3,0 4.7,0.3 6.7,1.4c1.5,0.9 2.5,2.4 2.8,4.1c0.5,2.8 -0.3,5.7 -1.3,8.3c-1,2.5 -2.3,5 -3.6,7.4c-1.3,2.3 -2.7,4.5 -4.5,6.4c-1,1.1 -2.1,2 -3.1,3.1c0.7,0.6 1.5,1.5 1.5,2.6c-0.1,1.6 -1.3,2.7 -2.5,3.5c-2,1.2 -4.4,1.4 -6.6,1.3c1,2 2.3,3.9 3.3,6c0.8,1.4 1.5,2.9 2.2,4.3c2,-2 4.5,-3.4 7,-4.5c2.2,-1 4.5,-1.6 6.9,-1.5c2.2,-0.1 4.4,0.3 6.5,1.2c1.2,0.5 2.5,1.2 3.1,2.5c0.3,0.6 0.2,1.3 0.2,1.9c0,1 -0.6,2 -1.2,2.9c-1,1.4 -2.4,2.5 -3.8,3.8zM216.9,197.5v0c-0.1,0.2 -0.3,0.6 -0.5,1c-0.6,1.2 -0.7,1.5 -0.7,1.6c-0.2,0.5 -0.2,1.1 -0.2,1.7c0,0.9 0.4,1.7 0.9,2.3c0.1,-0.3 0.1,-0.6 0.1,-1c0,-1 0.1,-2.1 0.1,-2.1c0,0 0,-1 0.1,-1.7c0,-0.5 0.1,-1.1 0.2,-1.8zM227.1,140.2v0c0.9,0.4 1.8,0.9 2.7,1.5c2.7,1.8 5.2,3.8 7.9,5.6v0h0.1l0.4,-0.2v0c0,-2.5 -0.2,-5.1 -1,-7.5c-0.3,-0.9 -0.8,-1.8 -1.7,-2.2c-0.8,-0.3 -1.6,-0.3 -2.4,-0.1c-0.3,0.1 -0.5,0.1 -0.8,0.2c-0.2,0 -0.5,0.1 -0.7,0.2c-1.6,0.6 -3.1,1.5 -4.5,2.5zM217.7,149v0c0.8,-0.1 1.6,0 2.2,-0.5c0.3,-0.8 0.2,-1.6 0.4,-2.4v0c-0.9,1 -1.8,2 -2.6,2.9zM253.4,200.7c-0.1,-0.8 -0.4,-1.6 -0.7,-2.4c-1.8,-5.5 -4.6,-10.6 -7.5,-15.5c-0.4,-0.6 -0.8,-1.2 -1.1,-1.8c0,-0.1 -0.1,-0.2 -0.1,-0.3v0c-0.1,-0.1 -0.1,-0.1 -0.1,-0.2c-0.2,-0.5 -0.1,-1.1 0.1,-1.7c0.1,-0.2 0.3,-0.4 0.5,-0.5c0.4,-0.2 0.7,-0.3 1.1,-0.3c1.1,0.1 2.2,0.2 3.3,0.2c1.4,-0.1 3,-0.2 4.2,-1c0.3,-0.2 0.6,-0.4 0.8,-0.7c-0.9,-0.8 -2.2,-1.7 -2,-3c0,-0.5 0.2,-0.9 0.5,-1.2c0.3,-0.4 0.8,-0.7 1.3,-1c0.1,0 0.1,0 0.1,0v0c2.6,-1.9 4.6,-4.4 6.2,-7.2c0.4,-0.8 1,-1.5 1.2,-2.3v0c0.3,-0.5 0.6,-0.9 0.8,-1.4c1.4,-2.8 2.7,-5.6 3.2,-8.6c0.1,-1.1 0.2,-2.3 -0.3,-3.3c-0.3,-0.4 -0.6,-0.7 -1,-1c-0.5,-0.3 -1.1,-0.5 -1.7,-0.7c-2.2,-0.5 -4.4,-0.4 -6.6,-0.2c-2.3,0.1 -4.5,0.6 -6.8,1c-2.4,0.4 -4.7,1.1 -7,1.7c-0.1,0 -0.2,0.1 -0.3,0.1c-0.9,0.3 -2.4,0.9 -3.3,1.1c-0.2,0.1 -0.4,0.1 -0.5,0.1c-0.7,0 -1.3,-0.2 -1.8,-0.6c-1.3,-1 -2.5,-1.9 -3.8,-2.8c-2.1,-1.5 -4.1,-3.1 -6.4,-4.2c-0.4,-0.2 -1.1,-0.6 -1.4,0v0c-1.1,1.8 -1,4 -1.4,6c-0.2,1.1 -0.9,2.1 -2,2.5c-1.3,0.5 -2.6,0.6 -3.9,0.7c-0.6,0 -1.1,0 -1.7,0.1c-1.1,0.1 -2.3,0.1 -3.4,0.2v0c0.5,1 1.4,1.8 2.3,2.5c0.5,0.3 0.7,0.8 0.8,1.4c0,1.1 -0.9,1.7 -1.2,2.6c-0.4,1.2 -0.6,2.3 -0.7,3.5c0,0.5 -0.3,1.1 -0.8,1.4c-0.6,0.3 -1.3,0.3 -1.9,0.5c-1.4,0.4 -2.8,0.9 -3.9,1.8c-0.6,0.4 -0.9,1.1 -0.9,1.9c0.2,1.5 0.9,2.8 1.6,4c1.1,1.6 2.4,3 4,4.1c1,0.7 2,1.3 3,1.8c1.4,0.7 2.8,1.1 4.3,1.6c1.5,0.5 3.1,0.6 4.6,1.3c0.1,0 0.1,0.1 0.2,0.1c0.6,0.4 0.8,1.3 0.6,2v0.1c-0.2,0.7 -0.5,1.3 -0.7,2c-0.4,1.1 -0.8,2.2 -1.1,3.3c-0.7,2.5 -1.3,5 -1.8,7.5v0c-0.7,3.6 -1,7.4 -0.7,11.1v0c0.2,2.3 0.7,4.6 1.2,6.9c0.2,1.1 0.5,2.3 0.8,3.4c0,0.1 0,0.1 0,0.2c0,0.1 0,0.1 0,0.2c0,0.1 0,0.1 0,0.2c0,0.1 0,0.1 0,0.2c-0.1,0.2 -0.1,0.3 -0.1,0.4c0,0.2 -0.1,0.3 -0.1,0.4c-0.4,0.4 -1,0.7 -1.2,1.3c-0.4,0.9 -1,1.8 -1.3,2.8v0c1.1,0 2.3,-0.1 3.5,-0.2c-0.1,-0.4 -0.2,-0.8 -0.2,-1.2c0,-0.1 0,-0.3 0,-0.4c0,-0.1 0,-0.1 0,-0.2c0,-0.5 0.1,-1.2 0.7,-1.6v0c0.2,-0.2 0.5,-0.3 0.8,-0.3c0.1,0 0.2,0 0.3,0v0c0.1,0.1 0.3,0.2 0.4,0.3c0.1,0.1 0.2,0.1 0.2,0.2c0,0.2 0.1,0.3 0.1,0.5v0.1v0c0,0.1 -0.1,0.2 -0.1,0.4c0,0.3 -0.1,0.4 -0.1,0.6c0,0 0,0.1 0,0.2c0,0.1 0,0.3 0,0.4c0,0.2 0,0.5 0.1,0.7v0c0.9,0.1 1.8,-0.1 2.7,-0.2v0c2,-0.1 4,0 6,0c0,-0.3 0.1,-0.5 0.1,-0.8c0.1,-0.6 0.1,-1.2 0.1,-1.8v0c-0.1,-1.2 -0.2,-2.3 -0.3,-3.5c0,-0.5 0,-1 -0.1,-1.4c0,-0.1 -0.1,-0.2 -0.1,-0.3h-0.1c-0.9,-0.1 -1.7,-0.4 -2.5,-0.7c-0.3,-0.1 -0.6,-0.2 -0.9,-0.4c-0.1,-0.1 -0.2,-0.1 -0.3,-0.2c0,-0.1 -0.1,-0.1 -0.2,-0.2c-0.6,-0.5 -0.7,-0.9 -0.7,-1.1c-0.1,-0.4 0.1,-0.8 0.3,-1.1v0l0.1,-0.1h0.1c0.1,0 0.2,-0.1 0.3,-0.1c0.2,0 0.4,0 0.8,0.1c0.1,0 0.3,0.1 0.5,0.2v0c0.5,0.3 0.7,0.4 1,0.6c0.2,0.1 0.4,0.2 0.6,0.3c0.4,0.1 0.5,0.1 1,0.2h0.1c0.7,0.1 1.6,0.4 2.2,1c0.6,0.6 0.3,1.5 0.4,2.2c0.3,2.4 0.6,4.8 0.2,7.2h0.1c0.2,0 0.4,0 0.6,0c0.8,0.1 1.5,0 2.3,0v0c0,-1.1 0.4,-2.2 0.6,-3.3c0.1,-0.3 0.2,-0.6 0.4,-0.8c0.2,-0.1 0.3,-0.2 0.5,-0.3c0.8,-0.3 1.6,0.5 1.4,1.3c-0.3,0.8 -0.3,1.6 -0.5,2.4c0,0.1 0,0.3 0,0.4c0,0.1 0.1,0.2 0.1,0.3c1,0 2,0 3,-0.1c0.1,-0.1 0.1,-0.1 0.1,-0.1c0.2,-0.1 0.1,-0.4 0.1,-0.6c0,-0.7 -0.1,-1.4 0.1,-2v0c0.1,-0.2 0.2,-0.3 0.4,-0.4c0.2,-0.1 0.4,-0.1 0.6,-0.1c0.2,0 0.3,0.1 0.4,0.1c0.1,0.1 0.2,0.1 0.2,0.1l0.2,0.1c0.5,0.9 0.1,1.9 0.3,2.8c0.5,0 1,0 1.5,0v0v0c1.6,0 3.2,-0.1 4.8,0v0c-0.1,-1.4 -0.3,-2.9 -0.4,-4.3c0,-0.5 -0.2,-0.9 -0.3,-1.4c-0.1,-2.4 -0.7,-4.8 -0.9,-7.3c0,0 -0.1,0.1 -0.2,0.1c-0.6,0.3 -1.2,0.5 -1.9,0.6c-0.1,0.1 -0.2,0.1 -0.3,0.1c-0.1,0.1 -0.2,0.1 -0.3,0.1c-0.7,0.1 -1.5,0.2 -2.4,0c-0.6,-0.2 -1.1,-0.4 -1.6,-0.7c-0.7,-0.5 -1.2,-1.1 -1.5,-1.6c-1.1,-2.1 -1.8,-4.5 -2.5,-6.8c-0.3,-1 -0.6,-1.9 -0.6,-2.9c0,-0.1 0,-0.3 0,-0.4c0.2,-1.1 1.7,-1.7 2.6,-0.9c0.4,0.2 0.5,0.6 0.6,1c0.1,0.2 0.1,0.5 0.1,0.7c0,0.2 0,0.5 0.1,0.8c0.4,1.2 0.7,2.3 1.1,3.4v0v0c0.5,1.4 0.9,2.9 1.8,4.1v0c0,-1 -0.1,-2 0,-3c0,-0.2 0,-0.3 0.1,-0.4c0.1,-0.2 0.4,-0.4 0.6,-0.5c0.1,0 0.2,0 0.3,0c0.2,0 0.4,0.1 0.5,0.3c0.3,0.5 -0.1,1.1 -0.1,2.2c0,0.5 0.1,1 0.2,1.4c0.1,0 0.1,0 0.2,0c0.1,0 0.1,0 0.2,0c0.9,-0.1 1.6,-0.6 2.1,-1.3v0c0,-0.5 -0.1,-0.9 -0.3,-1.4v-0.1c-0.2,-0.3 -0.4,-0.8 -0.3,-1.2c0,-0.1 0,-0.1 0,-0.1c0,-0.1 0,-0.2 0.1,-0.3c0,-0.1 0,-0.1 0,-0.1c0.1,-0.2 0.2,-0.3 0.3,-0.4c0.1,-0.1 0.2,-0.1 0.3,-0.1c0.1,0 0.2,0 0.3,0.1c0.5,0.5 0.5,1.2 0.7,1.9v0c0.5,-0.8 1.1,-1.6 1.6,-2.4c0.2,-0.2 0.3,-0.5 0.1,-0.7zM274.3,191.1c0,-0.1 0,-0.1 0,-0.2c0,-0.1 -0.1,-0.2 -0.2,-0.3l-0.1,-0.1c-0.1,-0.1 -0.2,-0.1 -0.3,-0.2c-0.1,0 -0.1,0 -0.1,0c-1.9,-1 -4,-1.3 -6.1,-1.4l-0.1,0.1v0v0v0c-2.3,0 -4.5,0.7 -6.5,1.7c-0.1,0.1 -0.3,0.1 -0.4,0.2c-2.1,1.1 -4.2,2.3 -5.6,4.2c0.5,1.5 1.1,3.1 1.5,4.7c0.2,1.1 0.3,2.3 -0.3,3.2c-0.7,1.2 -1.5,2.3 -2.2,3.5c0.2,0.2 0.3,0.4 0.4,0.7c0.4,2.7 0.7,5.5 1.2,8.2c1.1,-0.1 2.1,-0.3 3.2,-0.3c2,-0.3 4.1,-0.4 6.1,-0.9c0.4,-0.2 0.9,-0.3 1.3,-0.5v0c2,-0.8 4,-1.9 5.5,-3.5c0.3,-0.3 0.6,-0.6 0.8,-1c1,-1.6 1.6,-3.7 1,-5.6c-0.5,-1.5 -1.9,-2.5 -3.1,-3.5v0c-0.3,-0.2 -0.6,-0.5 -0.8,-0.7c-0.4,-0.4 -0.8,-0.9 -0.8,-1.5c-0.1,-0.8 0.3,-1.5 0.9,-1.9c1.6,-1.1 3.2,-2.2 4.3,-3.9c0,0.1 0,0 0,0c0.2,-0.3 0.4,-0.7 0.4,-1z" fill="#001773"/><path d="M236,222.3z" fill="#001773"/><path d="M249.6,169.7v0c-0.1,0 -0.3,-0.1 -0.4,-0.1c-0.2,-0.1 -0.3,-0.1 -0.4,-0.2v0v0c-0.2,-0.2 -0.4,-0.4 -0.5,-0.6c-0.2,-0.3 -0.2,-0.5 -0.2,-0.8c0,-0.2 0.1,-0.4 0.2,-0.5c0.1,-0.2 0.3,-0.3 0.5,-0.3c0.3,-0.1 0.6,0 1,0.1c0.3,0 0.7,0.1 1,0.1v0c0.7,-0.1 1.5,-0.4 2.1,-0.9c1.9,-1.4 3.4,-3.4 4.6,-5.4c1.1,-1.7 2,-3.6 2.6,-5.6c0.1,-0.5 0.2,-1 0.2,-1.5v0c-0.1,0 -0.2,0 -0.3,0c-0.5,0 -1,0 -1.5,0.1c-0.6,0.1 -1.2,0.2 -1.8,0.4c-2.5,0.7 -5,1.5 -7.2,2.8c-0.4,0.2 -0.7,0.4 -1,0.6c0.1,1.3 0.2,2.6 0.1,3.9c0,0.1 0,0.1 0,0.2c-0.1,0.3 -0.3,0.6 -0.5,0.8l-0.1,0.1v0c0.8,-0.1 1.7,-0.5 2.4,0v0c0.3,0.2 0.4,0.5 0.3,0.8c0,0.1 -0.1,0.2 -0.2,0.3c-0.1,0.1 -0.2,0.2 -0.3,0.2c-0.4,0.2 -0.7,0.1 -1.4,0.2v0h-0.1c-0.3,0.1 -0.7,0.1 -1,0.1c-0.2,0.1 -0.5,0.1 -0.7,-0.1c-0.1,-0.1 -0.2,-0.2 -0.2,-0.3c0,-0.1 0,-0.2 0,-0.3c0,-0.1 0.1,-0.3 0.1,-0.4c0.1,-0.2 0.2,-0.3 0.1,-0.4c-0.1,0 -0.2,0 -0.3,0c-0.2,0 -0.3,-0.3 -0.3,-0.4c-0.2,-0.5 0,-1.1 0.1,-1.6c0.1,-0.5 0.1,-1.1 0,-1.6c0,-0.7 -0.4,-1.6 -0.1,-2.3v0c0.2,-0.3 0.5,-0.5 0.7,-0.7c2.3,-1.8 5.1,-2.7 7.9,-3.6c0.1,-0.1 0.3,-0.1 0.5,-0.2c1.3,-0.4 2.6,-0.7 4,-0.8c0.9,-0.1 1.9,0.1 2.5,0.8c0.7,0.8 0.6,1.9 0.4,2.9c-0.6,2.2 -1.6,4.3 -2.7,6.3v0c-1.3,2.1 -2.7,4.1 -4.5,5.7c-1,0.8 -1.9,1.6 -3.2,1.9v0c-0.5,0.1 -0.9,0.2 -1.4,0.2c-0.3,0 -0.7,0 -1,0.1z" fill="#001773"/><path d="M249.3,166.2c-0.6,-0.1 -1.2,0 -1.8,-0.3v0c-0.2,-0.1 -0.3,-0.3 -0.2,-0.5c0,-0.1 0,-0.2 0.1,-0.3c0.2,-0.4 0.9,-0.6 1.6,-0.5v0v0c0.2,0 0.5,0.1 0.7,0.2c0.2,0 0.3,0.1 0.4,0.2c0.2,0.2 0.3,0.5 0.2,0.7c0,0.1 -0.1,0.2 -0.2,0.3v0c-0.2,0.2 -0.5,0.2 -0.8,0.2z" fill="#001773"/><path d="M231.56643,168.5133v0c-0.4,0.6 -1.2,1.2 -1.9,0.8l-0.1,-0.1c-0.1,-0.2 -0.2,-0.4 -0.1,-0.6c0.1,-0.4 0.6,-0.6 0.8,-0.8c0.1,0 0.1,-0.1 0.1,-0.1c0,0 0,-0.1 0,-0.2c0,-0.1 0,-0.1 0,-0.2v0c-0.6,0.2 -1.1,0.7 -1.7,0.6c0,0 -0.1,-0.1 -0.2,-0.1c-0.3,-0.2 -0.2,-0.8 -0.4,-0.9c-0.2,-0.1 -0.5,0.3 -0.7,0.5c-0.4,0.5 -0.4,0.8 -0.8,0.9c-0.2,0.1 -0.3,0.1 -0.5,0c-0.1,-0.1 -0.2,-0.1 -0.2,-0.2c-0.1,-0.1 -0.2,-0.1 -0.2,-0.2c-0.2,-0.3 0,-0.7 0.2,-1.1c0.1,-0.1 0.1,-0.2 0.2,-0.3c0.2,-0.2 0.3,-0.4 0.5,-0.6c0.5,-0.3 1.1,-0.6 1.7,-0.5c0.5,0 0.9,0.3 1.2,0.6c0.7,-0.2 1.6,-0.4 2.2,0.2c0.6,0.6 0.4,1.6 -0.1,2.3z" data-paper-data="{&quot;index&quot;:null}" fill="#001773"/><path d="M237.4,167.2v0c-0.2,0.6 -0.6,1.1 -1.2,1.2c-0.1,0 -0.2,0 -0.3,0c-0.3,0 -0.7,-0.3 -0.9,-0.6v0c-0.4,-0.9 0.3,-1.8 1,-2.3c0.3,-0.2 0.8,-0.2 1.1,0c0.2,0.1 0.3,0.3 0.4,0.5c0.2,0.4 0.1,0.9 -0.1,1.2z" fill="#001773"/></g></g></g></svg>