<svg version="1.1" xmlns="http://www.w3.org/2000/svg" xmlns:xlink="http://www.w3.org/1999/xlink" width="84.85669" height="99.74257" viewBox="0,0,84.85669,99.74257"><g transform="translate(-199.05,-128.76735)"><g data-paper-data="{&quot;isPaintingLayer&quot;:true}" fill-rule="nonzero" stroke="none" stroke-width="1" stroke-linecap="butt" stroke-linejoin="miter" stroke-miterlimit="10" stroke-dasharray="" stroke-dashoffset="0" style="mix-blend-mode: normal"><g><path d="M233.90556,169.60992v0c0,-0.4 0.1,-0.9 0,-1.3c-0.2,-0.2 -0.3,-0.4 -0.5,-0.5c0.2,0.1 0.4,0.3 0.5,0.5c0.1,0.4 0,0.9 0,1.3z" fill="none"/><path d="M245.10556,166.80992v0c-0.1,0 -0.1,0 -0.1,0h0.1l0.2,0.1v0z" fill="none"/><path d="M246.40556,168.30992v0c-0.2,0.2 -0.5,0.2 -0.8,0.2c-0.6,-0.1 -1.3,0 -1.8,-0.3v0c0.6,0.3 1.2,0.2 1.8,0.3c0.3,0 0.6,0 0.8,-0.2z" fill="none"/><path d="M254.90556,156.40992c-0.6,0.1 -1.2,0.3 -1.8,0.4c-2.5,0.7 -5,1.5 -7.2,2.8c2.2,-1.3 4.7,-2.1 7.2,-2.8c0.5,-0.1 1.1,-0.3 1.8,-0.4z" fill="none"/><path d="M243.40556,158.70992c2.3,-1.8 5.1,-2.8 7.9,-3.6c0.2,-0.1 0.4,-0.1 0.5,-0.2c-0.2,0.1 -0.4,0.1 -0.5,0.2v0c-2.8,0.8 -5.6,1.8 -7.9,3.6c-0.2,0.2 -0.5,0.4 -0.7,0.7c-1.5,-1.6 -2.5,-3.5 -3.5,-5.4v0c1.1,1.9 2,3.8 3.5,5.4c0.2,-0.3 0.5,-0.5 0.7,-0.7z" fill="none"/><path d="M245.10556,171.60992" fill="none"/><path d="M256.70556,156.30992c-0.1,0 -0.2,0 -0.3,0c0.1,0 0.2,0 0.3,0z" fill="none"/><path d="M244.50556,165.20992c0.2,-0.2 0.4,-0.5 0.5,-0.8c-0.1,0.3 -0.3,0.6 -0.5,0.8z" fill="none"/><path d="M246.70556,165.30992v0c-0.7,-0.5 -1.6,-0.1 -2.4,0v0c0.8,-0.1 1.8,-0.5 2.4,0z" fill="none"/><path d="M220.20556,221.30992c-0.3,0.1 -0.5,0.1 -0.8,0.3c0.3,-0.3 0.6,-0.3 0.8,-0.3z" fill="none"/><path d="M216.70556,222.30992c-0.4,0.9 -1,1.8 -1.3,2.8v0c0.2,-1 0.9,-1.9 1.3,-2.8c0.3,-0.6 0.8,-0.9 1.2,-1.3c0,-0.1 0,-0.2 0.1,-0.4c0,0.2 -0.1,0.3 -0.1,0.4c0.9,-0.3 2.1,-0.3 3,0.1c-0.9,-0.4 -2,-0.4 -3,-0.1c-0.4,0.5 -1,0.8 -1.2,1.3z" fill="none"/><path d="M249.20556,173.10992c0.3,0.2 0.7,0.3 1,0.5v0c-0.1,0 -0.1,0 -0.1,0c0.1,0 0.1,0 0.1,0c-0.4,-0.1 -0.7,-0.3 -1,-0.5v0l-0.1,-0.2c-0.3,-0.4 -0.5,-0.8 -0.7,-1.1c-0.5,0.1 -0.9,0.2 -1.4,0.2c0.5,0 0.9,-0.1 1.4,-0.2v0c0.2,0.3 0.4,0.7 0.7,1.1z" fill="none"/><path d="M220.90556,221.60992c-0.1,-0.2 -0.2,-0.2 -0.4,-0.3h0.1c0.2,0.1 0.3,0.2 0.3,0.3z" fill="none"/><path d="M218.50556,190.70992c-0.7,2.4 -1.3,5 -1.8,7.5v0v0c0.5,-2.5 1,-5 1.8,-7.5z" fill="none"/><path d="M219.40556,183.30992c0.1,0 0.1,0.1 0.2,0.1c-0.1,0 -0.1,-0.1 -0.2,-0.1c-1.4,-0.7 -3.1,-0.8 -4.6,-1.3c-1.5,-0.5 -2.9,-1 -4.3,-1.6c-1,-0.6 -2,-1.2 -3,-1.8c-1.6,-1.1 -3,-2.5 -4,-4.1c-0.8,-1.3 -1.5,-2.6 -1.6,-4c0,-0.7 0.3,-1.4 0.9,-1.9c1.1,-1 2.5,-1.4 3.9,-1.8c0.6,-0.2 1.3,-0.1 1.9,-0.5c0.5,-0.3 0.7,-0.9 0.8,-1.4c0.1,-1.2 0.3,-2.4 0.7,-3.5c0.2,-1 1.2,-1.6 1.2,-2.6c-0.1,-0.5 -0.4,-1 -0.8,-1.4c-0.8,-0.7 -1.7,-1.5 -2.3,-2.5v0c0.5,1 1.4,1.8 2.3,2.5c0.5,0.3 0.7,0.8 0.8,1.4c0,1.1 -0.9,1.7 -1.2,2.6c-0.4,1.2 -0.6,2.3 -0.7,3.5c0,0.5 -0.3,1.1 -0.8,1.4c-0.6,0.3 -1.3,0.3 -1.9,0.5c-1.4,0.4 -2.8,0.9 -3.9,1.8c-0.6,0.4 -0.9,1.1 -0.9,1.9c0.2,1.5 0.9,2.8 1.6,4c0.9,-1.3 2.4,-2.1 3.8,-2.9c1.5,-0.8 3,-1.5 4.6,-2c0.9,-0.2 1.9,-0.4 2.8,-0.6c-1,0.1 -1.9,0.3 -2.8,0.6c-1.6,0.4 -3.1,1.2 -4.6,2c-1.4,0.8 -2.9,1.6 -3.8,2.9c1.1,1.6 2.4,3 4,4.1c1,0.6 2,1.3 3,1.8c1.4,0.7 2.8,1.1 4.3,1.6c1.6,0.4 3.2,0.5 4.6,1.3z" fill="none"/><path d="M222.20556,145.40992c2.3,1.1 4.3,2.7 6.4,4.2c1.3,0.9 2.5,1.8 3.8,2.8c0.5,0.4 1.1,0.6 1.8,0.6c0.2,0 0.3,0 0.5,-0.1c-0.2,0.1 -0.4,0.1 -0.5,0.1c-0.6,0 -1.2,-0.3 -1.8,-0.6c-1.3,-0.9 -2.6,-1.8 -3.8,-2.8c-2.2,-1.5 -4.2,-3.1 -6.4,-4.2c-0.4,-0.2 -1.1,-0.6 -1.4,0c0.3,-0.6 0.9,-0.2 1.4,0z" fill="none"/><path d="M221.20556,222.40992v0z" fill="none"/><path d="M219.30556,151.40992c0.4,-2 0.3,-4.2 1.4,-6v0c-1.1,1.8 -1,4 -1.4,6c-0.2,1.1 -1,2.1 -2.1,2.5c-1.2,0.5 -2.6,0.6 -3.9,0.7c1.3,-0.1 2.6,-0.2 3.9,-0.7c1.1,-0.4 1.9,-1.4 2.1,-2.5z" fill="none"/><path d="M238.30556,151.70992c-0.1,0 -0.3,0 -0.3,0.1c0.1,-0.1 0.2,-0.1 0.3,-0.1c2.3,-0.7 4.6,-1.3 7,-1.7c2.3,-0.4 4.5,-0.9 6.8,-1c2.2,-0.2 4.5,-0.3 6.6,0.2c0.6,0.2 1.2,0.4 1.7,0.7c-0.5,-0.3 -1.1,-0.5 -1.7,-0.7c-2.2,-0.5 -4.4,-0.4 -6.6,-0.2c-2.3,0.1 -4.5,0.6 -6.8,1c-2.4,0.4 -4.7,1.1 -7,1.7z" fill="none"/><path d="M229.40556,139.60992c0.8,-0.1 1.6,-0.2 2.4,0.1c0.9,0.3 1.4,1.3 1.7,2.2c0.9,2.4 1,5 1,7.5v0c0,-2.5 -0.2,-5.1 -1,-7.5c-0.3,-0.9 -0.8,-1.8 -1.7,-2.2c-0.8,-0.3 -1.6,-0.3 -2.4,-0.1z" fill="none"/><path d="M234.10556,149.60992" fill="none"/><path d="M227.90556,140.00992c-1.6,0.6 -3.1,1.5 -4.5,2.4v0c1.4,-0.9 2.9,-1.8 4.5,-2.4z" fill="none"/><path d="M216.60556,148.40992v0c-0.8,1 -1.7,1.9 -2.5,2.9v0c0.7,-0.9 1.6,-1.9 2.5,-2.9z" fill="none"/><path d="M212.80556,205.40992c0,0.3 -0.1,0.7 -0.1,1c0,-0.2 0,-0.6 0.1,-1z" fill="none"/><path d="M239.60556,200.00992c0.1,0.2 0.1,0.5 0.1,0.7c0,-0.2 0,-0.5 -0.1,-0.7z" fill="none"/><path d="M213.20556,199.80992" fill="none"/><path d="M232.20556,170.70992c-0.3,0 -0.7,-0.3 -0.9,-0.6v0c0.3,0.3 0.6,0.6 0.9,0.6z" fill="none"/><path d="M223.70556,169.30992l0.1,-0.1c0,0 0,0 0,0.1c0,0.1 -0.1,0.3 -0.1,0.4v0c0,0 0,-0.1 0,-0.2c0,-0.1 0,-0.2 0,-0.2z" fill="none"/><path d="M218.40556,167.10992c0,-0.6 0.5,-1.3 1.1,-1.4c-0.7,0.1 -1.1,0.8 -1.1,1.4c0,0.5 0.2,1.1 0.5,1.5v0c0.1,0.1 0.3,0.1 0.4,0.2c-0.1,0 -0.3,-0.1 -0.4,-0.2c-0.4,-0.4 -0.5,-0.9 -0.5,-1.5z" fill="none"/><path d="M248.20556,175.80992c0,-0.5 0.2,-0.9 0.5,-1.2c-0.3,0.3 -0.5,0.7 -0.5,1.2c-0.1,1.4 1.1,2.2 2,3c-0.2,0.3 -0.5,0.5 -0.8,0.7c0.3,-0.2 0.6,-0.4 0.8,-0.7c-0.9,-0.7 -2.1,-1.6 -2,-3z" fill="none"/><path d="M245.60556,212.20992c-0.2,0.1 -0.4,0.1 -0.6,0.1c0.1,-0.1 0.2,-0.1 0.3,-0.1c0.1,0 0.2,-0.1 0.3,0z" fill="none"/><path d="M227.50556,171.10992c-0.5,0.3 -1,0.6 -1.7,0.5c-0.5,0 -0.8,-0.3 -1.2,-0.6c-0.7,0.2 -1.6,0.4 -2.2,-0.2c-0.6,-0.6 -0.5,-1.6 -0.1,-2.3v0c-0.3,0.7 -0.5,1.7 0.1,2.3c0.6,0.6 1.5,0.4 2.2,0.2c0.3,0.3 0.7,0.6 1.2,0.6c0.7,0.1 1.2,-0.2 1.7,-0.5c0,0 0.1,0 0,0c0.2,-0.2 0.4,-0.4 0.5,-0.6c-0.1,0.2 -0.3,0.4 -0.5,0.6z" fill="none"/><path d="M216.00556,209.30992c0.3,2.3 0.7,4.6 1.2,6.9c-0.6,-2.3 -1,-4.6 -1.2,-6.9z" fill="none"/><path d="M242.00556,221.30992c0.2,0 0.3,0.1 0.4,0.1c-0.1,0 -0.2,-0.1 -0.4,-0.1z" fill="none"/><path d="M218.70556,223.70992c0,-0.1 0,-0.3 0,-0.4c0,0.2 0,0.3 0,0.4z" fill="none"/><path d="M270.60556,193.30992c0,0.4 -0.2,0.8 -0.4,1.1c0.2,-0.3 0.4,-0.7 0.4,-1.1z" fill="none"/><path d="M241.20556,220.20992c-0.8,-0.3 -1.6,-0.6 -2.5,-0.7c1.1,0.1 2,0.4 2.5,0.7z" fill="none"/><path d="M246.20556,205.00992v0c0,-0.2 0.1,-0.3 0.1,-0.4c0,0 0,0 0,-0.1c0,0.2 0,0.3 -0.1,0.5z" fill="none"/><path d="M236.90556,219.70992c-0.4,0.2 -0.9,0.4 -1.3,0.7c0.4,-0.3 0.9,-0.6 1.3,-0.7z" fill="none"/><path d="M246.80556,207.80992v0c0,-0.5 -0.1,-1 -0.2,-1.5v-0.1c0.1,0.5 0.2,1.1 0.2,1.6z" fill="none"/><path d="M249.80556,202.90992c0.1,0.2 0.1,0.6 -0.1,0.8c-0.6,0.8 -1.1,1.6 -1.6,2.4v0c0.6,-0.8 1.1,-1.6 1.6,-2.4c0.2,-0.2 0.2,-0.5 0.1,-0.8c-0.2,-0.1 -0.5,-0.3 -0.7,-0.4c0.2,0.1 0.5,0.2 0.7,0.4c-0.1,-0.8 -0.4,-1.6 -0.7,-2.4c-1.8,-5.5 -4.6,-10.5 -7.5,-15.6c-0.9,-0.1 -1.8,0 -2.7,0c-1.9,0 -3.8,-0.1 -5.7,0c0,0.2 0,0.4 0,0.6c0,-0.2 0,-0.4 0,-0.6c1.9,0 3.8,0 5.7,0c0.9,0 1.8,-0.1 2.7,0c-0.4,-0.6 -0.8,-1.2 -1.1,-1.8c0,0 -0.1,-0.1 -0.1,-0.2c0,0.1 0.1,0.2 0.1,0.3c0.4,0.6 0.8,1.2 1.1,1.8c3,5 5.8,10 7.5,15.5c0.2,0.8 0.5,1.6 0.7,2.4z" fill="none"/><path d="M231.50556,213.70992c0.6,-0.4 1.2,-0.9 1.6,-1.5c1.2,-2.6 1.5,-5.5 1.3,-8.3v0c0.2,2.8 -0.1,5.7 -1.3,8.3c-0.8,1.2 -2.2,2.2 -3.7,2c-0.5,-0.1 -1.1,-0.3 -1.6,-0.5c0.2,0.1 0.3,0.2 0.6,0.3c0.4,0.1 0.5,0.1 1,0.2h0.1c0.7,0 1.4,-0.1 2,-0.5z" fill="none"/><path d="M247.80556,211.40992c0,0 -0.1,0.1 -0.2,0.1c0,0 0.1,-0.1 0.2,-0.1c0.2,2.5 0.8,4.9 0.9,7.4c0.1,0.4 0.2,0.9 0.3,1.4c0.2,1.4 0.3,2.9 0.4,4.3v0c-0.1,-1.4 -0.3,-2.9 -0.4,-4.3c0,-0.5 -0.2,-0.9 -0.3,-1.4c-0.1,-2.5 -0.7,-4.9 -0.9,-7.4z" fill="none"/><path d="M237.10556,203.20992c-0.3,-0.9 -0.6,-1.9 -0.6,-2.9c0,1 0.3,2 0.6,2.9c0.7,2.3 1.4,4.6 2.5,6.8c0.2,0.5 0.7,1.1 1.5,1.6c-0.6,-0.4 -1.2,-1 -1.5,-1.6c-1.2,-2.1 -1.8,-4.5 -2.5,-6.8z" fill="none"/><path d="M233.00556,224.40992v0.1v0c0,-0.1 0,-0.1 0,-0.1z" fill="none"/><path d="M263.80556,191.10992c-2.3,0.1 -4.5,0.7 -6.5,1.7c2,-1 4.2,-1.7 6.5,-1.7z" fill="none"/><path d="M242.80556,206.10992c0,-0.2 0,-0.3 0.1,-0.4c0,0.1 -0.1,0.3 -0.1,0.4c-0.1,1 0,2 -0.1,3v0c0.1,-1 0,-2 0.1,-3z" fill="none"/><path d="M235.90556,221.30992c0,-0.3 0.2,-0.6 0.4,-0.8c-0.2,0.2 -0.4,0.5 -0.4,0.8c-0.2,1.1 -0.6,2.2 -0.6,3.3v0c0,-1.1 0.3,-2.1 0.6,-3.3z" fill="none"/><path d="M240.80556,223.90992c0,0.2 0.1,0.4 -0.1,0.6c0.2,-0.2 0.1,-0.4 0.1,-0.6c0,-0.7 -0.1,-1.4 0.1,-2v0v0c-0.2,0.6 -0.1,1.3 -0.1,2z" fill="none"/><path d="M244.50556,224.40992v0c0,-0.2 -0.1,-0.5 -0.1,-0.7c0.1,0.3 0.1,0.5 0.1,0.7z" fill="none"/><path d="M225.90556,215.60992c-0.1,-0.1 -0.2,-0.1 -0.3,-0.2c0.1,0.1 0.2,0.1 0.3,0.2c0.3,0.1 0.6,0.3 0.9,0.4c-0.3,-0.1 -0.6,-0.2 -0.9,-0.4z" fill="none"/><path d="M221.10556,224.70992v0c-0.1,-0.2 -0.1,-0.5 -0.1,-0.7c0,-0.1 0,-0.3 0,-0.4c0,0.4 0.1,0.8 0.1,1.1z" fill="none"/><path d="M224.90556,213.10992v0c-0.2,0.3 -0.3,0.7 -0.3,1.1c0.1,0.2 0.2,0.5 0.7,1.1c-0.3,-0.3 -0.6,-0.6 -0.7,-1.1c0,-0.4 0.1,-0.8 0.3,-1.1z" fill="none"/><path d="M229.90556,221.90992v0c0,0.6 0,1.2 -0.1,1.8c0,-0.7 0.1,-1.3 0.1,-1.8z" fill="none"/><path d="M229.40556,216.80992h-0.1h0.1c0.1,0.1 0.1,0.2 0.1,0.3c0,-0.1 -0.1,-0.2 -0.1,-0.3z" fill="none"/><path d="M226.80556,213.10992v0v0c-0.2,-0.1 -0.4,-0.1 -0.5,-0.2c0.2,0 0.3,0.1 0.5,0.2z" fill="none"/><path d="M254.90556,217.20992c2,-0.3 4.1,-0.4 6.1,-0.9c-2,0.6 -4.1,0.7 -6.1,0.9c-1,0.1 -2.1,0.3 -3.1,0.3c-0.5,-2.7 -0.8,-5.5 -1.2,-8.2c-0.1,-0.2 -0.2,-0.5 -0.4,-0.7c0.7,-1.2 1.4,-2.4 2.2,-3.5c0.7,-1 0.5,-2.2 0.3,-3.2c-0.4,-1.6 -1,-3.1 -1.5,-4.7c1.5,-1.9 3.5,-3.1 5.6,-4.2c-2.1,1.1 -4.2,2.3 -5.6,4.2c0.5,1.5 1.1,3.1 1.5,4.7c0.2,1.1 0.3,2.3 -0.3,3.2c-0.7,1.2 -1.5,2.3 -2.2,3.5c0.2,0.2 0.3,0.4 0.4,0.7c0.4,2.7 0.7,5.5 1.2,8.2c1.1,0 2.1,-0.2 3.1,-0.3z" fill="none"/><path d="M268.00556,212.40992c-1.5,1.7 -3.5,2.7 -5.5,3.5v0c1.9,-0.8 4,-1.8 5.5,-3.5z" fill="none"/><path d="M266.60556,202.40992v0c-0.3,-0.2 -0.5,-0.4 -0.8,-0.7c0.3,0.2 0.6,0.4 0.8,0.7z" fill="none"/><path d="M225.10556,213.00992h0.1h-0.1v0c-0.9,-1.1 -1.7,-2.2 -2.1,-3.5c-1,-2.8 -1.5,-5.7 -1.4,-8.6c-0.1,-3.6 0,-7.2 1.1,-10.6c0.4,-1.1 0.6,-2.3 1.1,-3.4c0,-0.2 0.2,-0.6 -0.1,-0.7c-0.5,-0.3 -1.1,-0.4 -1.6,-0.5c0.5,0.2 1.1,0.3 1.6,0.5c0.4,0.1 0.2,0.5 0.1,0.7c-0.5,1.1 -0.7,2.3 -1.1,3.4c-1.1,3.4 -1.1,7.1 -1.1,10.6c-0.1,2.9 0.4,5.8 1.4,8.6c0.4,1.3 1.2,2.4 2.1,3.5z" fill="none"/><path d="M260.70556,195.40992c-0.8,1.3 -1.5,2.8 -2,4.2v0v0c0.5,-1.4 1.2,-2.9 2,-4.2c0.9,-1.4 1.8,-2.9 2.9,-4.2l0.1,-0.1c2.1,0.1 4.2,0.4 6.1,1.4c0,0 0,0 0.1,0c0,0 0,0 -0.1,0c-1.9,-1 -4,-1.3 -6.1,-1.4v0.2v0c-1.2,1.2 -2.1,2.7 -3,4.1z" fill="none"/><path d="M220.60556,168.50992c-0.4,0.3 -0.9,0.4 -1.3,0.3c-0.1,-0.1 -0.3,-0.1 -0.4,-0.2c-0.3,-0.4 -0.5,-1 -0.5,-1.5c0,-0.6 0.5,-1.3 1.1,-1.4c0.1,0 0.2,0 0.3,0c0.7,-0.1 1.2,0.6 1.3,1.2c0.1,0.6 -0.2,1.1 -0.5,1.6z" fill="#001773"/><path d="M249.30556,168.70992c-0.6,0.5 -1.3,0.8 -2.1,0.9c-0.2,-0.5 -0.4,-0.9 -0.7,-1.4v0v0v0c0.1,-0.1 0.2,-0.2 0.2,-0.3c0.1,-0.3 0,-0.5 -0.2,-0.7c-0.1,0 -0.3,-0.1 -0.4,-0.2c-0.2,-0.1 -0.4,-0.2 -0.7,-0.2v0l-0.2,-0.1c0.8,-0.1 1,0 1.4,-0.2c0.1,-0.1 0.2,-0.1 0.3,-0.2c0.1,-0.1 0.2,-0.2 0.2,-0.3c0,-0.3 -0.1,-0.6 -0.3,-0.8v0v0c-0.7,-0.5 -1.6,-0.1 -2.4,0l0.1,-0.1c0.2,-0.2 0.4,-0.5 0.5,-0.8c0,-0.1 0,-0.1 0,-0.2c0.2,-1.3 0,-2.6 -0.1,-3.9c0.3,-0.2 0.7,-0.4 1,-0.6c2.2,-1.3 4.7,-2.1 7.2,-2.8c0.6,-0.1 1.2,-0.3 1.8,-0.4c0.5,-0.1 1,-0.1 1.5,-0.1c0.1,0 0.2,0 0.3,0c0,0.5 -0.1,1 -0.2,1.5c-0.6,1.9 -1.5,3.8 -2.6,5.6c-1.3,2 -2.7,4 -4.6,5.3z" fill="#fd8781"/><path d="M223.40556,142.40992c1.4,-0.9 2.9,-1.8 4.5,-2.4c0.2,0 0.5,-0.1 0.7,-0.2c0.3,-0.1 0.5,-0.1 0.8,-0.2c0.8,-0.1 1.6,-0.2 2.4,0.1c0.9,0.4 1.4,1.3 1.7,2.2c0.9,2.4 1,5 1,7.5l-0.4,0.2h-0.1c-2.6,-1.8 -5.2,-3.8 -7.9,-5.6c-0.8,-0.6 -1.7,-1.1 -2.7,-1.6z" fill="#ffffff"/><path d="M258.60556,149.20992c0.6,0.2 1.2,0.4 1.7,0.7c0.4,0.2 0.8,0.5 1,1c0.5,1 0.4,2.2 0.3,3.3c-0.5,3.1 -1.9,5.9 -3.2,8.6c-0.2,0.5 -0.5,1 -0.8,1.4v0c-0.5,0.1 -1.1,0 -1.6,-0.1c1.1,-2 2.1,-4.1 2.7,-6.3c0.2,-0.9 0.3,-2.1 -0.4,-2.9c-0.6,-0.7 -1.6,-0.9 -2.5,-0.8c-1.4,0.1 -2.7,0.4 -4,0.8c-0.1,0.1 -0.3,0.1 -0.5,0.2c-0.3,-2.1 0.1,-4.2 0.8,-6.1c2.1,-0.2 4.4,-0.3 6.5,0.2z" fill="#ffffff"/><path d="M229.20556,214.30992c-0.6,-0.1 -1.1,-0.3 -1.6,-0.5c-0.2,-0.2 -0.5,-0.4 -1,-0.6v0c-0.2,-0.1 -0.3,-0.2 -0.5,-0.2c-0.4,-0.2 -0.6,-0.2 -0.8,-0.1c-0.1,0 -0.2,0 -0.3,0.1h-0.1c-0.9,-1.1 -1.7,-2.2 -2.1,-3.5c-1,-2.7 -1.5,-5.7 -1.4,-8.6c-0.1,-3.6 0,-7.2 1.1,-10.6c0.4,-1.1 0.6,-2.3 1.1,-3.4c0,-0.2 0.2,-0.6 -0.1,-0.7c-0.5,-0.2 -1.1,-0.4 -1.6,-0.5c-0.5,-0.2 -1.1,-0.2 -1.6,-0.3h-0.2v-0.1c0.2,-0.7 0,-1.6 -0.6,-2c-0.1,0 -0.1,-0.1 -0.2,-0.1c-1.4,-0.7 -3.1,-0.8 -4.6,-1.3c-1.4,-0.5 -2.9,-1 -4.3,-1.6c-1,-0.6 -2,-1.2 -3,-1.8c-1.6,-1.1 -3,-2.5 -4,-4.1c0.9,-1.3 2.4,-2.1 3.8,-2.9c1.5,-0.8 3,-1.5 4.6,-2c1,-0.2 1.9,-0.4 2.8,-0.6c0.3,0 0.6,-0.1 0.9,-0.1c1.1,-0.1 2.2,-0.4 3.3,-0.2v0v0c0.1,0.1 0.3,0.2 0.4,0.2c0.5,0.1 0.9,0 1.3,-0.3c0.5,0 1.1,0 1.7,0.1c-0.3,0.7 -0.5,1.7 0.1,2.3c0.6,0.6 1.5,0.4 2.2,0.2c0.4,0.3 0.7,0.6 1.2,0.6c0.7,0.1 1.2,-0.2 1.7,-0.5h0.1v0c1.3,-0.4 2.6,-0.6 3.8,-1c0.3,0.3 0.6,0.6 1,0.6c0.1,0 0.2,0 0.3,0c0.6,-0.1 1,-0.6 1.2,-1.2v0v0v0c2.7,-0.4 5.4,0.3 8.1,0.9c1.1,0.2 2,0.8 3.1,1.1v0v0c0.2,0.1 0.3,0.2 0.4,0.2c0.1,0 0.3,0.1 0.4,0.1v0c0.4,0.3 0.9,0.4 1.4,0.6c0.6,0.2 1.3,0.7 2,0.7c0.3,0.2 0.7,0.3 1,0.5c-0.1,0 -0.1,0 -0.1,0c-0.4,0.3 -0.9,0.6 -1.3,1c-0.3,0.3 -0.5,0.7 -0.5,1.2c-0.1,1.4 1.1,2.2 2,3c-0.3,0.3 -0.5,0.5 -0.8,0.7c-1.2,0.8 -2.8,0.9 -4.2,1c-1.1,-0.1 -2.2,-0.1 -3.3,-0.2c-0.4,0 -0.8,0.1 -1.1,0.3c-0.2,0.1 -0.4,0.3 -0.5,0.5c-0.2,0.5 -0.3,1.1 -0.1,1.7c0.1,0.1 0.1,0.1 0.1,0.2v0c0,0 0.1,0.1 0.1,0.2c0.4,0.6 0.8,1.2 1.1,1.8c-0.9,-0.1 -1.8,0 -2.7,0c-1.9,0 -3.8,-0.1 -5.7,0c0,0.2 0,0.4 0,0.6c-0.1,1.3 0.3,2.6 0.3,3.9c0.3,4.7 0.6,9.5 0.9,14.3c0.2,2.8 -0.1,5.7 -1.3,8.3c-0.8,1.2 -2.2,2.2 -3.9,2.1z" fill="#ffffff"/><path d="M270.70556,193.10992c0,0.1 0,0.1 0,0.2c0,0.4 -0.2,0.8 -0.4,1.1c0,0.1 0,0.1 0,0.1c-1,1.6 -2.7,2.7 -4.2,3.8c-0.6,0.5 -1,1.2 -0.9,1.9c0.1,0.6 0.4,1.1 0.8,1.5c0.3,0.3 0.5,0.5 0.8,0.7v0c1.2,1 2.6,2 3.1,3.5c0.6,1.9 0,4 -1,5.6c-0.3,0.4 -0.5,0.7 -0.8,1c-1.5,1.7 -3.5,2.7 -5.5,3.5c-1.1,-0.7 -2.2,-1.4 -3,-2.4c-0.9,-1 -1.4,-2.3 -1.7,-3.6c-0.4,-1.3 -0.2,-2.5 -0.2,-3.8c0.1,-2.2 0.5,-4.4 1.1,-6.5v0c0.5,-1.4 1.2,-2.9 2,-4.2c0.8,-1.5 1.8,-2.9 2.9,-4.2l0.1,-0.2c2.1,0.1 4.2,0.4 6.1,1.4c0.1,0 0.1,0 0.1,0c0.1,0.1 0.2,0.1 0.3,0.2l0.1,0.1c0.1,0.1 0.2,0.2 0.3,0.3z" fill="#ffffff"/><path d="M249.60556,203.70992c-0.6,0.8 -1.1,1.6 -1.6,2.4c-0.1,-0.6 -0.1,-1.4 -0.7,-1.9c-0.1,-0.1 -0.2,-0.1 -0.3,-0.1c-0.1,0 -0.2,0 -0.3,0.1c-0.1,0.1 -0.2,0.3 -0.3,0.4c-0.1,0.1 -0.2,0.3 -0.2,0.4v0c-0.1,0.4 0.1,0.8 0.3,1.2c0.1,0.6 0.2,1.1 0.3,1.6v0c-0.5,0.7 -1.3,1.2 -2.1,1.3c-0.1,0 -0.1,0 -0.2,0c-0.1,0 -0.1,0 -0.2,0c-0.2,-0.5 -0.2,-0.9 -0.2,-1.4c0.1,-1.1 0.5,-1.7 0.1,-2.2c-0.1,-0.1 -0.3,-0.3 -0.5,-0.3c-0.1,0 -0.2,0 -0.3,0c-0.2,0.1 -0.5,0.3 -0.6,0.5c0,0.1 -0.1,0.3 -0.1,0.4c0,1 0.1,2 0,3c-0.9,-1.2 -1.3,-2.7 -1.8,-4.1v0v0c0.2,-0.7 0.4,-1.5 1.1,-2c1,-0.9 2.3,-1.7 3.7,-1.4c1.1,0.1 2.3,0.4 3.3,0.9c0.3,0.1 0.5,0.2 0.7,0.4c0.2,0.3 0.1,0.6 -0.1,0.8z" fill="#ffffff"/><path d="M213.20556,199.80992v0c-0.1,0.8 -0.2,1.4 -0.2,1.8c-0.1,0.8 -0.1,1.8 -0.1,1.8c0,0 0,1.1 -0.1,2.1c-0.1,0.3 -0.1,0.7 -0.1,1c-0.5,-0.7 -0.8,-1.5 -0.9,-2.3c-0.1,-0.6 0,-1.1 0.2,-1.7c0.1,-0.2 0.1,-0.4 0.7,-1.6c0.2,-0.5 0.4,-0.9 0.5,-1.1z" fill="#ffffff"/><path d="M244.50556,223.70992c0,0.2 0.1,0.5 0.1,0.7c-0.5,0 -1,0 -1.5,0c-0.2,-0.9 0.2,-1.9 -0.3,-2.8l-0.2,-0.1c-0.1,0 -0.1,-0.1 -0.2,-0.1c-0.1,-0.1 -0.3,-0.1 -0.4,-0.1c-0.2,0 -0.4,0 -0.6,0.1c-0.1,0.1 -0.3,0.2 -0.4,0.4v0c-0.2,0.6 -0.1,1.3 -0.1,2c0,0.2 0,0.4 -0.1,0.6c-0.1,0.1 -0.1,0.1 -0.1,0.1c-1,0.1 -2,0.1 -3,0.1c-0.1,-0.1 -0.1,-0.2 -0.1,-0.3c0,-0.1 0,-0.3 0,-0.4c0.2,-0.8 0.3,-1.6 0.5,-2.4c0.2,-0.7 -0.6,-1.6 -1.4,-1.3c-0.2,0.1 -0.4,0.2 -0.5,0.3c-0.2,0.2 -0.4,0.5 -0.4,0.8c-0.2,1.1 -0.6,2.2 -0.6,3.3c-0.8,0 -1.5,0 -2.3,0c0,-0.1 0,-0.1 0,-0.2v0v-0.1c0.4,-1.7 1.4,-3.1 2.6,-4c0.4,-0.3 0.8,-0.5 1.3,-0.7c0.2,0 0.3,-0.1 0.4,-0.1c0.5,-0.1 1,-0.1 1.4,-0.1c0.9,0.1 1.7,0.4 2.5,0.7c0.2,0.1 0.3,0.2 0.4,0.2c1.1,0.6 1.9,1.5 2.5,2.5c0.2,0.3 0.3,0.6 0.5,0.9z" fill="#ffffff"/><path d="M222.90556,223.00992c0.3,0.5 0.6,1 1,1.5c-0.9,0 -1.8,0.2 -2.7,0.2c0,-0.4 0,-0.7 -0.1,-1.1c0,0 0,-0.1 0,-0.2c0,-0.2 0,-0.3 0.1,-0.6c0.1,-0.2 0.1,-0.3 0.1,-0.4v0v0v-0.1c0,-0.2 0,-0.4 -0.1,-0.5c-0.1,-0.1 -0.1,-0.1 -0.2,-0.2c-0.1,-0.1 -0.2,-0.2 -0.3,-0.3h-0.1v0c-0.1,0 -0.2,0 -0.3,0c-0.3,0 -0.6,0 -0.7,0.3v0c-0.6,0.4 -0.7,1.1 -0.7,1.6c0,0.1 0,0.1 0,0.2c0,0.1 0,0.3 0,0.4c0,0.4 0.1,0.8 0.2,1.2c-1.1,0.1 -2.3,0.2 -3.5,0.2c0.2,-1 0.9,-1.9 1.3,-2.8c0.2,-0.6 0.7,-0.9 1.1,-1.3c0.9,-0.3 2.1,-0.3 3,0.1c0,0 0.1,0 0.2,0.1h0.1c0,0.1 0.1,0.1 0.1,0.1l0.1,0.1c0,0.1 0.1,0.1 0.1,0.1l0.1,0.1c0.1,0.1 0.1,0.1 0.1,0.1l0.1,0.1c0.1,0.1 0.1,0.1 0.1,0.1c0.1,0.1 0.1,0.1 0.2,0.2v0c0.1,0 0.1,0.1 0.1,0.2v0c0.1,0.1 0.1,0.1 0.2,0.2v0c0.1,0.1 0.1,0.1 0.2,0.2v0c0.1,0.1 0.1,0.1 0.2,0.2z" fill="#ffffff"/><path d="M214.10556,151.30992c0.8,-1 1.7,-1.9 2.5,-2.9c-0.2,0.8 -0.2,1.6 -0.4,2.4c-0.6,0.5 -1.5,0.5 -2.1,0.5z" fill="#fddf7d"/><path d="M249.30556,173.10992v0c-0.7,-0.1 -1.4,-0.5 -2,-0.7c-0.5,-0.2 -1,-0.3 -1.4,-0.6c0.4,0.1 0.7,0.1 1.1,0.1c0.5,0 0.9,-0.1 1.4,-0.2c0.2,0.4 0.4,0.8 0.7,1.2z" fill="#fddf7d"/><path d="M240.90556,204.90992v0v0c-0.4,-1.1 -0.8,-2.3 -1.1,-3.4c-0.1,-0.2 -0.1,-0.5 -0.1,-0.8c-0.1,-0.2 -0.1,-0.5 -0.1,-0.7c-0.1,-0.4 -0.2,-0.7 -0.6,-1c-0.8,-0.8 -2.4,-0.2 -2.6,0.9c0,0.1 0,0.3 0,0.4c0,1 0.4,2 0.7,2.6c0.7,2.3 1.4,4.6 2.5,6.8c0.3,0.7 0.8,1.2 1.5,1.6c0.5,0.3 1,0.6 1.6,0.7c0.9,0.2 1.7,0.1 2.4,0c0.2,0 0.4,0 0.6,-0.1c0.6,-0.1 1.3,-0.3 1.9,-0.6c0,0 0.1,-0.1 0.2,-0.1c0.2,2.4 0.8,4.8 0.9,7.3c0.1,0.5 0.3,0.9 0.3,1.4c0.2,1.4 0.3,2.9 0.4,4.3c-1.6,0 -3.2,0 -4.8,0v0c0,-0.2 0,-0.5 -0.1,-0.7c-0.1,-0.3 -0.2,-0.6 -0.4,-0.9c-0.7,-1 -1.4,-2 -2.5,-2.5c-0.1,-0.1 -0.2,-0.1 -0.4,-0.2c-0.5,-0.2 -1.4,-0.6 -2.5,-0.7c-0.4,0 -0.9,0 -1.4,0.1c-0.2,0 -0.3,0.1 -0.4,0.1c-0.4,0.2 -0.9,0.4 -1.3,0.7c-1.3,0.9 -2.2,2.3 -2.6,4v0.1c0,0.1 0,0.1 0,0.2c-0.2,0 -0.4,0 -0.6,0v0v0v0h-0.1c0.3,-2.4 0,-4.8 -0.2,-7.2c-0.2,-0.7 0.2,-1.6 -0.4,-2.2c-0.5,-0.5 -1.5,-0.8 -2.2,-1c0.7,0 1.4,-0.2 2,-0.5c0.7,-0.3 1.2,-0.9 1.6,-1.5c1.2,-2.6 1.5,-5.5 1.3,-8.3v0c-0.3,-4.7 -0.6,-9.5 -0.9,-14.3c0,-1.3 -0.3,-2.6 -0.3,-3.9c0,-0.2 0,-0.4 0,-0.6c1.9,0 3.8,0 5.7,0c0.9,0 1.8,-0.1 2.7,0c3,5 5.8,10 7.5,15.5c0.3,0.8 0.6,1.6 0.7,2.4c-0.2,-0.1 -0.5,-0.3 -0.7,-0.4c-1,-0.5 -2.2,-0.7 -3.3,-0.9c-1.4,-0.2 -2.7,0.6 -3.7,1.4c-0.7,0.5 -0.9,1.3 -1.2,2z" fill="#fddf7d"/><path d="M225.20556,212.80992v0l-0.1,0.1v0v0c-0.2,0.3 -0.3,0.7 -0.3,1.1c0,0.5 0.3,0.8 0.7,1.1c0,0.1 0.1,0.1 0.2,0.2c0.1,0.1 0.2,0.1 0.3,0.2c0.3,0.2 0.6,0.3 0.9,0.4c0.8,0.3 1.7,0.5 2.5,0.7h0.1c0,0.1 0.1,0.2 0.1,0.3c0.1,0.5 0.1,0.9 0.1,1.4c0.2,1.2 0.2,2.3 0.3,3.5v0v0c0,0.5 0,1.1 -0.1,1.8c-0.1,0.3 -0.1,0.5 -0.1,0.8c-2,0 -4,-0.1 -6,0v0c-0.2,-0.5 -0.5,-1 -0.8,-1.5v0c-0.1,-0.1 -0.1,-0.1 -0.2,-0.2v0c-0.1,-0.1 -0.1,-0.1 -0.2,-0.2v0c-0.1,-0.1 -0.1,-0.1 -0.2,-0.2v0c-0.1,0 -0.1,-0.1 -0.3,0.1v0c-0.1,-0.1 -0.1,-0.1 -0.2,-0.2c-0.1,-0.1 -0.1,-0.1 -0.1,-0.1l-0.1,-0.1c-0.1,-0.1 -0.1,-0.1 -0.1,-0.1c0,0 0,-0.1 -0.1,-0.1c0,-0.1 -0.1,-0.1 -0.1,-0.1l-0.1,-0.1c0,-0.1 -0.1,-0.1 -0.1,-0.1c-0.1,0 -0.1,-0.1 -0.2,-0.1c0,0 -0.1,-0.1 -0.2,-0.1c-0.9,-0.4 -2,-0.4 -3,-0.1c0,-0.2 0.1,-0.3 0.1,-0.4c0.1,-0.2 0.1,-0.3 0.1,-0.4c0,-0.1 0,-0.1 0,-0.2c0,-0.1 0,-0.1 0,-0.2c0,-0.1 0,-0.1 0,-0.2c0,-0.1 0,-0.1 0,-0.2c-0.3,-1.1 -0.5,-2.3 -0.8,-3.4c-0.5,-2.3 -1,-4.6 -1.2,-6.9v0c-0.3,-3.7 0,-7.4 0.7,-11.1v0c0.5,-2.5 1.1,-5.1 1.8,-7.5c0.3,-1.1 0.7,-2.2 1.1,-3.3c0.3,-0.7 0.5,-1.3 0.7,-2h0.2c0.5,0.1 1.1,0.2 1.6,0.3c0.6,0.2 1.1,0.3 1.6,0.5c0.4,0.1 0.2,0.5 0.1,0.7c-0.5,1.1 -0.7,2.3 -1.1,3.4c-1.1,3.4 -1.1,7.1 -1.1,10.6c-0.1,2.9 0.4,5.8 1.4,8.6c0.4,1.3 1.2,2.4 2.2,3.3z" fill="#fddf7d"/><path d="M262.30556,215.80992v0v0c-0.4,0.2 -0.8,0.4 -1.3,0.5c-2,0.6 -4.1,0.7 -6.1,0.9c-1.1,0.1 -2.1,0.2 -3.2,0.3c-0.5,-2.7 -0.8,-5.5 -1.2,-8.2c-0.1,-0.2 -0.2,-0.5 -0.4,-0.7c0.7,-1.2 1.4,-2.4 2.2,-3.5c0.7,-1 0.5,-2.2 0.3,-3.2c-0.4,-1.6 -1,-3.1 -1.5,-4.7c1.5,-1.9 3.5,-3.1 5.6,-4.2c0.1,-0.1 0.3,-0.1 0.4,-0.2c2,-1 4.2,-1.7 6.5,-1.7l-0.1,0.1v0v0c-1.1,1.3 -2,2.8 -2.9,4.2c-0.8,1.3 -1.5,2.7 -2,4.2v0c-0.6,2.2 -1,4.3 -1.1,6.5c0,1.3 -0.1,2.6 0.2,3.8c0.4,1.3 0.9,2.5 1.7,3.6c0.9,1 2,1.7 2.9,2.3z" fill="#fddf7d"/><path d="M242.70556,159.40992c-1.5,-1.6 -2.4,-3.5 -3.5,-5.4c-0.4,-0.7 -0.7,-1.5 -0.9,-2.3v0v0c2.3,-0.6 4.6,-1.3 7,-1.7c2.3,-0.4 4.5,-0.9 6.8,-1c-0.7,2 -1.1,4.1 -0.8,6.1v0c-2.8,0.9 -5.6,1.8 -7.9,3.6c-0.2,0.2 -0.5,0.4 -0.7,0.7z" fill="#3a3b29"/><path d="M257.50556,164.00992c-0.3,0.9 -0.8,1.6 -1.2,2.3c-1.5,2.8 -3.6,5.4 -6.2,7.2c-0.4,-0.1 -0.7,-0.3 -1,-0.5l-0.1,-0.2c-0.2,-0.3 -0.5,-0.7 -0.7,-1.1c1.3,-0.3 2.2,-1 3.2,-1.9c1.8,-1.6 3.3,-3.6 4.5,-5.7v0c0.5,0.1 1.1,0.2 1.5,-0.1z" fill="#3a3b29"/><path d="M208.40556,154.90992c1.1,-0.1 2.3,-0.1 3.4,-0.2c0.6,0 1.1,-0.1 1.7,-0.1c1.3,-0.1 2.7,-0.2 3.9,-0.7c1,-0.4 1.8,-1.4 2,-2.5c0.4,-2 0.3,-4.2 1.4,-6c0.3,-0.6 1,-0.2 1.4,0c2.3,1.2 4.3,2.8 6.4,4.2c1.2,1 2.5,1.9 3.8,2.8c0.6,0.3 1.2,0.6 1.8,0.6c0.2,0 0.3,0 0.5,-0.1c0.8,-0.3 2.4,-0.9 3.3,-1.1c0.1,-0.1 0.2,-0.1 0.3,-0.1v0c0.2,0.8 0.5,1.6 0.9,2.3v0c1,1.9 2,3.8 3.5,5.4v0c-0.3,0.7 0.1,1.5 0.1,2.3c0.1,0.5 0.1,1.1 0,1.6c-0.1,0.5 -0.3,1.1 -0.1,1.6c0,0.1 0.1,0.4 0.3,0.4c0.2,0 0.2,-0.1 0.3,0c0,0.1 0,0.2 0,0.5c0,0.1 -0.1,0.3 -0.1,0.4c0,0.1 0,0.2 0,0.3c0.1,0.1 0.1,0.2 0.2,0.3c0.2,0.1 0.5,0.1 0.7,0.1c0.3,-0.1 0.7,-0.1 1,-0.1h0.1l0.2,0.1c-0.7,-0.1 -1.3,0.1 -1.6,0.5c0,0.1 -0.1,0.2 -0.1,0.3c0,0.2 0,0.4 0.2,0.5v0v0c0.5,0.3 1.2,0.2 1.8,0.3c0.3,0.1 0.6,0 0.8,-0.1v0c0.2,0.5 0.5,0.9 0.7,1.4v0c-0.3,0 -0.7,0 -1,-0.1c-0.4,-0.1 -0.7,-0.2 -1,-0.1c-0.2,0.1 -0.4,0.2 -0.5,0.3c-0.1,0.1 -0.2,0.3 -0.2,0.5c0,0.3 0.1,0.6 0.2,0.8c0.1,0.2 0.3,0.4 0.5,0.6v0v0v0c-1.1,-0.3 -2,-0.9 -3.1,-1.1c-2.6,-0.6 -5.4,-1.4 -8.1,-0.9v0c0.1,-0.4 0.1,-0.9 0,-1.3c-0.1,-0.2 -0.3,-0.4 -0.5,-0.5c-0.3,-0.2 -0.8,-0.2 -1.1,0c-0.7,0.5 -1.4,1.4 -1,2.3v0v0c-1.3,0.4 -2.6,0.6 -3.8,1v0c0.1,-0.2 0.3,-0.4 0.4,-0.6c0.1,-0.1 0.1,-0.2 0.2,-0.3c0.2,-0.3 0.4,-0.8 0.2,-1.1c-0.1,-0.1 -0.1,-0.2 -0.2,-0.2c-0.1,-0.1 -0.1,-0.2 -0.2,-0.2c-0.2,-0.1 -0.3,-0.1 -0.5,0c-0.3,0.1 -0.4,0.4 -0.8,0.9c-0.2,0.2 -0.5,0.6 -0.7,0.5c-0.2,-0.1 0,-0.7 -0.4,-0.9c0,-0.1 -0.1,-0.1 -0.2,-0.1c-0.6,-0.1 -1.1,0.4 -1.7,0.6c0,-0.1 0.1,-0.3 0.1,-0.4v-0.1c0.2,-0.3 0.7,-0.4 0.8,-0.8c0.1,-0.2 0,-0.4 -0.1,-0.6c0,-0.1 -0.1,-0.1 -0.1,-0.1c-0.7,-0.4 -1.5,0.2 -1.9,0.8v0v0c-0.5,-0.1 -1.1,-0.1 -1.7,-0.1c0.3,-0.4 0.6,-0.9 0.5,-1.5c-0.1,-0.6 -0.6,-1.3 -1.3,-1.2c-0.1,0 -0.2,0 -0.3,0c-0.6,0.1 -1.1,0.8 -1.1,1.4c-0.1,0.6 0.1,1.1 0.5,1.5v0c-1.1,-0.2 -2.2,0 -3.3,0.2c-0.3,0 -0.6,0 -0.9,0.1c-1,0.1 -1.9,0.3 -2.8,0.6c-1.6,0.4 -3.1,1.2 -4.6,2c-1.4,0.8 -2.9,1.6 -3.8,2.9c-0.8,-1.3 -1.5,-2.6 -1.6,-4c0,-0.7 0.3,-1.4 0.9,-1.9c1.1,-1 2.5,-1.4 3.9,-1.8c0.6,-0.2 1.3,-0.1 1.9,-0.5c0.5,-0.3 0.7,-0.9 0.8,-1.4c0.1,-1.2 0.3,-2.4 0.7,-3.5c0.2,-1 1.2,-1.6 1.2,-2.6c-0.1,-0.5 -0.4,-1 -0.8,-1.4c-0.9,-0.7 -1.8,-1.5 -2.3,-2.6z" fill="#fddf7d"/><path d="M268.80556,200.40992c1.6,1.2 3.3,2.7 3.9,4.8c0.8,2.7 0.2,5.6 -1.2,7.9c-1.2,2 -3,3.5 -5,4.6c-2.4,1.4 -5.2,2.3 -8,2.6c-2.1,0.2 -4.3,0.4 -6.4,0.5c0.1,0.8 0.2,1.7 0.3,2.5c0.1,0.8 -0.2,1.6 -0.9,2c0.3,0.3 0.6,0.7 0.6,1.2c0.1,0.8 -0.6,1.5 -1.4,1.6c-0.7,0.1 -6.5,-0.3 -8.7,-0.2c-3.2,0.2 -6.5,0.2 -9.7,0.1c-2.3,-0.1 -9.2,-0.1 -10.4,0.1c-2,0.1 -3.9,0.3 -5.8,0.4c-0.9,0 -2,0 -2.8,-0.6c-0.8,-0.6 -1.2,-1.6 -1.1,-2.5c0,-1.7 1.1,-3.2 1.8,-4.7c0.2,-0.5 0.7,-0.9 0.5,-1.5c-0.6,-2.5 -1.1,-5 -1.5,-7.5c0,-0.2 0,-0.4 -0.2,-0.6c-0.7,-0.7 -1.5,-1.2 -2.2,-1.9c-1,-1.1 -1.6,-2.2 -1.8,-2.7c-0.3,-1 -0.2,-1.9 -0.2,-2.6c0.1,-0.9 0.2,-1.7 0.5,-2.5c0.8,-2.4 2,-4.5 4.6,-8.4c0.6,-0.9 1.4,-1.7 1.6,-2.7c0.4,-1.6 1,-3.1 1.8,-4.7c-1.6,-0.3 -7.7,-2.4 -9.1,-3.2c-4,-2 -7.2,-5.4 -8.6,-9.6c-0.4,-1.1 -0.4,-2.4 -0.3,-3.6c0.4,-2.2 2.3,-3.7 4.3,-4.5c1,-0.5 2.2,-0.7 3.2,-1.1c0.3,-1.5 0.5,-3 1.3,-4.4c-1,-0.9 -1.9,-1.9 -2.5,-3.2c-0.4,-0.8 -0.2,-1.7 -0.2,-2.6c0.2,-0.7 0.8,-1.1 1.5,-1.3c1.1,-0.3 2.2,-0.3 3.3,-0.4c0.4,-0.5 0.7,-1.1 1.1,-1.6c2.7,-3.4 5.6,-6.5 9,-9.1c2,-1.6 4.2,-2.9 6.6,-3.9c2,-0.7 4.3,-1.2 6.3,-0.4c1.7,0.6 2.9,2.2 3.5,3.9c0.9,2.5 1.1,5.2 1.2,7.9c2.2,-0.6 4.4,-1.2 6.6,-1.6c3.6,-0.7 7.2,-1.3 10.9,-1.2c2.3,0 4.7,0.3 6.7,1.4c1.5,0.9 2.5,2.4 2.8,4.1c0.5,2.8 -0.3,5.7 -1.3,8.3c-1,2.5 -2.3,5 -3.6,7.4c-1.3,2.3 -2.7,4.5 -4.5,6.4c-1,1.1 -2.1,2 -3.1,3.1c0.7,0.6 1.5,1.5 1.5,2.6c-0.1,1.6 -1.3,2.7 -2.5,3.5c-2,1.2 -4.4,1.4 -6.6,1.3c1,2 2.3,3.9 3.3,6c0.8,1.4 1.5,2.9 2.2,4.3c2,-2 4.5,-3.4 7,-4.5c2.2,-1 4.5,-1.6 6.9,-1.5c2.2,-0.1 4.4,0.3 6.5,1.2c1.2,0.5 2.5,1.2 3.1,2.5c0.3,0.6 0.2,1.3 0.2,1.9c0,1 -0.6,2 -1.2,2.9c-1,1.4 -2.4,2.5 -3.8,3.8zM213.20556,199.80992v0c-0.1,0.2 -0.3,0.6 -0.5,1c-0.6,1.2 -0.7,1.5 -0.7,1.6c-0.2,0.5 -0.2,1.1 -0.2,1.7c0,0.9 0.4,1.7 0.9,2.3c0.1,-0.3 0.1,-0.6 0.1,-1c0,-1 0.1,-2.1 0.1,-2.1c0,0 0,-1 0.1,-1.7c0,-0.5 0.1,-1.1 0.2,-1.8zM223.40556,142.50992v0c0.9,0.4 1.8,0.9 2.7,1.5c2.7,1.8 5.2,3.8 7.9,5.6v0h0.1l0.4,-0.2v0c0,-2.5 -0.2,-5.1 -1,-7.5c-0.3,-0.9 -0.8,-1.8 -1.7,-2.2c-0.8,-0.3 -1.6,-0.3 -2.4,-0.1c-0.3,0.1 -0.5,0.1 -0.8,0.2c-0.2,0 -0.5,0.1 -0.7,0.2c-1.6,0.6 -3.1,1.5 -4.5,2.5zM214.00556,151.30992v0c0.8,-0.1 1.6,0 2.2,-0.5c0.3,-0.8 0.2,-1.6 0.4,-2.4v0c-0.9,1 -1.8,2 -2.6,2.9zM249.70556,203.00992c-0.1,-0.8 -0.4,-1.6 -0.7,-2.4c-1.8,-5.5 -4.6,-10.6 -7.5,-15.5c-0.4,-0.6 -0.8,-1.2 -1.1,-1.8c0,-0.1 -0.1,-0.2 -0.1,-0.3v0c-0.1,-0.1 -0.1,-0.1 -0.1,-0.2c-0.2,-0.5 -0.1,-1.1 0.1,-1.7c0.1,-0.2 0.3,-0.4 0.5,-0.5c0.4,-0.2 0.7,-0.3 1.1,-0.3c1.1,0.1 2.2,0.2 3.3,0.2c1.4,-0.1 3,-0.2 4.2,-1c0.3,-0.2 0.6,-0.4 0.8,-0.7c-0.9,-0.8 -2.2,-1.7 -2,-3c0,-0.5 0.2,-0.9 0.5,-1.2c0.3,-0.4 0.8,-0.7 1.3,-1c0.1,0 0.1,0 0.1,0v0c2.6,-1.9 4.6,-4.4 6.2,-7.2c0.4,-0.8 1,-1.5 1.2,-2.3v0c0.3,-0.5 0.6,-0.9 0.8,-1.4c1.4,-2.8 2.7,-5.6 3.2,-8.6c0.1,-1.1 0.2,-2.3 -0.3,-3.3c-0.3,-0.4 -0.6,-0.7 -1,-1c-0.5,-0.3 -1.1,-0.5 -1.7,-0.7c-2.2,-0.5 -4.4,-0.4 -6.6,-0.2c-2.3,0.1 -4.5,0.6 -6.8,1c-2.4,0.4 -4.7,1.1 -7,1.7c-0.1,0 -0.2,0.1 -0.3,0.1c-0.9,0.3 -2.4,0.9 -3.3,1.1c-0.2,0.1 -0.4,0.1 -0.5,0.1c-0.7,0 -1.3,-0.2 -1.8,-0.6c-1.3,-1 -2.5,-1.9 -3.8,-2.8c-2.1,-1.5 -4.1,-3.1 -6.4,-4.2c-0.4,-0.2 -1.1,-0.6 -1.4,0v0c-1.1,1.8 -1,4 -1.4,6c-0.2,1.1 -0.9,2.1 -2,2.5c-1.3,0.5 -2.6,0.6 -3.9,0.7c-0.6,0 -1.1,0 -1.7,0.1c-1.1,0.1 -2.3,0.1 -3.4,0.2v0c0.5,1 1.4,1.8 2.3,2.5c0.5,0.3 0.7,0.8 0.8,1.4c0,1.1 -0.9,1.7 -1.2,2.6c-0.4,1.2 -0.6,2.3 -0.7,3.5c0,0.5 -0.3,1.1 -0.8,1.4c-0.6,0.3 -1.3,0.3 -1.9,0.5c-1.4,0.4 -2.8,0.9 -3.9,1.8c-0.6,0.4 -0.9,1.1 -0.9,1.9c0.2,1.5 0.9,2.8 1.6,4c1.1,1.6 2.4,3 4,4.1c1,0.7 2,1.3 3,1.8c1.4,0.7 2.8,1.1 4.3,1.6c1.5,0.5 3.1,0.6 4.6,1.3c0.1,0 0.1,0.1 0.2,0.1c0.6,0.4 0.8,1.3 0.6,2v0.1c-0.2,0.7 -0.5,1.3 -0.7,2c-0.4,1.1 -0.8,2.2 -1.1,3.3c-0.7,2.5 -1.3,5 -1.8,7.5v0c-0.7,3.6 -1,7.4 -0.7,11.1v0c0.2,2.3 0.7,4.6 1.2,6.9c0.2,1.1 0.5,2.3 0.8,3.4c0,0.1 0,0.1 0,0.2c0,0.1 0,0.1 0,0.2c0,0.1 0,0.1 0,0.2c0,0.1 0,0.1 0,0.2c-0.1,0.2 -0.1,0.3 -0.1,0.4c0,0.2 -0.1,0.3 -0.1,0.4c-0.4,0.4 -1,0.7 -1.2,1.3c-0.4,0.9 -1,1.8 -1.3,2.8v0c1.1,0 2.3,-0.1 3.5,-0.2c-0.1,-0.4 -0.2,-0.8 -0.2,-1.2c0,-0.1 0,-0.3 0,-0.4c0,-0.1 0,-0.1 0,-0.2c0,-0.5 0.1,-1.2 0.7,-1.6v0c0.2,-0.2 0.5,-0.3 0.8,-0.3c0.1,0 0.2,0 0.3,0v0c0.1,0.1 0.3,0.2 0.4,0.3c0.1,0.1 0.2,0.1 0.2,0.2c0,0.2 0.1,0.3 0.1,0.5v0.1v0c0,0.1 -0.1,0.2 -0.1,0.4c0,0.3 -0.1,0.4 -0.1,0.6c0,0 0,0.1 0,0.2c0,0.1 0,0.3 0,0.4c0,0.2 0,0.5 0.1,0.7v0c0.9,0.1 1.8,-0.1 2.7,-0.2v0c2,-0.1 4,0 6,0c0,-0.3 0.1,-0.5 0.1,-0.8c0.1,-0.6 0.1,-1.2 0.1,-1.8v0c-0.1,-1.2 -0.2,-2.3 -0.3,-3.5c0,-0.5 0,-1 -0.1,-1.4c0,-0.1 -0.1,-0.2 -0.1,-0.3h-0.1c-0.9,-0.1 -1.7,-0.4 -2.5,-0.7c-0.3,-0.1 -0.6,-0.2 -0.9,-0.4c-0.1,-0.1 -0.2,-0.1 -0.3,-0.2c0,-0.1 -0.1,-0.1 -0.2,-0.2c-0.6,-0.5 -0.7,-0.9 -0.7,-1.1c-0.1,-0.4 0.1,-0.8 0.3,-1.1v0l0.1,-0.1h0.1c0.1,0 0.2,-0.1 0.3,-0.1c0.2,0 0.4,0 0.8,0.1c0.1,0 0.3,0.1 0.5,0.2v0c0.5,0.3 0.7,0.4 1,0.6c0.2,0.1 0.4,0.2 0.6,0.3c0.4,0.1 0.5,0.1 1,0.2h0.1c0.7,0.1 1.6,0.4 2.2,1c0.6,0.6 0.3,1.5 0.4,2.2c0.3,2.4 0.6,4.8 0.2,7.2h0.1c0.2,0 0.4,0 0.6,0c0.8,0.1 1.5,0 2.3,0v0c0,-1.1 0.4,-2.2 0.6,-3.3c0.1,-0.3 0.2,-0.6 0.4,-0.8c0.2,-0.1 0.3,-0.2 0.5,-0.3c0.8,-0.3 1.6,0.5 1.4,1.3c-0.3,0.8 -0.3,1.6 -0.5,2.4c0,0.1 0,0.3 0,0.4c0,0.1 0.1,0.2 0.1,0.3c1,0 2,0 3,-0.1c0.1,-0.1 0.1,-0.1 0.1,-0.1c0.2,-0.1 0.1,-0.4 0.1,-0.6c0,-0.7 -0.1,-1.4 0.1,-2v0c0.1,-0.2 0.2,-0.3 0.4,-0.4c0.2,-0.1 0.4,-0.1 0.6,-0.1c0.2,0 0.3,0.1 0.4,0.1c0.1,0.1 0.2,0.1 0.2,0.1l0.2,0.1c0.5,0.9 0.1,1.9 0.3,2.8c0.5,0 1,0 1.5,0v0v0c1.6,0 3.2,-0.1 4.8,0v0c-0.1,-1.4 -0.3,-2.9 -0.4,-4.3c0,-0.5 -0.2,-0.9 -0.3,-1.4c-0.1,-2.4 -0.7,-4.8 -0.9,-7.3c0,0 -0.1,0.1 -0.2,0.1c-0.6,0.3 -1.2,0.5 -1.9,0.6c-0.1,0.1 -0.2,0.1 -0.3,0.1c-0.1,0.1 -0.2,0.1 -0.3,0.1c-0.7,0.1 -1.5,0.2 -2.4,0c-0.6,-0.2 -1.1,-0.4 -1.6,-0.7c-0.7,-0.5 -1.2,-1.1 -1.5,-1.6c-1.1,-2.1 -1.8,-4.5 -2.5,-6.8c-0.3,-1 -0.6,-1.9 -0.6,-2.9c0,-0.1 0,-0.3 0,-0.4c0.2,-1.1 1.7,-1.7 2.6,-0.9c0.4,0.2 0.5,0.6 0.6,1c0.1,0.2 0.1,0.5 0.1,0.7c0,0.2 0,0.5 0.1,0.8c0.4,1.2 0.7,2.3 1.1,3.4v0v0c0.5,1.4 0.9,2.9 1.8,4.1v0c0,-1 -0.1,-2 0,-3c0,-0.2 0,-0.3 0.1,-0.4c0.1,-0.2 0.4,-0.4 0.6,-0.5c0.1,0 0.2,0 0.3,0c0.2,0 0.4,0.1 0.5,0.3c0.3,0.5 -0.1,1.1 -0.1,2.2c0,0.5 0.1,1 0.2,1.4c0.1,0 0.1,0 0.2,0c0.1,0 0.1,0 0.2,0c0.9,-0.1 1.6,-0.6 2.1,-1.3v0c0,-0.5 -0.1,-0.9 -0.3,-1.4v-0.1c-0.2,-0.3 -0.4,-0.8 -0.3,-1.2c0,-0.1 0,-0.1 0,-0.1c0,-0.1 0,-0.2 0.1,-0.3c0,-0.1 0,-0.1 0,-0.1c0.1,-0.2 0.2,-0.3 0.3,-0.4c0.1,-0.1 0.2,-0.1 0.3,-0.1c0.1,0 0.2,0 0.3,0.1c0.5,0.5 0.5,1.2 0.7,1.9v0c0.5,-0.8 1.1,-1.6 1.6,-2.4c0.2,-0.2 0.3,-0.5 0.1,-0.7zM270.60556,193.40992c0,-0.1 0,-0.1 0,-0.2c0,-0.1 -0.1,-0.2 -0.2,-0.3l-0.1,-0.1c-0.1,-0.1 -0.2,-0.1 -0.3,-0.2c-0.1,0 -0.1,0 -0.1,0c-1.9,-1 -4,-1.3 -6.1,-1.4l-0.1,0.1v0v0v0c-2.3,0 -4.5,0.7 -6.5,1.7c-0.1,0.1 -0.3,0.1 -0.4,0.2c-2.1,1.1 -4.2,2.3 -5.6,4.2c0.5,1.5 1.1,3.1 1.5,4.7c0.2,1.1 0.3,2.3 -0.3,3.2c-0.7,1.2 -1.5,2.3 -2.2,3.5c0.2,0.2 0.3,0.4 0.4,0.7c0.4,2.7 0.7,5.5 1.2,8.2c1.1,-0.1 2.1,-0.3 3.2,-0.3c2,-0.3 4.1,-0.4 6.1,-0.9c0.4,-0.2 0.9,-0.3 1.3,-0.5v0c2,-0.8 4,-1.9 5.5,-3.5c0.3,-0.3 0.6,-0.6 0.8,-1c1,-1.6 1.6,-3.7 1,-5.6c-0.5,-1.5 -1.9,-2.5 -3.1,-3.5v0c-0.3,-0.2 -0.6,-0.5 -0.8,-0.7c-0.4,-0.4 -0.8,-0.9 -0.8,-1.5c-0.1,-0.8 0.3,-1.5 0.9,-1.9c1.6,-1.1 3.2,-2.2 4.3,-3.9c0,0.1 0,0 0,0c0.2,-0.3 0.4,-0.7 0.4,-1z" fill="#001773"/><path d="M232.30556,224.60992v0z" fill="#001773"/><path d="M245.90556,172.00992v0c-0.1,0 -0.3,-0.1 -0.4,-0.1c-0.2,-0.1 -0.3,-0.1 -0.4,-0.2v0v0c-0.2,-0.2 -0.4,-0.4 -0.5,-0.6c-0.2,-0.3 -0.2,-0.5 -0.2,-0.8c0,-0.2 0.1,-0.4 0.2,-0.5c0.1,-0.2 0.3,-0.3 0.5,-0.3c0.3,-0.1 0.6,0 1,0.1c0.3,0 0.7,0.1 1,0.1v0c0.7,-0.1 1.5,-0.4 2.1,-0.9c1.9,-1.4 3.4,-3.4 4.6,-5.4c1.1,-1.7 2,-3.6 2.6,-5.6c0.1,-0.5 0.2,-1 0.2,-1.5v0c-0.1,0 -0.2,0 -0.3,0c-0.5,0 -1,0 -1.5,0.1c-0.6,0.1 -1.2,0.2 -1.8,0.4c-2.5,0.7 -5,1.5 -7.2,2.8c-0.4,0.2 -0.7,0.4 -1,0.6c0.1,1.3 0.2,2.6 0.1,3.9c0,0.1 0,0.1 0,0.2c-0.1,0.3 -0.3,0.6 -0.5,0.8l-0.1,0.1v0c0.8,-0.1 1.7,-0.5 2.4,0v0c0.3,0.2 0.4,0.5 0.3,0.8c0,0.1 -0.1,0.2 -0.2,0.3c-0.1,0.1 -0.2,0.2 -0.3,0.2c-0.4,0.2 -0.7,0.1 -1.4,0.2v0h-0.1c-0.3,0.1 -0.7,0.1 -1,0.1c-0.2,0.1 -0.5,0.1 -0.7,-0.1c-0.1,-0.1 -0.2,-0.2 -0.2,-0.3c0,-0.1 0,-0.2 0,-0.3c0,-0.1 0.1,-0.3 0.1,-0.4c0.1,-0.2 0.2,-0.3 0.1,-0.4c-0.1,0 -0.2,0 -0.3,0c-0.2,0 -0.3,-0.3 -0.3,-0.4c-0.2,-0.5 0,-1.1 0.1,-1.6c0.1,-0.5 0.1,-1.1 0,-1.6c0,-0.7 -0.4,-1.6 -0.1,-2.3v0c0.2,-0.3 0.5,-0.5 0.7,-0.7c2.3,-1.8 5.1,-2.7 7.9,-3.6c0.1,-0.1 0.3,-0.1 0.5,-0.2c1.3,-0.4 2.6,-0.7 4,-0.8c0.9,-0.1 1.9,0.1 2.5,0.8c0.7,0.8 0.6,1.9 0.4,2.9c-0.6,2.2 -1.6,4.3 -2.7,6.3v0c-1.3,2.1 -2.7,4.1 -4.5,5.7c-1,0.8 -1.9,1.6 -3.2,1.9v0c-0.5,0.1 -0.9,0.2 -1.4,0.2c-0.3,0 -0.7,0 -1,0.1z" fill="#001773"/><path d="M245.60556,168.50992c-0.6,-0.1 -1.2,0 -1.8,-0.3v0c-0.2,-0.1 -0.3,-0.3 -0.2,-0.5c0,-0.1 0,-0.2 0.1,-0.3c0.2,-0.4 0.9,-0.6 1.6,-0.5v0v0c0.2,0 0.5,0.1 0.7,0.2c0.2,0 0.3,0.1 0.4,0.2c0.2,0.2 0.3,0.5 0.2,0.7c0,0.1 -0.1,0.2 -0.2,0.3v0c-0.2,0.2 -0.5,0.2 -0.8,0.2z" fill="#001773"/><path d="M222.60556,168.50992v0c0.4,-0.6 1.2,-1.2 1.9,-0.8l0.1,0.1c0.1,0.2 0.2,0.4 0.1,0.6c-0.1,0.4 -0.6,0.6 -0.8,0.8c-0.1,0 -0.1,0.1 -0.1,0.1c0,0 0,0.1 0,0.2c0,0.1 0,0.1 0,0.2v0c0.6,-0.2 1.1,-0.7 1.7,-0.6c0,0 0.1,0.1 0.2,0.1c0.3,0.2 0.2,0.8 0.4,0.9c0.2,0.1 0.5,-0.3 0.7,-0.5c0.4,-0.5 0.4,-0.8 0.8,-0.9c0.2,-0.1 0.3,-0.1 0.5,0c0.1,0.1 0.2,0.1 0.2,0.2c0.1,0.1 0.2,0.1 0.2,0.2c0.2,0.3 0,0.7 -0.2,1.1c-0.1,0.1 -0.1,0.2 -0.2,0.3c-0.2,0.2 -0.3,0.4 -0.5,0.6c-0.5,0.3 -1.1,0.6 -1.7,0.5c-0.5,0 -0.9,-0.3 -1.2,-0.6c-0.7,0.2 -1.6,0.4 -2.2,-0.2c-0.6,-0.6 -0.4,-1.6 0.1,-2.3z" fill="#001773"/><path d="M233.70556,169.50992v0c-0.2,0.6 -0.6,1.1 -1.2,1.2c-0.1,0 -0.2,0 -0.3,0c-0.3,0 -0.7,-0.3 -0.9,-0.6v0c-0.4,-0.9 0.3,-1.8 1,-2.3c0.3,-0.2 0.8,-0.2 1.1,0c0.2,0.1 0.3,0.3 0.4,0.5c0.2,0.4 0.1,0.9 -0.1,1.2z" fill="#001773"/></g><g><g fill="#dbdbdb"><path d="M220.88553,139.49484l3.20447,-4.964c0.96134,-1.51078 2.88402,-1.83452 4.27262,-0.75539l33.006,27.62572c1.49542,1.18704 1.70905,3.3453 0.74771,4.964l-3.20447,4.964c-0.96134,1.51078 -2.88402,1.83452 -4.27262,0.75539l-33.006,-27.62572c-1.3886,-1.07913 -1.70905,-3.3453 -0.74771,-4.964z"/><path d="M259.01867,159.56665l-29.48109,-24.71207c-0.96134,-0.75539 -1.49542,-0.97122 -0.53408,-1.72661l16.66322,-3.23739v0c6.72938,-0.97122 15.59507,0.75539 20.18814,4.10069l10.04066,6.25895c1.60223,1.29496 0.64089,4.10069 -1.28179,3.66904l-2.24313,-0.64748c-1.06816,-0.10791 -2.0295,0.53956 -2.13631,1.61869l-8.43843,13.48912c-0.42726,1.51078 -1.81586,2.05035 -2.7772,1.18704z"/><path d="M274.07966,143.91928c0,-2.92034 2.05639,-5.28773 4.59307,-5.28773c2.53668,0 4.59307,2.3674 4.59307,5.28773c0,2.92034 -2.05639,5.28773 -4.59307,5.28773c-2.53668,0 -4.59307,-2.3674 -4.59307,-5.28773z"/><path d="M264.25263,155.25014l-0.96134,5.71939c-0.42726,2.58991 -2.88402,3.66904 -4.69988,2.26617l-27.87885,-21.58259c-1.81586,-1.40287 -3.73854,-7.33808 -1.92268,-8.74095l7.26346,-1.29496c1.3886,-0.32374 2.56357,-0.32374 3.52491,0.43165l23.60623,19.74807c0.85452,0.75539 1.3886,2.15826 1.06816,3.45321z"/><path d="M262.75722,165.28604l-0.85452,1.29496c-0.53408,0.75539 -1.49542,1.07913 -2.34994,0.43165l-35.35594,-29.35232c-0.74771,-0.64748 -0.96134,-1.94243 -0.42726,-2.69782l0.96134,-1.40287c0.53408,-0.75539 1.70905,-1.07913 2.34994,-0.43165l35.35594,29.56815c0.96134,0.43165 0.96134,1.72661 0.32045,2.58991z"/></g><g><path d="M221.63324,138.84737l3.20447,-4.964c0.96134,-1.51078 2.88402,-1.83452 4.27262,-0.75539l32.89918,27.62572c1.49542,1.18704 1.70905,3.3453 0.74771,4.964l-3.20447,4.964c-0.96134,1.51078 -2.88402,1.83452 -4.27262,0.75539l-33.006,-27.62572c-1.3886,-1.07913 -1.70905,-3.3453 -0.64089,-4.964z" fill="#ffffff"/><path d="M259.55275,158.81126l-29.48109,-24.71207c-0.96134,-0.75539 -1.49542,-0.97122 -0.53408,-1.72661l16.66322,-3.3453v0c6.72938,-0.97122 15.59507,0.8633 20.18814,4.10069l10.04066,6.36686c1.60223,1.29496 0.64089,4.10069 -1.28179,3.66904l-2.24313,-0.64748c-1.06816,-0.10791 -2.0295,0.53956 -2.13631,1.61869l-8.43843,13.48912c-0.21363,1.40287 -1.81586,2.05035 -2.7772,1.18704z" fill="#d41717"/><path d="M274.72056,143.16388c0,-2.92034 2.05639,-5.28773 4.59307,-5.28773c2.53668,0 4.59307,2.3674 4.59307,5.28773c0,2.92034 -2.05639,5.28773 -4.59307,5.28773c-2.53668,0 -4.59307,-2.3674 -4.59307,-5.28773z" fill="#ffffff"/><path d="M264.78671,154.60266l-0.96134,5.71939c-0.42726,2.58991 -2.88402,3.66904 -4.69988,2.26617l-27.87885,-21.58259c-1.81586,-1.40287 -3.73854,-7.33808 -1.92268,-8.74095l7.26346,-1.29496c1.3886,-0.32374 2.56357,-0.32374 3.52491,0.43165l23.60623,19.74807c1.06816,0.75539 1.60223,2.15826 1.06816,3.45321z" fill="#9e1313"/><path d="M263.50492,164.63856l-0.85452,1.18704c-0.53408,0.75539 -1.49542,1.07913 -2.34994,0.43165l-35.35594,-29.24441c-0.74771,-0.64748 -0.96134,-1.94243 -0.42726,-2.69782l0.96134,-1.40287c0.53408,-0.75539 1.70905,-1.07913 2.34994,-0.43165l35.35594,29.56815c0.85452,0.53956 0.85452,1.61869 0.32045,2.58991z" fill="#dbdbdb"/></g></g></g></g></svg>