<?xml version="1.0" encoding="utf-8"?>
<!-- Generator: Adobe Illustrator 23.0.0, SVG Export Plug-In . SVG Version: 6.00 Build 0)  -->
<svg version="1.0" id="图层_1" xmlns:vectornator="http://vectornator.io"
	 xmlns="http://www.w3.org/2000/svg" xmlns:xlink="http://www.w3.org/1999/xlink" x="0px" y="0px" viewBox="0 0 652.7 179.6"
	 style="enable-background:new 0 0 652.7 179.6;" xml:space="preserve">
<style type="text/css">
	.st0{fill:#FFFFFF;}
	.st1{fill:#FFFFFF;stroke:#FFFFFF;stroke-width:6;stroke-miterlimit:10;}
	.st2{fill:#FFFFFF;stroke:#FFFFFF;stroke-width:3;stroke-miterlimit:10;}
	.st3{fill-rule:evenodd;clip-rule:evenodd;fill:#FFFFFF;fill-opacity:0.6984;}
	.st4{fill-rule:evenodd;clip-rule:evenodd;fill:#FFFFFF;fill-opacity:0.9854;}
	.st5{fill-rule:evenodd;clip-rule:evenodd;fill:#FFFFFF;}
</style>
<path class="st0" d="M232.2,42c-27.9,0-50.6,23.1-50.6,51.6s22.6,51.6,50.6,51.6c14,0,26.6-5.8,35.8-15.1l-11.9-12.2
	c-6.1,6.2-14.5,10.1-23.8,10.1c-18.6,0-33.7-15.4-33.7-34.4s15.1-34.4,33.7-34.4c9.3,0,17.7,3.8,23.8,10.1L268,57.1
	C258.9,47.8,246.2,42,232.2,42z"/>
<path class="st0" d="M281.5,42h16.9l0,0v103.1l0,0h-16.9l0,0V42L281.5,42z"/>
<path class="st0" d="M320.3,42c-4.7,0-8.4,3.8-8.4,8.6s3.8,8.6,8.4,8.6c4.7,0,8.4-3.8,8.4-8.6S324.9,42,320.3,42z M311.8,76.4v68.8
	h16.9V76.4H311.8z"/>
<path class="st0" d="M342.2,76.4v34.4v68.8H359v-39c5,2.9,10.7,4.6,16.9,4.6c18.6,0,33.7-15.4,33.7-34.4s-15.1-34.4-33.7-34.4
	c-6.1,0-11.9,1.7-16.9,4.6v-4.6H342.2z M375.9,93.6c9.3,0,16.9,7.7,16.9,17.2s-7.5,17.2-16.9,17.2c-9.3,0-16.9-7.7-16.9-17.2
	S366.6,93.6,375.9,93.6z"/>
<g>
	<path class="st1" d="M588.4,59.9c7.4,8.8,11.1,20.2,11.1,34c0,13.7-3.7,25-11.1,33.8c-7.8,9.2-18.5,13.7-32,13.7
		c-13.4,0-24.1-4.6-31.9-13.7c-7.4-8.7-11.1-19.9-11.1-33.8c0-14,3.7-25.3,11.1-33.9c7.8-9.3,18.5-13.9,32-13.9
		C570,46.2,580.7,50.8,588.4,59.9z M532.1,66.5c-5.5,6.9-8.3,16.1-8.3,27.5c0,11.3,2.8,20.4,8.3,27.4c5.8,7.2,13.9,10.8,24.3,10.8
		c10.3,0,18.4-3.5,24.3-10.5c5.6-7,8.4-16.2,8.4-27.6c0-11.6-2.8-20.9-8.4-27.9c-5.8-7-13.9-10.5-24.2-10.5
		C546.1,55.6,538,59.2,532.1,66.5z"/>
</g>
<path class="st0" d="M472.2,42c-27.9,0-50.6,23.1-50.6,51.6s22.6,51.6,50.6,51.6c14,0,26.6-5.8,35.8-15.1L496,117.9
	c-6.1,6.2-14.5,10.1-23.8,10.1c-18.6,0-33.7-15.4-33.7-34.4s15.1-34.4,33.7-34.4c9.3,0,17.7,3.8,23.8,10.1l11.9-12.2
	C498.8,47.8,486.1,42,472.2,42z"/>
<g>
	<path class="st2" d="M643.1,89.4c2.9,2.7,4.3,6.1,4.3,10.4c0,4.2-1.6,8.1-4.7,11.6c-1.8,2-5.2,4.6-10,7.9
		c-6.1,4.2-9.6,7.9-10.5,11.3h25.3v5h-32.2c0-4.5,1.6-8.6,4.8-12.2c2.1-2.4,5.6-5.3,10.5-8.8c3.8-2.8,6.4-4.8,7.6-6.1
		c2.5-2.8,3.7-5.7,3.7-8.8c0-3-0.9-5.3-2.6-7c-1.8-1.7-4.2-2.5-7.4-2.5c-3.4,0-5.9,1.1-7.6,3.4c-1.9,2.3-2.9,5.5-3,9.9h-5.5
		c0-5.5,1.5-9.9,4.5-13.2c3-3.3,6.9-5,11.8-5C636.5,85.5,640.2,86.8,643.1,89.4z"/>
</g>
<g id="g6749" transform="matrix(2.120803,0.000000,0.000000,2.177683,-3.949279,-1.778658)">
	<path id="path852" class="st3" d="M2.8,75l53.6,0.2L56.6,53L38.4,63.8V53.2L20.1,63.8V53.4L2.8,63.8V75z"/>
	<path id="path853" class="st4" d="M61.8,75.4L74,75.2L69.2,29h-4.5L61.8,75.4z"/>
	<g id="g873" transform="matrix(0.398606,0.000000,0.000000,0.306917,-284.8704,-161.4006)">
		<path id="path857" class="st5" d="M813.5,559.3c0-17-21.9-30.8-48.9-30.8s-48.9,13.8-48.9,30.8s21.9,30.8,48.9,30.8
			S813.5,576.3,813.5,559.3z"/>
		<path id="path858" class="st5" d="M827.3,594.9c0-11.3-18.3-20.5-40.8-20.5s-40.8,9.2-40.8,20.5l0,0c0,11.3,18.3,20.5,40.8,20.5
			S827.3,606.2,827.3,594.9z"/>
		<path id="path859" class="st5" d="M845.8,581.5c0-10.1-13.4-18.3-30-18.3s-30,8.2-30,18.3s13.4,18.3,30,18.3
			S845.8,591.6,845.8,581.5z"/>
		<path id="path860" class="st5" d="M877.3,588.7c0-14.2-10.9-25.7-24.3-25.7s-24.3,11.5-24.3,25.7s10.9,25.7,24.3,25.7
			S877.3,602.9,877.3,588.7z"/>
		<path id="path861" class="st5" d="M892.3,594.3c0-10.6-5.8-19.2-13-19.2s-13,8.6-13,19.2s5.8,19.2,13,19.2
			S892.3,604.9,892.3,594.3z"/>
	</g>
</g>
</svg>
