<?xml version="1.0" encoding="utf-8"?>
<!-- Generator: Adobe Illustrator 15.0.0, SVG Export Plug-In . SVG Version: 6.00 Build 0)  -->
<!DOCTYPE svg PUBLIC "-//W3C//DTD SVG 1.0//EN" "http://www.w3.org/TR/2001/REC-SVG-20010904/DTD/svg10.dtd">
<svg version="1.0" id="图层_1" xmlns="http://www.w3.org/2000/svg" xmlns:xlink="http://www.w3.org/1999/xlink" x="0px" y="0px"
	 width="836px" height="908px" viewBox="0 0 836 908" enable-background="new 0 0 836 908" xml:space="preserve">
<g id="_x23_ffffffff">
</g>
<g>
	<circle fill="#FFFFFF" cx="253.357" cy="482.629" r="81.5"/>
	<g>
		<g id="_x23_4d90edff">
			<path fill="#4D90ED" d="M265.301,440.784c3.034-1.647,6.485-2.54,9.941-2.525c-1.371,2.016-2.669,4.082-3.962,6.148
				c-1.869,0.516-3.646,1.376-5.19,2.553c-1.254,0.928-2.283,2.11-3.398,3.191c-1.318,1.318-2.638,2.639-3.958,3.958
				c-2.346-0.123-4.649,0.706-6.619,1.932c-1.376,0.889-2.654,1.936-3.778,3.128c-1.515,1.449-2.81,3.105-4.057,4.787
				c-0.225,0.281-0.384,0.624-0.67,0.849c-0.221,0.066-0.455,0.044-0.681,0.044c-0.958-0.037-1.918,0.005-2.876-0.012
				c6.758-6.798,13.554-13.559,20.325-20.343C261.832,443.033,263.486,441.766,265.301,440.784z"/>
		</g>
		<g id="_x23_6ea4f0ff">
			<path fill="#6EA4F0" d="M271.28,444.406c1.293-2.066,2.591-4.132,3.962-6.148c4.004-0.029,8.011,1.133,11.375,3.307
				c3.229,2.075,5.878,5.05,7.543,8.51c1.779,3.673,2.441,7.875,1.89,11.917c-0.514,3.92-2.181,7.681-4.74,10.693
				c-1.622-0.995-3.241-1.99-4.858-2.992c2.647-2.79,4.177-6.603,4.172-10.45c0.034-3.892-1.5-7.766-4.192-10.577
				c-2.671-2.854-6.473-4.61-10.38-4.78C274.448,443.8,272.83,443.987,271.28,444.406z"/>
		</g>
		<g id="_x23_3d85ebff">
			<path fill="#3D85EB" d="M252.114,456.04c1.97-1.226,4.273-2.055,6.619-1.932c-3.753,3.771-7.53,7.518-11.278,11.293l-0.014-0.003
				c-0.853-0.257-1.747-0.3-2.624-0.42c-0.411-0.045-0.836-0.102-1.242,0.004c-0.289,0.291-0.489,0.655-0.727,0.986
				c-1.886,2.839-3.616,5.776-5.273,8.753c-0.162,0.3-0.341,0.598-0.403,0.939c-3.938,3.97-7.917,7.918-11.868,11.882
				c-0.322-0.227-0.513-0.578-0.754-0.877c-0.933-1.178-1.869-2.354-2.891-3.454c4.911-4.921,9.831-9.832,14.745-14.751
				c1.219-1.203,2.414-2.437,3.648-3.625c0.958,0.017,1.918-0.025,2.876,0.012c0.226,0,0.46,0.022,0.68-0.044
				c0.287-0.225,0.446-0.567,0.67-0.849c1.247-1.682,2.542-3.338,4.057-4.787C249.46,457.976,250.738,456.929,252.114,456.04z"/>
		</g>
		<g id="_x23_327feaff">
			<path fill="#327FEA" d="M243.575,464.982c0.405-0.105,0.831-0.049,1.242-0.004c0.877,0.12,1.772,0.163,2.624,0.42
				c-2.421,2.448-4.869,4.872-7.299,7.311c-0.993,0.98-1.961,1.986-2.969,2.952c0.062-0.342,0.241-0.64,0.403-0.939
				c1.657-2.977,3.388-5.914,5.273-8.753C243.087,465.638,243.286,465.273,243.575,464.982z"/>
			<path fill="#327FEA" d="M245.596,475.331c1.03-0.459,2.331-0.218,3.112,0.601c1.106,1.037,1.078,2.972-0.019,4.006
				c-5.133,5.129-10.261,10.262-15.396,15.391c-0.557,0.588-1.168,1.127-1.635,1.797c-1.055-1.653-2.111-3.303-3.171-4.953
				c2.272-2.34,4.608-4.619,6.906-6.935c2.827-2.828,5.655-5.654,8.482-8.483C244.414,476.243,244.888,475.621,245.596,475.331z"/>
		</g>
		<g id="_x23_5393edff">
			<path fill="#5393ED" d="M273.801,482.35c4.216-4.221,8.439-8.432,12.651-12.656c1.617,1.002,3.236,1.997,4.858,2.992
				c-0.584,0.731-1.276,1.362-1.929,2.026c-3.499,3.509-7.016,6.998-10.503,10.518l-0.013-0.009
				c-0.471-0.35-1.061-0.463-1.593-0.683c-0.659-0.171-1.29-0.487-1.982-0.486C274.761,483.513,274.291,482.924,273.801,482.35z"/>
			<path fill="#5393ED" d="M215.366,492.297c1.405-3.44,3.618-6.517,6.293-9.085c1.022,1.1,1.958,2.276,2.891,3.454
				c0.241,0.299,0.432,0.65,0.754,0.877c-3.025,2.901-5.151,6.738-5.958,10.854c-0.045,0.012-0.135,0.033-0.181,0.045
				c-1.092-1.318-2.005-2.776-2.821-4.28C216.006,493.547,215.73,492.898,215.366,492.297z"/>
		</g>
		<g id="_x23_3581eaff">
			<path fill="#3581EA" d="M246.181,509.952c9.213-9.19,18.403-18.412,27.62-27.603c0.49,0.574,0.961,1.163,1.489,1.702
				c0.362,0.524,0.808,0.982,1.183,1.497c0.294,0.401,0.671,0.751,0.855,1.225c-9.022,9.018-18.038,18.04-27.06,27.056
				c-1.351,1.257-2.925,2.279-4.639,2.962c-1.503-1.325-2.784-2.879-4.046-4.43C243.294,511.984,244.901,511.149,246.181,509.952z"
				/>
			<path fill="#3581EA" d="M270.378,501.537c0.675-0.67,1.714-0.965,2.636-0.717c0.797,0.178,1.491,0.74,1.853,1.47
				c0.528,1.04,0.328,2.4-0.495,3.234c-2.668,2.682-5.349,5.352-8.022,8.026c-0.714,0.703-1.403,1.431-2.137,2.111
				c-0.529,0.113-0.945,0.482-1.406,0.744c-1.203,0.732-2.405,1.47-3.632,2.16c-2.048,1.242-4.498,2.001-6.903,1.646
				c-0.303-0.038-0.633-0.052-0.876-0.261c1.43-0.951,2.712-2.098,3.9-3.333C260.324,511.592,265.352,506.566,270.378,501.537z"/>
		</g>
		<g id="_x23_4188ebff">
			<path fill="#4188EB" d="M275.29,484.052c0.692-0.001,1.323,0.316,1.982,0.486c0.532,0.22,1.123,0.333,1.593,0.683
				c-0.501,0.529-1.03,1.028-1.537,1.553c-0.184-0.476-0.561-0.823-0.855-1.225C276.097,485.034,275.652,484.576,275.29,484.052z"/>
		</g>
		<g id="_x23_4188ecff">
			<path fill="#4188EC" d="M227.196,493.804c0.394-0.572,0.843-1.103,1.292-1.632c1.06,1.65,2.116,3.3,3.171,4.953
				c-1.059,1.446-1.671,3.186-1.843,4.964c-0.926,0.286-1.862,0.577-2.837,0.62c-0.817,0.059-1.625-0.107-2.42-0.274
				c-0.015,0.31-0.045,0.618-0.076,0.928C224.271,499.991,225.268,496.572,227.196,493.804z"/>
		</g>
		<g id="_x23_78aaf1ff">
			<path fill="#78AAF1" d="M215.188,512.416c-2.568-6.388-2.514-13.781,0.178-20.119c0.364,0.602,0.639,1.25,0.977,1.864
				c0.816,1.504,1.729,2.962,2.821,4.28c0.046-0.012,0.136-0.033,0.181-0.045c-0.629,2.918-0.561,5.975,0.102,8.881
				c-0.993,1.427-2.08,2.786-3.235,4.083C215.896,511.736,215.553,512.088,215.188,512.416z"/>
		</g>
		<g id="_x23_5a97eeff">
			<path fill="#5A97EE" d="M226.978,502.709c0.975-0.043,1.912-0.334,2.837-0.62c-0.034,0.839-0.013,1.681,0.142,2.51
				c-0.174,0.195-0.341,0.401-0.472,0.631c-0.604,1.034-1.248,2.046-1.764,3.126c-0.151,0.309-0.326,0.623-0.324,0.976
				c-0.018,0.751,0.028,1.5-0.028,2.249c-1.731-2.38-2.762-5.276-2.888-8.218c0.031-0.31,0.061-0.618,0.076-0.928
				C225.353,502.602,226.161,502.768,226.978,502.709z"/>
			<path fill="#5A97EE" d="M216.213,511.36c1.155-1.297,2.242-2.656,3.235-4.083c1.109,4.831,4.002,9.222,8.012,12.134l-0.001,0.012
				c-0.115,0.662-0.045,1.335-0.06,2.004c-0.015,1.523,0.027,3.048-0.021,4.572c-5.489-2.907-9.906-7.802-12.188-13.583
				C215.553,512.088,215.896,511.736,216.213,511.36z"/>
		</g>
		<g id="_x23_468becff">
			<path fill="#468BEC" d="M229.485,505.229c0.131-0.229,0.297-0.436,0.472-0.631c0.343,1.79,1.174,3.489,2.418,4.826
				c2.266,2.512,5.904,3.681,9.208,2.937c1.263,1.551,2.543,3.104,4.046,4.43c-3.349,1.38-7.189,1.513-10.628,0.371
				c-3.049-0.989-5.762-2.979-7.632-5.582c0.057-0.749,0.011-1.498,0.028-2.249c-0.001-0.353,0.173-0.667,0.324-0.976
				C228.238,507.275,228.881,506.264,229.485,505.229z"/>
			<path fill="#468BEC" d="M262.808,516.406c0.46-0.262,0.876-0.631,1.406-0.744c-1.215,1.265-2.478,2.485-3.711,3.732
				c-1.377,1.366-2.711,2.784-4.246,3.981c-3.109,2.474-6.792,4.224-10.674,5.077c-6.103,1.365-12.687,0.503-18.206-2.454
				c0.049-1.524,0.006-3.049,0.022-4.574c0.014-0.667-0.055-1.34,0.059-2.002c3.218,2.352,7.112,3.771,11.095,3.998
				c4.504,0.286,9.096-0.952,12.844-3.471c0.243,0.211,0.573,0.225,0.876,0.263c2.406,0.354,4.855-0.404,6.903-1.646
				C260.403,517.876,261.605,517.139,262.808,516.406z"/>
		</g>
	</g>
	<g>
		<path fill="#FFFFFF" d="M354.98,465.722l21.919-21.919h27.398v32.879h-16.439v-16.439h-16.439v49.317h32.878v16.439H354.98
			V465.722z"/>
		<path fill="#FFFFFF" d="M423.479,435.583h5.479v90.416h-16.439v-79.456L423.479,435.583z"/>
		<path fill="#FFFFFF" d="M453.617,435.583v16.439h-16.439v-16.439H453.617z M453.617,460.242v65.757h-16.439v-65.757H453.617z"/>
		<path fill="#FFFFFF" d="M511.156,460.242v43.838l-21.919,21.919h-10.96v16.439h-16.439v-60.277l21.919-21.919H511.156z
			 M478.277,509.56h16.439v-32.878h-16.439V509.56z"/>
		<path fill="#FFFFFF" d="M519.377,465.722l21.919-21.919h27.398v32.879h-16.439v-16.439h-16.438v49.317h32.878v16.439h-49.317
			V465.722z"/>
		<path fill="#FFFFFF" d="M576.917,465.722l21.919-21.919h27.398v32.879h-16.438v-16.439h-16.439v49.317h32.878v16.439h-49.317
			V465.722z"/>
	</g>
</g>
</svg>
