<?xml version="1.0" encoding="utf-8"?>
<!-- Generator: Adobe Illustrator 15.0.0, SVG Export Plug-In . SVG Version: 6.00 Build 0)  -->
<!DOCTYPE svg PUBLIC "-//W3C//DTD SVG 1.1//EN" "http://www.w3.org/Graphics/SVG/1.1/DTD/svg11.dtd">
<svg version="1.1" id="图层_1" xmlns="http://www.w3.org/2000/svg" xmlns:xlink="http://www.w3.org/1999/xlink" x="0px" y="0px"
	 width="510.688px" height="163px" viewBox="0 0 510.688 163" enable-background="new 0 0 510.688 163" xml:space="preserve">
<g id="_x23_ffffffff">
</g>
<circle fill="#FFFFFF" cx="82.367" cy="81.5" r="81.5"/>
<g>
	<g id="_x23_4d90edff">
		<path fill="#4D90ED" d="M94.311,39.655c3.034-1.647,6.485-2.54,9.941-2.525c-1.371,2.018-2.669,4.082-3.962,6.148
			c-1.869,0.516-3.646,1.376-5.19,2.553c-1.254,0.928-2.282,2.11-3.397,3.191c-1.318,1.316-2.639,2.639-3.959,3.958
			c-2.346-0.123-4.648,0.706-6.618,1.932c-1.376,0.889-2.654,1.938-3.778,3.128c-1.516,1.449-2.811,3.105-4.057,4.787
			c-0.225,0.281-0.385,0.624-0.67,0.849c-0.221,0.066-0.455,0.044-0.682,0.044c-0.957-0.035-1.918,0.007-2.876-0.012
			c6.759-6.798,13.554-13.559,20.325-20.343C90.842,41.904,92.496,40.637,94.311,39.655z"/>
	</g>
	<g id="_x23_6ea4f0ff">
		<path fill="#6EA4F0" d="M100.291,43.277c1.293-2.066,2.591-4.132,3.962-6.148c4.004-0.028,8.011,1.133,11.375,3.309
			c3.229,2.073,5.878,5.05,7.543,8.51c1.778,3.673,2.44,7.875,1.89,11.917c-0.514,3.92-2.181,7.681-4.74,10.691
			c-1.621-0.993-3.24-1.988-4.857-2.99c2.646-2.79,4.177-6.604,4.172-10.45c0.034-3.894-1.5-7.768-4.191-10.577
			c-2.672-2.854-6.474-4.61-10.381-4.78C103.458,42.671,101.84,42.858,100.291,43.277z"/>
	</g>
	<g id="_x23_3d85ebff">
		<path fill="#3D85EB" d="M81.125,54.911c1.97-1.226,4.273-2.055,6.619-1.932c-3.754,3.771-7.53,7.518-11.278,11.293l-0.015-0.003
			c-0.853-0.259-1.746-0.302-2.623-0.422c-0.411-0.045-0.836-0.102-1.242,0.006c-0.289,0.291-0.489,0.653-0.727,0.984
			c-1.887,2.839-3.617,5.776-5.273,8.753c-0.162,0.3-0.342,0.6-0.403,0.939c-3.938,3.97-7.917,7.918-11.868,11.882
			c-0.322-0.228-0.513-0.578-0.754-0.877c-0.933-1.179-1.869-2.354-2.891-3.454c4.91-4.92,9.83-9.831,14.744-14.75
			c1.22-1.203,2.414-2.438,3.648-3.625c0.958,0.017,1.918-0.025,2.877,0.012c0.225,0,0.459,0.022,0.68-0.044
			c0.287-0.225,0.445-0.565,0.67-0.849c1.246-1.684,2.541-3.338,4.057-4.787C78.47,56.847,79.748,55.8,81.125,54.911z"/>
	</g>
	<g id="_x23_327feaff">
		<path fill="#327FEA" d="M72.585,63.854c0.404-0.105,0.83-0.051,1.242-0.006c0.877,0.12,1.771,0.163,2.623,0.422
			c-2.42,2.446-4.869,4.871-7.299,7.311c-0.992,0.98-1.961,1.986-2.969,2.952c0.063-0.342,0.241-0.642,0.403-0.939
			c1.657-2.977,3.388-5.914,5.272-8.753C72.097,64.509,72.296,64.145,72.585,63.854z"/>
		<path fill="#327FEA" d="M74.607,74.202c1.029-0.459,2.33-0.218,3.111,0.601c1.105,1.037,1.078,2.974-0.02,4.008
			c-5.133,5.128-10.26,10.262-15.396,15.391c-0.558,0.588-1.168,1.127-1.635,1.797c-1.056-1.653-2.111-3.304-3.171-4.953
			c2.271-2.34,4.607-4.619,6.906-6.935c2.826-2.828,5.654-5.654,8.481-8.483C73.424,75.114,73.898,74.492,74.607,74.202z"/>
	</g>
	<g id="_x23_5393edff">
		<path fill="#5393ED" d="M102.811,81.221c4.216-4.221,8.439-8.432,12.651-12.654c1.617,1.002,3.236,1.997,4.857,2.99
			c-0.584,0.731-1.275,1.362-1.929,2.026c-3.499,3.509-7.016,6.998-10.503,10.521l-0.013-0.012c-0.472-0.35-1.062-0.463-1.593-0.683
			c-0.659-0.171-1.291-0.487-1.982-0.486C103.771,82.384,103.301,81.795,102.811,81.221z"/>
		<path fill="#5393ED" d="M44.376,91.168c1.405-3.438,3.618-6.518,6.293-9.085c1.022,1.101,1.958,2.276,2.891,3.454
			c0.241,0.299,0.432,0.65,0.754,0.877c-3.025,2.9-5.151,6.738-5.958,10.854c-0.045,0.015-0.135,0.031-0.181,0.045
			c-1.092-1.315-2.005-2.773-2.821-4.277C45.016,92.418,44.74,91.77,44.376,91.168z"/>
	</g>
	<g id="_x23_3581eaff">
		<path fill="#3581EA" d="M75.191,108.823c9.213-9.19,18.403-18.412,27.62-27.604c0.49,0.574,0.962,1.163,1.489,1.702
			c0.361,0.524,0.809,0.981,1.184,1.497c0.293,0.4,0.67,0.751,0.854,1.227c-9.022,9.021-18.038,18.041-27.06,27.059
			c-1.352,1.257-2.926,2.277-4.64,2.962c-1.503-1.325-2.784-2.879-4.046-4.433C72.304,110.855,73.912,110.021,75.191,108.823z"/>
		<path fill="#3581EA" d="M99.388,100.408c0.675-0.67,1.714-0.965,2.637-0.717c0.797,0.178,1.49,0.738,1.853,1.47
			c0.528,1.04,0.327,2.399-0.495,3.233c-2.668,2.683-5.35,5.353-8.021,8.022c-0.715,0.703-1.404,1.435-2.138,2.11
			c-0.528,0.111-0.944,0.479-1.405,0.742c-1.203,0.73-2.406,1.473-3.633,2.16c-2.048,1.24-4.498,2.002-6.902,1.646
			c-0.304-0.038-0.633-0.053-0.877-0.262c1.431-0.95,2.713-2.102,3.9-3.332C89.334,110.463,94.363,105.438,99.388,100.408z"/>
	</g>
	<g id="_x23_4188ebff">
		<path fill="#4188EB" d="M104.3,82.923c0.691-0.001,1.322,0.316,1.982,0.486c0.531,0.22,1.123,0.333,1.593,0.683
			c-0.501,0.529-1.03,1.028-1.537,1.555c-0.185-0.478-0.562-0.82-0.854-1.227C105.107,83.905,104.662,83.447,104.3,82.923z"/>
	</g>
	<g id="_x23_4188ecff">
		<path fill="#4188EC" d="M56.206,92.675c0.394-0.569,0.843-1.103,1.292-1.632c1.061,1.65,2.117,3.3,3.172,4.953
			c-1.059,1.445-1.672,3.186-1.844,4.964c-0.926,0.286-1.861,0.577-2.836,0.62c-0.817,0.059-1.625-0.107-2.42-0.273
			c-0.015,0.313-0.045,0.617-0.076,0.93C53.281,98.861,54.278,95.443,56.206,92.675z"/>
	</g>
	<g id="_x23_78aaf1ff">
		<path fill="#78AAF1" d="M44.198,111.287c-2.568-6.389-2.514-13.781,0.178-20.119c0.364,0.604,0.639,1.25,0.977,1.864
			c0.816,1.504,1.729,2.962,2.821,4.28c0.046-0.017,0.136-0.033,0.181-0.045c-0.629,2.918-0.561,5.975,0.102,8.881
			c-0.993,1.427-2.08,2.785-3.235,4.082C44.906,110.607,44.563,110.959,44.198,111.287z"/>
	</g>
	<g id="_x23_5a97eeff">
		<path fill="#5A97EE" d="M55.988,101.58c0.975-0.043,1.912-0.334,2.837-0.62c-0.034,0.839-0.014,1.683,0.142,2.51
			c-0.174,0.195-0.341,0.401-0.472,0.634c-0.604,1.031-1.248,2.045-1.764,3.125c-0.152,0.312-0.327,0.623-0.325,0.979
			c-0.018,0.751,0.028,1.5-0.028,2.249c-1.731-2.38-2.762-5.274-2.888-8.22c0.031-0.313,0.061-0.616,0.076-0.93
			C54.363,101.473,55.171,101.639,55.988,101.58z"/>
		<path fill="#5A97EE" d="M45.223,110.23c1.155-1.297,2.242-2.655,3.235-4.082c1.109,4.83,4.002,9.222,8.012,12.134l-0.001,0.012
			c-0.115,0.662-0.045,1.335-0.06,2.004c-0.015,1.522,0.027,3.048-0.021,4.572c-5.489-2.907-9.906-7.802-12.188-13.583
			C44.563,110.959,44.906,110.607,45.223,110.23z"/>
	</g>
	<g id="_x23_468becff">
		<path fill="#468BEC" d="M58.496,104.102c0.131-0.229,0.297-0.438,0.472-0.634c0.343,1.79,1.174,3.489,2.418,4.826
			c2.267,2.513,5.903,3.683,9.208,2.938c1.264,1.551,2.543,3.104,4.046,4.43c-3.349,1.38-7.188,1.513-10.628,0.371
			c-3.049-0.989-5.762-2.979-7.632-5.582c0.057-0.749,0.011-1.498,0.028-2.249c-0.001-0.354,0.173-0.667,0.325-0.978
			C57.248,106.146,57.891,105.135,58.496,104.102z"/>
		<path fill="#468BEC" d="M91.818,115.277c0.461-0.264,0.877-0.631,1.406-0.744c-1.215,1.265-2.479,2.484-3.711,3.73
			c-1.377,1.363-2.711,2.781-4.246,3.979c-3.109,2.474-6.792,4.224-10.674,5.074c-6.104,1.365-12.688,0.506-18.206-2.451
			c0.049-1.524,0.006-3.051,0.022-4.574c0.014-0.667-0.055-1.34,0.059-2.002c3.219,2.354,7.111,3.771,11.096,3.998
			c4.504,0.286,9.096-0.952,12.844-3.473c0.242,0.211,0.572,0.227,0.875,0.265c2.406,0.354,4.855-0.404,6.903-1.646
			C89.414,116.747,90.615,116.01,91.818,115.277z"/>
	</g>
</g>
<g>
	<path fill="#FFFFFF" d="M191.17,58.704l23.602-23.602h29.498v35.403h-17.698V52.806h-17.701v53.1h35.401v17.701H191.17V58.704
		L191.17,58.704z"/>
	<path fill="#FFFFFF" d="M264.926,26.252h5.899v97.355h-17.702V38.053L264.926,26.252z"/>
	<path fill="#FFFFFF" d="M297.378,26.252v17.701h-17.701V26.252H297.378z M297.378,52.804v70.805h-17.701V52.804H297.378z"/>
	<path fill="#FFFFFF" d="M359.334,52.804v47.203l-23.603,23.603H323.93v17.699h-17.701V76.405l23.602-23.604h29.504V52.804
		L359.334,52.804z M323.932,105.908h17.698V70.505h-17.698V105.908z"/>
	<path fill="#FFFFFF" d="M368.186,58.704l23.603-23.602h29.501v35.403h-17.701V52.806h-17.699v53.1h35.402v17.701h-53.104V58.704
		H368.186z"/>
	<path fill="#FFFFFF" d="M430.141,58.704l23.604-23.602h29.502v35.403h-17.701V52.806h-17.699v53.1h35.402v17.701h-53.104
		L430.141,58.704L430.141,58.704z"/>
</g>
</svg>
