<?xml version="1.0" encoding="utf-8"?>
<!-- Generator: Adobe Illustrator 23.0.0, SVG Export Plug-In . SVG Version: 6.00 Build 0)  -->
<svg version="1.1" id="图层_1" xmlns:vectornator="http://vectornator.io"
	 xmlns="http://www.w3.org/2000/svg" xmlns:xlink="http://www.w3.org/1999/xlink" x="0px" y="0px" viewBox="0 0 718 148.1"
	 style="enable-background:new 0 0 718 148.1;" xml:space="preserve">
<style type="text/css">
	.st0{fill:#FFFFFF;}
	.st1{fill:none;}
	.st2{fill:#FFFFFF;stroke:#FFFFFF;stroke-width:4;stroke-miterlimit:10;}
	.st3{fill:#FFFFFF;stroke:#FFFFFF;stroke-width:2;stroke-miterlimit:10;}
</style>
<g>
	<path class="st0" d="M250.8,25c-25.5,0-46.2,20.7-46.2,46.2s20.7,46.2,46.2,46.2c12.7,0,24.3-5.2,32.6-13.5l-10.9-10.9
		c-5.6,5.6-13.3,9-21.8,9c-17,0-30.8-13.8-30.8-30.8s13.8-30.8,30.8-30.8c8.5,0,16.2,3.4,21.8,9l10.9-10.9
		C275.1,30.2,263.5,25,250.8,25z"/>
	<path class="st0" d="M295.7,25h15.4l0,0v92.3l0,0h-15.4l0,0V25L295.7,25z"/>
	<path class="st0" d="M331.1,25c-4.2,0-7.7,3.4-7.7,7.7s3.4,7.7,7.7,7.7c4.2,0,7.7-3.4,7.7-7.7S335.4,25,331.1,25z M323.4,55.8v61.5
		h15.4V55.8H323.4z"/>
	<path class="st0" d="M351.1,55.8v30.8v61.5h15.4v-34.9c4.5,2.6,9.8,4.2,15.4,4.2c17,0,30.8-13.8,30.8-30.8s-13.8-30.8-30.8-30.8
		c-5.6,0-10.9,1.5-15.4,4.2v-4.2H351.1z M381.9,71.2c8.5,0,15.4,6.9,15.4,15.4s-6.9,15.4-15.4,15.4c-8.5,0-15.4-6.9-15.4-15.4
		S373.4,71.2,381.9,71.2z"/>
	<path class="st0" d="M471.2,25C445.7,25,425,45.7,425,71.2s20.7,46.2,46.2,46.2c12.7,0,24.3-5.2,32.6-13.5l-10.9-10.9
		c-5.6,5.6-13.3,9-21.8,9c-17,0-30.8-13.8-30.8-30.8s13.8-30.8,30.8-30.8c8.5,0,16.2,3.4,21.8,9l10.9-10.9
		C495.4,30.2,483.9,25,471.2,25z"/>
	<path class="st0" d="M562.3,25c-25.5,0-46.2,20.7-46.2,46.2s20.7,46.2,46.2,46.2c12.7,0,24.3-5.2,32.6-13.5L584,92.9
		c-5.6,5.6-13.3,9-21.8,9c-17,0-30.8-13.8-30.8-30.8s13.8-30.8,30.8-30.8c8.5,0,16.2,3.4,21.8,9l10.9-10.9
		C586.6,30.2,575,25,562.3,25z"/>
</g>
<g>
	<rect x="603" y="12.7" class="st1" width="164" height="179.2"/>
	<path class="st2" d="M614.7,30.3l19,72.5h0.5l19.7-72.5h10.8l19.6,72.5h0.5l19-72.5h11.1l-24.8,86.4h-11l-19.6-72h-0.4l-19.7,72
		h-11l-24.8-86.4H614.7z"/>
</g>
<path class="st3" d="M124.6,44.2c-6.7-6.7-17.5-6.7-24.2-0.1l0,0L72.8,71.6c-8.9,8.9-8.9,23.3,0,32.3c8.9,8.9,23.3,8.9,32.3,0
	l7.9-7.9c1.1-1.1,1.1-2.8,0-3.9s-2.8-1.1-3.9,0l-7.9,7.9c-6.7,6.7-17.7,6.7-24.4,0c-6.7-6.7-6.7-17.7,0-24.4L104.3,48l0,0
	c4.6-4.4,11.9-4.4,16.4,0.1c4.5,4.5,4.6,11.8,0.1,16.4L93.3,92c-2.4,2.4-6.3,2.4-8.7,0c-2.4-2.4-2.4-6.3,0-8.7l7.9-7.9
	c1.1-1.1,1.1-2.8,0-3.9s-2.8-1.1-3.9,0l-7.9,7.9c-4.6,4.6-4.6,12,0,16.5c4.6,4.6,12,4.6,16.5,0l27.5-27.5
	C131.3,61.7,131.3,50.9,124.6,44.2z"/>
<g>
	<path class="st0" d="M55.2,0h29.5c9.7,1.1,15.3,14.4,8.1,21.5c-8.4,8.9-23.6-1.5-31.1,9C54.2,42.8,47,55.4,39.7,67.9
		C37,71.7,36.8,77,39.2,81c7.4,12.5,14.6,25,22,37.4c2.2,3.6,6.1,5.9,10.4,5.8c14.7,0,29.4,0,44.1,0c2.8,0.1,5.5-1.1,7.7-2.9
		c4.9-4.6,6.6-11.7,11.3-16.4c5.4-5,15.1-3.7,18.8,2.7c2.6,3.7,3.3,8.9,1,12.9c-4.3,7.7-8.9,15.2-13.3,22.8
		c-1.9,3.5-5.4,5.6-9.2,6.3H55.3c-3.8-0.7-7.5-2.8-9.3-6.3C34.1,123.3,22.4,103.1,10.5,83c-1.2-1.9-2.1-3.9-2.8-6.1v-3.2
		c0.3-2.3,1.2-4.4,2.4-6.3C22,47.1,33.9,26.7,46,6.3C47.8,2.8,51.4,0.7,55.2,0z"/>
	<path class="st0" d="M127.4,0h4.4c3.9,0.7,7.6,2.8,9.4,6.4c12.2,20.6,24.2,41.2,36.3,61.8c3.1,4.5,2.4,10.7-1,14.8
		c-4.9,6.8-16.6,6.2-20.7-1.2c-12.5-21.3-25.1-42.6-37.5-64C114.2,10.8,119.5,1.3,127.4,0z"/>
</g>
</svg>
