<svg width="760.134323px" height="596.13674px" viewBox="0 0 760.134323 596.13674" version="1.1" xmlns="http://www.w3.org/2000/svg" xmlns:xlink="http://www.w3.org/1999/xlink">
    <g id="页面-1" stroke="none" stroke-width="1" fill="none" fill-rule="evenodd">
        <g id="ClipCC-uwu" fill-rule="nonzero">
            <path d="M755.020857,309.22864 C747.512057,288.93224 732.574557,272.71694 712.959357,263.56894 C704.543757,259.64544 695.684257,257.22844 686.702857,256.31064 C686.761057,256.12344 686.827957,255.94134 686.885157,255.75354 C692.214257,255.74284 700.513057,254.82584 708.533557,249.59924 C718.740557,243.19734 725.268957,232.13044 726.520857,219.01134 L726.563857,218.52304 C727.541357,206.13634 728.514057,193.74914 729.487657,181.36194 C730.973057,162.44984 732.457357,143.53774 733.961257,124.62654 L734.004257,124.00444 C734.033557,123.50244 734.083357,122.99854 734.128257,122.49324 C734.468057,118.66654 735.038457,112.26224 733.250357,104.86674 L732.898757,103.41264 L732.404657,102.00104 C729.226057,92.92584 723.010657,85.57464 715.155857,80.91704 C715.405157,78.91554 715.474457,76.87894 715.330457,74.82674 L714.334357,60.57384 C713.708357,51.58114 709.233757,43.23794 702.057057,37.68424 C695.824657,32.86104 688.100057,30.50304 680.340257,31.04604 L632.105657,34.34754 C628.413957,29.72664 623.551057,26.29534 618.127057,24.33734 C612.446057,13.57894 601.702657,8.29053997 597.512157,6.23163997 C584.718257,-0.0544600314 577.796357,-0.354760031 572.733857,0.178939969 C565.391057,0.947939969 558.791457,4.10223997 553.116657,9.55393997 L545.112757,17.60374 C542.712857,19.97214 540.761757,22.66534 539.278057,25.57474 L537.129357,26.75854 C533.399957,28.74404 530.211557,31.44264 527.653357,34.61654 L502.496557,26.64384 C498.547257,25.39974 494.535257,24.97314 490.638257,25.25224 C487.055057,22.64284 482.980057,20.83854 478.705157,19.90644 C471.723557,9.67103997 460.143257,5.63793997 455.652857,4.07693997 C442.025857,-0.660360031 435.076657,-0.120360031 430.074757,1.03343997 C422.869657,2.69703997 416.689057,6.64473997 411.705657,12.76784 L404.565057,21.96164 C403.967057,22.71684 403.418057,23.49864 402.898157,24.29474 C401.142357,24.06624 399.356257,23.93574 397.539257,23.93574 C386.033257,23.93574 375.614857,28.66704 368.115057,36.28094 L342.586157,38.44204 L342.123757,38.48454 C340.309757,38.66644 338.549157,39.00454 336.846557,39.47054 L326.347857,35.88444 L324.945557,35.55144 C323.664357,35.24724 319.764857,34.31954 314.676557,34.76184 C313.437757,34.87074 312.217557,35.04944 311.021257,35.29404 C307.325957,34.29204 303.411857,33.93024 299.431457,34.27744 C298.010057,34.40344 295.996857,34.64214 293.596057,35.28234 L282.853857,37.83264 C281.253457,38.19604 279.711257,38.68624 278.227457,39.27914 C273.014757,33.91624 265.885257,30.41394 257.648757,29.63884 L245.136057,28.40104 L244.793757,28.36884 C240.503357,27.99644 236.232757,28.49504 232.221757,29.76324 C231.131157,29.56084 230.026757,29.39004 228.894257,29.29074 L215.566157,28.19744 C209.358657,27.67224 204.240357,28.79494 200.264557,30.39244 C192.442757,25.73294 182.966857,23.79834 173.429457,25.60564 L160.612057,28.00454 C151.907957,24.04414 143.961157,25.07974 139.498757,26.27654 C132.847357,28.05774 126.866457,32.01234 122.533957,37.46794 C118.154057,42.80244 113.588657,47.27894 110.284957,49.47424 C98.8865574,57.04304 93.5871574,70.89904 97.0915574,83.97714 C98.6750574,89.89904 101.971457,95.25694 106.639857,99.50834 L114.145757,106.47904 C112.620957,111.58534 112.412557,116.96224 113.574357,122.21954 C108.767857,125.88174 104.226857,129.81144 99.9953574,134.00834 C62.3669574,171.32964 57.8620574,217.95414 60.7092574,250.49564 C61.6711574,261.49364 63.7253574,272.08254 66.8532574,282.21004 C61.2678574,279.95414 52.7707574,277.75304 42.8200574,280.24084 C41.3346574,280.58504 39.8410574,280.90054 38.3473574,281.21744 C34.6613574,281.99964 30.4840574,282.88634 26.0929574,284.16954 L25.1740574,284.45474 C7.01785744,290.39954 -3.56764256,310.01524 1.10085744,328.60804 C8.66675744,362.47864 16.2160574,396.35174 23.7658574,430.22674 C29.4035574,455.52364 35.0412574,480.81954 40.6857574,506.11344 L40.8239574,506.70624 C40.8635574,506.88784 40.8986574,507.07344 40.9357574,507.25894 C41.6549574,510.85564 43.3273574,519.22184 49.9904574,526.83604 C58.7179574,536.89754 72.4299574,541.32724 85.9753574,538.46304 C88.4338574,537.96984 90.7458574,537.44444 92.9836574,536.93084 C96.1403574,538.99624 100.260057,541.56564 105.390357,543.60374 C116.104257,547.89084 125.522657,545.76094 129.175957,544.93574 C133.394757,543.96794 137.619757,543.03044 141.844857,542.09194 C144.453257,541.51384 147.061657,540.93474 149.668557,540.34874 C166.127057,536.80874 173.847757,524.17004 177.045957,518.47764 C177.119157,518.36044 177.192457,518.24424 177.265657,518.12804 L193.354557,514.54304 C203.535757,538.93264 220.725657,559.29894 243.258357,573.24324 C263.728557,585.91124 287.052257,592.44634 310.882857,592.44634 C320.025957,592.44634 329.245157,591.48344 338.404357,589.53714 C363.389557,584.22674 386.488357,571.59274 405.773257,553.02394 C427.732257,577.57394 457.872557,592.67694 490.939957,595.62604 C494.760257,595.96784 498.586457,596.13674 502.414557,596.13674 C536.074757,596.13674 569.716357,583.05174 598.255357,558.63474 C604.614757,553.19324 608.256057,547.36444 610.311657,542.03724 C621.456357,546.17464 632.958357,548.15514 644.321757,548.15434 C681.381357,548.15334 716.938957,527.11824 733.606957,491.37504 L747.699757,461.15234 C755.911657,443.53324 749.530857,422.78414 733.544457,412.61714 L752.705557,371.52434 L752.857857,371.19234 C761.749457,351.49994 762.518057,329.49414 755.020957,309.22844 L755.020857,309.22864 Z" id="路径" fill="#FFFFFF"></path>
            <g id="编组" transform="translate(29.8114, 88.2047)">
                <path d="M4.52439636,225.181078 C9.59129636,223.700178 14.8285964,222.804378 19.9700964,221.598478 C22.9091964,220.804078 25.7900964,222.216778 28.3374964,223.531478 C32.2934964,225.811578 35.9593964,228.573978 39.9595964,230.784478 C42.4024964,232.195378 45.3306964,231.946978 47.9780964,231.389978 C54.5212964,229.957778 61.0537964,228.448478 67.6010964,227.035278 C70.4954964,226.396678 73.5488964,225.430878 75.5443964,223.109978 C78.9444964,218.613278 81.2921964,213.350278 84.9861964,209.073078 C86.3527964,207.588478 88.0196964,206.262278 90.0769964,205.942878 C158.292096,190.755378 226.502296,175.542478 294.716596,160.322078 C297.098196,159.731478 299.872896,160.133778 301.627996,161.969778 C303.676996,163.813178 303.968496,166.698078 304.551896,169.226278 C309.815996,193.017178 315.169696,216.794678 320.433696,240.585078 C321.521596,244.068678 319.649196,248.635778 315.928096,249.491778 C258.865196,262.179978 201.821696,274.929778 144.761596,287.630578 C141.368896,288.267178 137.802396,289.042478 135.143396,291.392278 C131.496396,295.313878 129.019096,300.115778 126.084996,304.561178 C125.884296,304.861078 125.679596,305.160978 125.468196,305.457478 C124.074996,307.407778 121.964396,308.695678 119.615996,309.179578 C118.997196,309.307578 118.375596,309.426378 117.767096,309.571078 C110.820796,311.099778 103.887096,312.652178 96.9506964,314.224978 C95.7491964,314.545678 94.4660964,314.560078 93.2935964,314.118878 C89.6637964,312.826778 86.6390964,310.352078 83.3491964,308.413678 C80.8341964,306.946578 78.5367964,304.939678 75.6549964,304.236378 C72.9705964,303.853978 70.3071964,304.606278 67.7082964,305.172378 C63.5283964,306.171078 59.3032964,306.966878 55.1477964,308.045978 C50.8301964,309.021678 47.8906964,314.038078 49.1694964,318.287478 C51.4214964,328.597278 53.7190964,338.903478 56.0658964,349.192178 C56.6878964,353.885978 62.0432964,356.702278 66.4097964,355.589278 C71.4841964,354.498478 76.5328964,353.292878 81.6008964,352.202678 C85.3690964,351.409678 88.7202964,353.890878 91.7432964,355.762378 C95.9568964,358.216478 99.7824964,361.725478 104.736696,362.563778 C106.591196,362.733278 108.425696,362.278078 110.228696,361.889278 C116.754296,360.408078 123.296396,358.969478 129.834896,357.518478 C132.322196,356.957378 134.861996,356.006378 136.551096,354.005778 C140.285796,349.196078 142.784296,343.482078 146.967096,339.015878 C148.949796,336.758278 152.072796,336.519478 154.808196,335.882378 C210.612896,323.435078 266.422596,311.013978 322.224296,298.553278 C324.345896,298.107578 326.511896,297.412478 328.706996,297.652178 C331.653996,298.201478 333.966496,300.841578 334.536996,303.730478 C337.749796,318.260578 341.012996,332.779478 344.243296,347.299178 C344.860496,349.978678 344.620296,353.360378 342.267496,355.150678 C340.908296,356.401578 339.074396,356.856578 337.325696,357.253078 C270.160496,372.213178 202.995296,387.206278 135.822396,402.161478 C133.670296,402.681678 131.373096,403.021278 129.494696,404.261578 C125.957796,407.284278 123.772096,411.457178 121.289496,415.311578 C119.467396,418.588578 117.275496,422.437578 113.280696,423.255478 C106.348096,424.814178 99.4041964,426.322578 92.4785964,427.912778 C90.5345964,428.352778 88.4381964,428.734278 86.5207964,427.955378 C82.3690964,426.314778 78.8346964,423.516978 75.0392964,421.214078 C72.2361964,419.466078 69.1841964,417.196478 65.6728964,417.893378 C60.3837964,418.853678 55.1728964,420.253978 49.8970964,421.303778 C47.3641964,421.868478 44.3785964,421.413678 42.6246964,419.345878 C40.7779964,417.278178 40.6188964,414.363578 39.9800964,411.795378 C26.7366964,352.449478 13.5296964,293.088378 0.273696358,233.745278 C-0.715403642,230.319878 1.03899636,226.322678 4.52409636,225.181178 L4.52439636,225.181078 Z" id="路径" fill-opacity="0.850000024" fill="#FFAB19"></path>
                <path d="M438.117096,0.0347777843 C443.133496,-0.183322216 448.124296,0.686177784 453.130296,0.926877784 C457.744696,1.35817778 462.990996,1.04747778 466.666196,4.38437778 C472.427796,9.70737778 476.719596,16.4128778 482.536296,21.6891778 C485.210696,24.0364778 488.900496,24.3608778 492.293696,24.6449778 C501.683696,25.3073778 511.067596,26.1565778 520.458196,26.8105778 C523.664296,27.0798778 527.015296,26.3816778 529.601596,24.4057778 C534.919596,20.4655778 539.645796,15.7807778 544.893296,11.7584778 C547.557596,9.66107778 550.987596,8.60297778 554.379396,8.91247778 C591.234996,11.8045778 628.109096,14.6896778 664.962096,17.6156778 C669.032296,17.5699778 672.784496,20.3595778 674.105496,24.1326778 C674.926196,27.5258778 674.272896,31.0329778 674.071296,34.4648778 C671.582296,65.7675778 669.143796,97.0740778 666.671596,128.377778 C666.375896,131.478778 665.243096,134.889378 662.382396,136.536478 C660.143096,138.122778 657.289396,138.059578 654.667996,137.870178 C619.203696,135.019878 583.728796,132.303978 548.264796,129.462178 C544.002896,129.118278 539.243596,128.463078 535.510696,131.080578 C529.384196,135.289078 524.237496,140.749678 518.180796,145.049078 C515.619396,146.924378 512.341996,147.338478 509.259596,147.019778 C499.881696,146.204778 490.481096,145.567178 481.101796,144.769878 C477.875396,144.541278 474.844496,143.025478 472.695496,140.634878 C468.331796,135.932078 464.216996,131.002978 459.981496,126.191978 C457.784396,123.652178 454.528796,122.272478 451.228696,121.893578 C443.899396,121.043678 436.481896,120.988278 429.178996,119.911378 C424.583296,119.242778 421.771596,114.398378 422.286596,110.029878 C424.876496,76.4703778 427.534396,42.9165778 430.200796,9.36347778 C430.165496,4.91687778 433.567696,0.519477784 438.117196,0.0346777843 L438.117096,0.0347777843 Z" id="路径" fill="#6FB4B1"></path>
            </g>
            <path d="M700.107157,291.17944 C674.433957,279.20834 643.976457,290.15984 631.726757,315.61324 L631.670557,315.58664 L582.354157,421.34644 C566.400957,455.55694 581.202357,496.22314 615.413857,512.17694 C649.625057,528.12954 690.290857,513.32844 706.243957,479.11744 L720.334857,448.90024 C722.279357,444.72824 720.474257,439.76884 716.302957,437.82284 C712.130557,435.87724 707.171157,437.68234 705.225557,441.85474 L691.135357,472.07164 C679.073457,497.93914 648.326157,509.13024 622.458857,497.06794 C596.591657,485.00554 585.400857,454.25924 597.462657,428.39164 L646.779057,322.63184 L646.835257,322.65844 C655.191257,305.54854 675.732757,298.20774 693.061457,306.28824 C710.390057,314.36854 717.971157,334.82234 710.235057,352.22174 L660.918257,457.98134 C656.637957,467.15954 645.727557,471.13064 636.549157,466.85094 C627.370657,462.57134 623.399357,451.66044 627.679657,442.48224 L641.770157,412.26504 C643.715557,408.09284 641.910557,403.13364 637.738457,401.18814 C633.566357,399.24254 628.606957,401.04764 626.661457,405.21984 L612.571057,435.43674 C604.399957,452.95924 611.980957,473.78784 629.504157,481.95994 C647.026957,490.13094 667.855857,482.54984 676.026957,465.02694 L725.342957,359.26684 C736.967657,333.52264 725.779257,303.15074 700.107257,291.17934 L700.107157,291.17944 Z" id="路径" fill="#A4C6F6"></path>
            <g id="编组" transform="translate(89.8271, 119.2864)">
                <path d="M218.959006,169.551665 C220.193906,171.332865 221.161606,173.136665 221.325706,175.011665 C221.536606,177.422765 220.676306,179.926665 217.987806,183.130765 C191.105006,215.168865 158.239806,231.266465 126.101106,234.078065 C64.7700056,239.444265 6.54590558,197.041965 0.59430558,129.015565 C-6.50529442,47.8651651 51.1036056,6.12196507 114.577706,0.568765072 C138.413606,-1.51663493 161.402906,2.13956507 178.677306,11.4227651 C180.669006,12.5975651 182.265706,15.4266651 182.500106,18.1043651 C182.570406,18.9080651 182.617306,19.4441651 182.420006,20.2703651 L171.124106,63.8992651 C170.507906,66.1121651 168.040606,68.7566651 165.094306,69.0139651 C164.023006,69.1077651 162.928306,68.9338651 162.078206,68.4690651 C153.307206,63.8391651 137.910706,60.5984651 122.645106,61.9343651 C88.8995056,64.8864651 71.1763056,87.4865651 74.0347056,120.160465 C76.7998056,151.762965 102.228506,167.889465 130.350106,165.429065 C149.097706,163.788965 169.529306,153.636065 184.832006,134.215665 C185.810006,133.050665 187.369606,132.373865 188.709406,132.256665 C191.387106,132.022265 194.473606,133.371865 195.731906,135.421265 L218.959006,169.551665 L218.959006,169.551665 Z" id="路径" fill="#75A7EE"></path>
                <path d="M232.981906,225.249965 C230.231906,225.005865 228.178706,222.521465 228.418906,219.729465 L246.287106,12.3329651 C246.549306,9.28656507 248.996106,7.20206507 251.746106,7.44626507 L301.990206,11.9106651 C304.740206,12.1547651 306.793406,14.6386651 306.531206,17.6850651 L288.663006,225.082065 C288.422806,227.874065 285.976006,229.958065 283.226006,229.713865 L232.981906,225.249965 Z" id="路径" fill="#156EEC"></path>
                <path d="M350.438006,86.4745651 C329.905806,86.4745651 313.379406,69.9486651 313.379406,49.6664651 C313.379406,29.1337651 329.905806,12.6078651 350.438006,12.6078651 C370.720206,12.6078651 387.246606,29.1337651 387.246606,49.6664651 C387.246606,69.9486651 370.720206,86.4745651 350.438006,86.4745651 Z M334.662606,225.695265 L334.162606,225.695265 C331.407706,225.695265 329.404806,223.441365 329.153806,220.687465 L322.894006,98.7440651 C322.894006,95.7391651 324.897906,93.4857651 327.901806,93.2352651 L377.981906,90.7313651 L378.481906,90.7313651 C380.985806,90.7313651 383.239706,92.9852651 383.239706,95.4891651 L389.499506,217.682565 L389.499506,218.183565 C389.499506,220.687465 387.246606,222.941365 384.742706,223.191365 L334.662606,225.695265 L334.662606,225.695265 Z" id="形状" fill="#75A7EE"></path>
                <path d="M407.205506,235.637665 C404.763106,235.637665 402.564906,233.440365 402.564906,230.753865 L402.564906,230.265565 L412.333506,37.3339651 C412.577606,34.6474651 414.775906,32.4496651 417.218306,32.4496651 L417.706606,32.4496651 L458.490806,34.6474651 C468.991806,30.7397651 479.737906,28.7861651 489.994706,28.7861651 C532.977106,28.7861651 571.563106,60.0459651 571.563106,104.493665 C571.563106,148.941365 540.059206,177.025865 493.902006,177.025865 C483.645206,177.025865 473.632506,175.560565 464.596306,172.629865 L461.421506,233.440365 C461.177406,236.371065 458.979106,238.324165 456.048506,238.324165 L407.205706,235.637665 L407.205506,235.637665 Z M466.794406,127.205465 C472.166506,129.891965 479.249506,131.845565 486.087406,131.845565 C488.041506,131.845565 511.485806,131.845565 511.485806,104.981765 C511.485806,88.1306651 498.786606,76.4085651 481.691906,76.4085651 C477.783706,76.4085651 473.632306,77.1409651 469.481006,78.3621651 L466.794406,127.205465 L466.794406,127.205465 Z" id="形状" fill="#156EEC"></path>
                <path d="M313.890106,377.209865 C315.117606,378.585865 316.121506,380.008665 316.454606,381.575065 C316.882306,383.588765 316.415506,385.791865 314.477106,388.777165 C295.097706,418.617965 269.013706,435.620965 242.167006,441.326965 C190.931606,452.217565 137.369106,422.447065 125.290006,365.619965 C110.880806,297.828965 155.199206,256.607265 208.223606,245.335765 C228.135706,241.103365 247.927706,241.806465 263.477506,247.855265 C265.281206,248.641365 266.923806,250.864065 267.399406,253.101365 C267.542006,253.772265 267.636706,254.220465 267.555606,254.939265 L262.541006,292.951965 C262.250006,294.884565 260.440406,297.373865 257.979506,297.897265 C257.084006,298.086765 256.142606,298.052565 255.376006,297.747865 C247.489306,294.748865 234.151406,293.608265 221.398506,296.319165 C193.209006,302.310365 180.586006,323.232265 186.387806,350.528165 C191.999106,376.927565 215.144606,387.909065 238.636806,382.915865 C254.297906,379.586765 270.498106,368.895365 281.407306,350.908065 C282.112406,349.823065 283.359406,349.090665 284.477606,348.853365 C286.715906,348.377765 289.462006,349.196165 290.736406,350.796765 L313.890206,377.209865 L313.890106,377.209865 Z" id="路径" fill="#156EEC"></path>
                <path d="M491.591306,405.434465 C492.368606,407.155165 492.916506,408.855365 492.776806,410.494065 C492.595206,412.600465 491.496506,414.624965 488.750406,416.974565 C461.290406,440.468665 431.151806,449.337865 403.604906,446.879865 C351.036506,442.190365 308.201106,396.859365 313.303106,337.407165 C319.388106,266.485265 374.228906,239.301665 428.634206,244.154265 C449.064906,245.976565 467.925206,252.612265 481.125406,263.223565 C482.632206,264.538065 483.559006,267.214765 483.357806,269.555565 C483.297306,270.257665 483.257206,270.725465 482.967206,271.407165 L466.938906,307.242165 C466.089306,309.053665 463.612706,310.955065 461.088306,310.730465 C460.169406,310.648465 459.271906,310.332065 458.623506,309.802765 C451.908706,304.487365 439.395006,299.361365 426.310006,298.193365 C397.386206,295.613265 379.062006,312.375965 376.611806,340.931665 C374.241706,368.551765 393.306106,386.290065 417.409706,388.440465 C433.479006,389.874065 452.236806,384.235365 468.044506,369.842765 C469.042506,368.988265 470.460506,368.643565 471.608006,368.746065 C473.903906,368.951165 476.309206,370.580065 477.066006,372.534165 L491.591406,405.434565 L491.591306,405.434465 Z" id="路径" fill="#75A7EE"></path>
            </g>
            <g id="编组" transform="translate(125.846, 30.4323)">
                <path d="M17.7051531,86.7641009 C17.1968531,86.4711009 16.9507531,86.1928009 16.8433531,85.7924009 C16.6929531,85.2309009 16.9434531,84.5619009 17.6534531,83.6850009 C30.3878531,69.9623009 41.0518531,46.9145009 40.4932531,44.8295009 C40.3218531,44.1889009 39.6529531,43.9389009 38.6695531,44.1156009 L29.4175531,45.8207009 C20.4981531,52.9364009 14.7608531,56.5370009 12.9971531,57.0092009 C12.1953531,57.2240009 11.4903531,57.1547009 10.7139531,56.5033009 L0.87755313,47.3680009 C0.42785313,46.9725009 0.13875313,46.5350009 0.0528531301,46.2137009 C-0.14054687,45.4920009 0.21155313,44.8826009 0.86825313,44.4495009 C8.45325313,39.4095009 15.5494531,31.5799009 19.9473531,26.1917009 C20.2627531,25.7630009 20.6787531,25.3938009 21.2403531,25.2435009 C22.2823531,24.9642009 23.0801531,25.6956009 27.4581531,29.8495009 L52.9845531,25.0717009 C56.3361531,24.4311009 61.3575531,26.1791009 62.6466531,30.9887009 C62.7755531,31.4701009 62.8243531,31.9731009 62.8732531,32.4750009 C65.3810531,59.4701009 33.6588531,92.1127009 29.8107531,93.1435009 C29.2502531,93.2939009 28.7047531,93.1826009 27.9928531,92.7714009 L17.7052531,86.7641009 L17.7051531,86.7641009 Z" id="路径" fill="#78C1EC"></path>
                <path d="M95.9986531,57.1264009 L85.3599531,55.6176009 C84.2188531,55.4457009 83.5581531,54.7367009 83.7085531,53.0151009 C84.1733531,47.7075009 84.6816531,36.1147009 84.6880531,30.2612009 C84.7129531,29.9741009 84.6660531,29.6801009 84.6851531,29.4653009 C84.7789531,28.3891009 85.2535531,27.9243009 87.0469531,28.0815009 L100.252053,29.1645009 C102.188553,29.3344009 102.861953,29.8989009 102.177853,37.7182009 C101.625653,44.0297009 100.139753,51.9233009 98.9722531,55.3627009 C98.4815531,56.8383009 97.3614531,57.2455009 96.2139531,57.1449009 L95.9986531,57.1263009 L95.9986531,57.1264009 Z M98.2115531,83.0522009 C97.6568531,82.7876009 97.4791531,82.3374009 97.5167531,81.9067009 C97.5670531,81.3335009 98.0543531,80.7251009 98.5343531,80.1889009 C108.461153,69.9985009 112.122253,53.7660009 113.364953,39.5639009 C113.640853,36.4067009 113.767253,33.3110009 113.874753,30.4282009 L113.893753,30.2134009 C114.000153,28.9937009 114.799053,28.1245009 116.162353,28.2437009 L128.774653,29.4917009 C131.285353,29.7114009 131.297153,31.2300009 131.345953,32.3179009 C131.503153,36.3072009 131.366453,40.3433009 131.015353,44.3609009 C129.603253,60.4996009 123.959153,76.2701009 110.588553,87.8209009 C110.042153,88.2799009 109.443053,88.5162009 108.869353,88.4664009 C108.152053,88.4029009 107.394253,87.9762009 106.427953,87.4576009 L98.2116531,83.0523009 L98.2115531,83.0522009 Z" id="形状" fill="#34A6ED"></path>
                <path d="M150.633853,64.0605009 C150.320353,64.0878009 150.013253,64.1948009 149.777853,64.2153009 C148.444853,64.3320009 148.239753,63.7959009 147.836953,62.8027009 C146.528853,59.5952009 141.793453,47.9072009 141.676753,46.5732009 C141.608353,45.7880009 141.782253,45.0605009 142.559053,44.9135009 L154.662053,42.3510009 L155.368153,42.2895009 C156.309553,42.2070009 157.186053,42.2885009 157.902353,43.2543009 C160.194853,45.9799009 165.798353,54.0316009 166.189453,58.5063009 C166.278353,59.5258009 165.961953,60.4243009 164.799353,60.6835009 L150.633853,64.0605009 L150.633853,64.0605009 Z M166.223253,90.5376009 C165.654453,90.3506009 165.128053,89.7627009 165.073353,89.1357009 C165.046053,88.8212009 165.104553,88.5791009 165.318453,88.3232009 C172.221753,78.7016009 178.767653,64.9985009 183.640753,52.9438009 L171.820453,56.0351009 C171.435653,56.1479009 171.043153,56.1821009 170.807753,56.2026009 C169.710053,56.2988009 169.505553,55.7636009 169.109553,54.8486009 C167.928353,52.1840009 162.752653,39.9819009 162.650053,38.8051009 C162.574353,37.9408009 162.748153,37.2138009 163.525553,37.0663009 L175.137353,34.3095009 C175.443553,34.2031009 175.757453,34.1757009 176.070953,34.1479009 C176.934253,34.0727009 177.738453,34.2392009 178.362953,35.0556009 C180.570953,37.7099009 184.167153,42.6938009 185.962553,46.9658009 C187.495253,42.7983009 188.819453,38.9643009 189.799953,35.7138009 C190.058753,35.0595009 190.580253,34.6972009 191.285353,34.6352009 C191.521653,34.6147009 191.762853,34.6733009 192.005553,34.7309009 L206.748753,39.7680009 C207.324453,40.0336009 207.607653,40.5624009 207.669653,41.2685009 C207.971453,44.7226009 198.788753,75.2675009 180.917253,93.2060009 C180.658453,93.8613009 180.137453,94.2236009 179.431453,94.2856009 C179.196053,94.3061009 178.954353,94.2475009 178.712253,94.1899009 L166.223453,90.5376009 L166.223253,90.5376009 Z" id="形状" fill="#78C1EC"></path>
                <path d="M239.645553,87.4467009 C238.970753,87.1469009 238.595753,86.7719009 238.595753,86.1718009 C238.595753,85.7968009 238.746153,85.3466009 239.045953,84.8217009 C246.545953,72.2973009 253.445353,53.2480009 253.445353,51.7480009 C253.445353,51.0732009 253.070353,50.8481009 252.395553,50.8481009 L251.945353,50.8481009 L220.446353,53.9980009 L220.296453,53.9980009 C219.471753,53.9980009 218.871653,53.3979009 218.796453,52.5732009 L217.671453,39.9736009 L217.671453,39.8237009 C217.671453,39.0737009 218.346753,38.3989009 219.096753,38.3237009 L257.195353,35.0986009 L257.195353,35.7739009 C257.195353,42.8237009 263.269553,49.7231009 271.444353,49.7231009 C272.269553,49.7231009 273.094753,49.6484009 273.994153,49.4980009 C271.894553,64.7978009 263.344753,79.5722009 252.469753,91.4213009 C252.169953,91.7963009 251.270553,92.2465009 250.294953,92.2465009 C249.845753,92.2465009 249.395553,92.1713009 248.945353,91.9467009 L239.645553,87.4467009 L239.645553,87.4467009 Z M260.195353,35.2490009 C260.195353,28.9492009 265.219753,23.9243009 271.519553,23.9243009 C277.819353,23.9243009 282.843753,28.9492009 282.843753,35.2490009 C282.843753,41.5488009 277.819353,46.5732009 271.519553,46.5732009 C265.219753,46.5732009 260.195353,41.5488009 260.195353,35.2490009 Z M271.519653,31.2739009 C269.344853,31.2739009 267.545053,33.0737009 267.545053,35.2490009 C267.545053,37.4243009 269.344853,39.2236009 271.519653,39.2236009 C273.694453,39.2236009 275.494253,37.4238009 275.494253,35.2490009 C275.494253,33.0742009 273.694453,31.2739009 271.519653,31.2739009 Z" id="形状" fill="#34A6ED"></path>
                <path d="M303.218853,40.3813009 C302.621153,40.8320009 302.211053,41.0830009 301.839953,41.1684009 C301.173953,41.3222009 300.848753,40.9287009 300.267653,40.4389009 C289.266653,29.9526009 288.475653,28.8867009 288.287153,28.0722009 C288.184653,27.6279009 288.247153,27.2241009 288.657253,26.9731009 L298.015653,20.2099009 C298.483453,19.8686009 299.042053,19.5834009 299.559553,19.4638009 C300.078153,19.3442009 300.630853,19.3730009 301.235353,19.6235009 C304.503953,21.2861009 314.132853,27.1757009 314.884753,30.4345009 C315.021453,31.0273009 314.845653,31.6137009 314.190453,32.1547009 L303.218753,40.3813009 L303.218853,40.3813009 Z M319.766653,19.4790009 C319.179753,20.3159009 318.787153,20.6406009 318.416053,20.7266009 C317.972653,20.8291009 317.533253,20.6187009 317.002953,20.3511009 C303.210953,13.3169009 302.139653,12.3941009 301.917053,11.4312009 C301.848653,11.1348009 301.854553,10.8213009 302.099653,10.5308009 L308.952153,1.69440086 C309.499053,1.02250086 310.063453,0.423900856 310.803753,0.253000856 C312.432653,-0.122999144 327.346753,4.00010086 328.116253,7.33310086 C328.202153,7.70320086 328.083053,8.19880086 327.723653,8.67150086 L319.766653,19.4791009 L319.766653,19.4790009 Z M355.855553,29.1660009 C355.981553,29.3711009 356.089953,29.5019009 356.140753,29.7236009 C356.260853,30.2422009 356.085053,30.8291009 355.651453,31.3193009 C344.823353,44.8950009 331.658253,56.1250009 317.914153,63.8222009 C317.708053,63.9482009 317.503953,64.0732009 317.281353,64.1244009 C316.762753,64.2440009 316.174953,64.0678009 315.759853,63.6176009 L305.851653,52.8007009 C305.653453,52.6122009 305.527453,52.4071009 305.475653,52.1855009 C305.338953,51.5927009 305.606553,51.0634009 306.056753,50.6469009 C316.640753,43.4452009 337.192453,27.3906009 345.043053,19.4936009 C345.248153,19.3681009 345.453253,19.2426009 345.675853,19.1914009 C346.193453,19.0718009 346.780353,19.2485009 347.196353,19.6987009 L355.855553,29.1660009 L355.855553,29.1660009 Z" id="形状" fill="#78C1EC"></path>
                <path d="M362.211953,42.1562009 C361.393553,41.8984009 360.586953,40.8261009 360.891653,39.8593009 L365.160253,26.3193009 C365.442453,25.4267009 366.643653,24.9882009 367.462053,25.2461009 L417.951353,41.2471009 C418.769753,41.5049009 419.502153,42.5547009 419.197453,43.5215009 L414.952353,56.9863009 C414.670153,57.8789009 413.492353,58.2431009 412.674053,57.9853009 L362.212153,42.1562009 L362.211953,42.1562009 Z" id="路径" fill="#34A6ED"></path>
                <path d="M437.748153,37.8857009 C437.117253,38.2495009 436.690553,38.4428009 436.322353,38.4819009 C435.660253,38.5512009 435.392653,38.1333009 434.889753,37.5908009 C425.502053,26.1509009 424.863353,25.0268009 424.778453,24.2173009 C424.731553,23.7759009 424.840953,23.3921009 425.265753,23.1992009 L435.114353,17.7739009 C435.605553,17.4985009 436.178853,17.2895009 436.694453,17.2353009 C437.209053,17.1811009 437.740353,17.2739009 438.294053,17.5878009 C441.256953,19.5834009 449.863353,26.4179009 450.204253,29.6566009 C450.265753,30.2450009 450.025553,30.7909009 449.328253,31.2367009 L437.748153,37.8856009 L437.748153,37.8857009 Z M489.949253,33.2920009 C490.046953,33.5049009 490.135753,33.6441009 490.159253,33.8652009 C490.212953,34.3803009 489.973753,34.9267009 489.496153,35.3491009 C477.419953,47.1850009 463.365253,56.4756009 449.168053,62.2832009 C448.955153,62.3804009 448.741253,62.4770009 448.520553,62.5000009 C448.005953,62.5542009 447.459053,62.3145009 447.111353,61.8296009 L438.819353,50.2002009 C438.648453,49.9946009 438.551753,49.7817009 438.528353,49.5610009 C438.466853,48.9721009 438.788153,48.4917009 439.273453,48.1430009 C450.355453,42.4389009 472.124053,29.3613009 480.647453,22.6616009 C480.860353,22.5644009 481.073253,22.4682009 481.293953,22.4448009 C481.809553,22.3906009 482.355453,22.6303009 482.704153,23.1152009 L489.949253,33.2920009 L489.949253,33.2920009 Z M456.220753,19.6479009 C455.553753,20.3876009 455.136753,20.6542009 454.768653,20.6928009 C454.326253,20.7397009 453.927853,20.4843009 453.446353,20.1625009 C440.953153,11.7279009 440.026453,10.7084009 439.925853,9.75230086 C439.894653,9.45740086 439.937553,9.15510086 440.209053,8.90370086 L447.879953,1.17660086 C448.488353,0.592100856 449.103553,0.0809008558 449.839953,0.00370085579 C451.459053,-0.166699144 465.384853,5.58770086 465.732553,8.89970086 C465.771653,9.26790086 465.595853,9.73270086 465.194453,10.1473009 L456.220853,19.6478009 L456.220753,19.6479009 Z" id="形状" fill="#78C1EC"></path>
                <path d="M504.186553,52.5107009 C503.319353,52.5712009 502.161153,51.8603009 502.089853,50.8359009 L501.086953,36.4931009 C501.020553,35.5478009 501.989253,34.6879009 502.856453,34.6274009 L556.369153,30.9648009 C557.236353,30.9043009 558.315453,31.6206009 558.386753,32.6450009 L559.383853,46.9077009 C559.450253,47.8540009 558.475653,48.6348009 557.608453,48.6953009 L504.186553,52.5107009 Z" id="路径" fill="#34A6ED"></path>
            </g>
        </g>
    </g>
</svg>
