<?xml version="1.0" encoding="utf-8"?>
<!-- Generator: Adobe Illustrator 15.0.0, SVG Export Plug-In . SVG Version: 6.00 Build 0)  -->
<!DOCTYPE svg PUBLIC "-//W3C//DTD SVG 1.0//EN" "http://www.w3.org/TR/2001/REC-SVG-20010904/DTD/svg10.dtd">
<svg version="1.0" id="图层_1" xmlns="http://www.w3.org/2000/svg" xmlns:xlink="http://www.w3.org/1999/xlink" x="0px" y="0px"
	 width="836px" height="908px" viewBox="0 0 836 908" enable-background="new 0 0 836 908" xml:space="preserve">
<g id="_x23_ffffffff">
</g>
<g>
	<g>
		<g id="_x23_4d90edff">
			<path fill="#4D90ED" d="M270.093,400.353c5.212-2.829,11.14-4.362,17.074-4.337c-2.355,3.463-4.584,7.01-6.805,10.56
				c-3.21,0.886-6.264,2.364-8.915,4.385c-2.153,1.595-3.921,3.624-5.837,5.48c-2.265,2.266-4.531,4.532-6.798,6.799
				c-4.029-0.212-7.985,1.211-11.368,3.317c-2.364,1.526-4.558,3.323-6.489,5.372c-2.602,2.488-4.827,5.336-6.968,8.223
				c-0.386,0.483-0.659,1.071-1.151,1.458c-0.379,0.115-0.78,0.075-1.169,0.075c-1.646-0.064-3.294,0.009-4.94-0.022
				c11.607-11.674,23.28-23.286,34.91-34.938C264.135,404.216,266.976,402.04,270.093,400.353z"/>
		</g>
		<g id="_x23_6ea4f0ff">
			<path fill="#6EA4F0" d="M280.362,406.575c2.221-3.55,4.45-7.097,6.805-10.56c6.877-0.05,13.759,1.946,19.539,5.679
				c5.545,3.564,10.096,8.674,12.956,14.617c3.056,6.308,4.193,13.525,3.246,20.469c-0.883,6.733-3.747,13.191-8.142,18.367
				c-2.785-1.709-5.566-3.421-8.344-5.141c4.546-4.792,7.174-11.341,7.165-17.949c0.06-6.683-2.577-13.338-7.2-18.166
				c-4.587-4.901-11.119-7.917-17.828-8.21C285.802,405.533,283.024,405.854,280.362,406.575z"/>
		</g>
		<g id="_x23_3d85ebff">
			<path fill="#3D85EB" d="M247.443,426.557c3.383-2.106,7.339-3.529,11.368-3.317c-6.446,6.476-12.934,12.912-19.371,19.396
				l-0.024-0.007c-1.464-0.438-3-0.515-4.507-0.719c-0.705-0.079-1.436-0.175-2.132,0.005c-0.496,0.501-0.839,1.126-1.248,1.694
				c-3.239,4.876-6.212,9.922-9.056,15.034c-0.279,0.516-0.586,1.026-0.693,1.611c-6.763,6.82-13.597,13.602-20.384,20.41
				c-0.553-0.389-0.881-0.991-1.295-1.508c-1.602-2.021-3.21-4.041-4.966-5.931c8.435-8.452,16.886-16.888,25.326-25.335
				c2.094-2.069,4.145-4.188,6.265-6.229c1.646,0.031,3.294-0.042,4.94,0.022c0.389,0,0.79,0.04,1.169-0.075
				c0.492-0.387,0.766-0.975,1.151-1.458c2.142-2.887,4.366-5.734,6.968-8.223C242.885,429.88,245.079,428.083,247.443,426.557z"/>
		</g>
		<g id="_x23_327feaff">
			<path fill="#327FEA" d="M232.777,441.915c0.696-0.18,1.428-0.084,2.132-0.005c1.508,0.204,3.043,0.28,4.507,0.719
				c-4.158,4.207-8.362,8.369-12.537,12.559c-1.705,1.684-3.368,3.411-5.099,5.067c0.107-0.585,0.414-1.096,0.693-1.611
				c2.844-5.112,5.818-10.158,9.056-15.034C231.938,443.041,232.281,442.416,232.777,441.915z"/>
			<path fill="#327FEA" d="M236.248,459.689c1.769-0.787,4.004-0.375,5.346,1.034c1.9,1.78,1.852,5.103-0.033,6.877
				c-8.817,8.809-17.624,17.628-26.442,26.437c-0.957,1.01-2.007,1.935-2.81,3.085c-1.812-2.839-3.626-5.673-5.446-8.505
				c3.903-4.021,7.915-7.935,11.862-11.913c4.856-4.856,9.712-9.712,14.569-14.568C234.218,461.258,235.033,460.187,236.248,459.689
				z"/>
		</g>
		<g id="_x23_5393edff">
			<path fill="#5393ED" d="M284.691,471.745c7.242-7.249,14.495-14.483,21.73-21.738c2.778,1.72,5.559,3.432,8.344,5.141
				c-1.003,1.254-2.192,2.338-3.313,3.48c-6.01,6.025-12.049,12.02-18.04,18.063l-0.022-0.015c-0.808-0.6-1.822-0.795-2.736-1.172
				c-1.131-0.294-2.216-0.838-3.404-0.834C286.342,473.743,285.533,472.729,284.691,471.745z"/>
			<path fill="#5393ED" d="M184.327,488.83c2.413-5.908,6.213-11.194,10.808-15.604c1.755,1.89,3.364,3.91,4.966,5.931
				c0.414,0.517,0.742,1.119,1.295,1.508c-5.195,4.983-8.847,11.574-10.234,18.642c-0.077,0.019-0.232,0.058-0.311,0.078
				c-1.875-2.265-3.443-4.771-4.846-7.352C185.425,490.978,184.951,489.863,184.327,488.83z"/>
		</g>
		<g id="_x23_3581eaff">
			<path fill="#3581EA" d="M237.253,519.153c15.825-15.783,31.608-31.623,47.438-47.408c0.843,0.984,1.651,1.998,2.558,2.925
				c0.621,0.898,1.387,1.686,2.031,2.568c0.506,0.689,1.153,1.29,1.469,2.104c-15.495,15.488-30.981,30.985-46.477,46.472
				c-2.319,2.156-5.024,3.914-7.968,5.086c-2.583-2.277-4.781-4.945-6.95-7.609C232.294,522.646,235.054,521.211,237.253,519.153z"
				/>
			<path fill="#3581EA" d="M278.812,504.702c1.16-1.152,2.943-1.659,4.528-1.234c1.368,0.308,2.56,1.272,3.183,2.525
				c0.908,1.788,0.563,4.123-0.85,5.556c-4.582,4.606-9.187,9.191-13.778,13.787c-1.227,1.206-2.41,2.457-3.669,3.624
				c-0.909,0.195-1.625,0.829-2.415,1.279c-2.066,1.258-4.13,2.523-6.238,3.712c-3.518,2.132-7.725,3.436-11.857,2.826
				c-0.52-0.066-1.087-0.089-1.504-0.449c2.455-1.631,4.659-3.603,6.699-5.723C261.544,521.972,270.18,513.34,278.812,504.702z"/>
		</g>
		<g id="_x23_4188ebff">
			<path fill="#4188EB" d="M287.249,474.67c1.188-0.004,2.273,0.541,3.404,0.834c0.915,0.377,1.928,0.572,2.736,1.172
				c-0.86,0.908-1.77,1.769-2.64,2.667c-0.316-0.815-0.963-1.415-1.469-2.104C288.636,476.355,287.87,475.568,287.249,474.67z"/>
		</g>
		<g id="_x23_4188ecff">
			<path fill="#4188EC" d="M204.645,491.418c0.675-0.984,1.447-1.894,2.218-2.801c1.82,2.832,3.635,5.666,5.446,8.505
				c-1.818,2.484-2.869,5.471-3.166,8.525c-1.59,0.492-3.198,0.992-4.874,1.065c-1.403,0.102-2.79-0.186-4.157-0.471
				c-0.026,0.531-0.078,1.062-0.131,1.594C199.621,502.044,201.335,496.173,204.645,491.418z"/>
		</g>
		<g id="_x23_78aaf1ff">
			<path fill="#78AAF1" d="M184.021,523.385c-4.411-10.969-4.318-23.67,0.306-34.555c0.625,1.033,1.098,2.147,1.678,3.203
				c1.403,2.581,2.97,5.087,4.846,7.352c0.079-0.021,0.234-0.06,0.311-0.078c-1.081,5.013-0.962,10.26,0.174,15.254
				c-1.705,2.448-3.572,4.785-5.556,7.013C185.236,522.218,184.648,522.821,184.021,523.385z"/>
		</g>
		<g id="_x23_5a97eeff">
			<path fill="#5A97EE" d="M204.27,506.714c1.675-0.073,3.284-0.574,4.874-1.066c-0.058,1.441-0.022,2.889,0.244,4.311
				c-0.3,0.337-0.586,0.69-0.811,1.085c-1.037,1.774-2.143,3.513-3.029,5.369c-0.258,0.529-0.559,1.07-0.557,1.677
				c-0.03,1.288,0.049,2.576-0.049,3.862c-2.974-4.09-4.743-9.063-4.959-14.115c0.053-0.532,0.105-1.063,0.131-1.593
				C201.48,506.527,202.867,506.814,204.27,506.714z"/>
			<path fill="#5A97EE" d="M185.78,521.573c1.984-2.228,3.851-4.564,5.556-7.013c1.905,8.296,6.875,15.838,13.761,20.84l-0.002,0.02
				c-0.197,1.138-0.079,2.293-0.103,3.441c-0.026,2.617,0.047,5.236-0.037,7.854c-9.428-4.994-17.015-13.399-20.934-23.33
				C184.648,522.821,185.236,522.218,185.78,521.573z"/>
		</g>
		<g id="_x23_468becff">
			<path fill="#468BEC" d="M208.576,511.043c0.225-0.395,0.511-0.749,0.811-1.085c0.588,3.076,2.016,5.995,4.153,8.29
				c3.891,4.313,10.141,6.321,15.814,5.043c2.169,2.664,4.367,5.332,6.95,7.609c-5.751,2.369-12.349,2.597-18.254,0.637
				c-5.236-1.699-9.897-5.116-13.109-9.587c0.098-1.286,0.019-2.573,0.049-3.861c-0.002-0.606,0.298-1.148,0.557-1.677
				C206.433,514.556,207.54,512.817,208.576,511.043z"/>
			<path fill="#468BEC" d="M265.81,530.239c0.791-0.45,1.506-1.084,2.415-1.279c-2.087,2.173-4.256,4.269-6.374,6.411
				c-2.366,2.347-4.657,4.784-7.292,6.838c-5.341,4.251-11.667,7.254-18.334,8.722c-10.481,2.344-21.791,0.862-31.269-4.216
				c0.083-2.617,0.01-5.236,0.037-7.854c0.024-1.147-0.094-2.303,0.103-3.44c5.526,4.041,12.215,6.478,19.055,6.868
				c7.737,0.491,15.624-1.636,22.061-5.961c0.417,0.361,0.984,0.384,1.504,0.45c4.132,0.608,8.339-0.694,11.857-2.827
				C261.68,532.763,263.744,531.497,265.81,530.239z"/>
		</g>
	</g>
	<g>
		<path d="M354.98,457.779l21.919-21.919h27.398v32.879h-16.439V452.3h-16.439v49.317h32.878v16.439H354.98V457.779z"/>
		<path d="M423.479,427.641h5.479v90.416h-16.439v-79.456L423.479,427.641z"/>
		<path d="M453.617,427.641v16.439h-16.439v-16.439H453.617z M453.617,452.3v65.757h-16.439V452.3H453.617z"/>
		<path d="M511.156,452.3v43.838l-21.919,21.919h-10.96v16.439h-16.439v-60.277l21.919-21.919H511.156z M478.277,501.617h16.439
			v-32.878h-16.439V501.617z"/>
		<path d="M519.377,457.779l21.919-21.919h27.398v32.879h-16.439V452.3h-16.438v49.317h32.878v16.439h-49.317V457.779z"/>
		<path d="M576.917,457.779l21.919-21.919h27.398v32.879h-16.438V452.3h-16.439v49.317h32.878v16.439h-49.317V457.779z"/>
	</g>
</g>
</svg>
