<?xml version="1.0" encoding="UTF-8" standalone="no"?> <!-- Created with Vectornator for iOS (http://vectornator.io/) --><!DOCTYPE svg PUBLIC "-//W3C//DTD SVG 1.1//EN" "http://www.w3.org/Graphics/SVG/1.1/DTD/svg11.dtd">
<svg xmlns:xlink="http://www.w3.org/1999/xlink" style="fill-rule:nonzero;clip-rule:evenodd;stroke-linecap:round;stroke-linejoin:round;" xmlns:vectornator="http://vectornator.io" version="1.1" viewBox="0 0 853 293" xmlns="http://www.w3.org/2000/svg" height="100%" xml:space="preserve" width="100%">
<metadata>
<vectornator:setting value="true" key="VNSnapToGuides"/>
<vectornator:setting value="false" key="WDSnapToGrid"/>
<vectornator:setting key="WDRulersVisible" value="true"/>
<vectornator:setting value="false" key="IsTimeLapseWatermarkDisabled"/>
<vectornator:setting value="true" key="VNDimensionsVisible"/>
<vectornator:setting key="WDIsolateActiveLayer" value="false"/>
<vectornator:setting value="false" key="WDSnapToPoints"/>
<vectornator:setting key="WDCMYKEnabledKey" value="false"/>
<vectornator:setting key="WDUnits" value="Points"/>
<vectornator:setting key="WDSnapToEdges" value="false"/>
<vectornator:setting key="WDDynamicGuides" value="true"/>
<vectornator:setting key="WDDisplayWhiteBackground" value="false"/>
<vectornator:setting value="false" key="WDOutlineMode"/>
<vectornator:setting value="true" key="WDGuidesVisible"/>
<vectornator:setting key="UndoHistoryDisabled" value="true"/>
</metadata>
<defs>
<path d="M240.037+20.3447C212.593-7.09922+168.245-7.27201+140.546+19.7592L140.486+19.6987L27.4288+132.756C-9.14296+169.327-9.14293+228.622+27.4288+265.194C64.0007+301.766+123.295+301.766+159.867+265.194L192.169+232.892C196.629+228.432+196.629+221.201+192.169+216.741C187.709+212.281+180.478+212.281+176.018+216.741L143.716+249.043C116.064+276.695+71.2318+276.695+43.5798+249.043C15.928+221.391+15.9279+176.559+43.5798+148.907L156.637+35.8497L156.697+35.9102C175.474+17.7966+205.361+17.9714+223.886+36.4957C242.41+55.02+242.585+84.9073+224.471+103.684L111.414+216.741C101.602+226.553+85.6937+226.553+75.8818+216.741C66.0699+206.929+66.0699+191.021+75.8818+181.209L108.184+148.907C112.644+144.447+112.644+137.216+108.184+132.756C103.724+128.296+96.4928+128.296+92.0328+132.756L59.7308+165.058C40.999+183.79+40.999+214.16+59.7308+232.892C78.4628+251.624+108.833+251.624+127.565+232.892L240.622+119.835C267.653+92.1364+267.481+47.7886+240.037+20.3447Z" id="Mask"/>
</defs>
<g id="Untitled" vectornator:layerName="Untitled">
<g opacity="1" vectornator:mask="#Mask">
<use stroke="none" fill="#ffffff" xlink:href="#Mask"/>
<clipPath id="ClipPath">
<use xlink:href="#Mask" overflow="visible" fill="none"/>
</clipPath>
<g clip-path="url(#ClipPath)">
<path opacity="1" fill="#1c71e8" d="M-79.3337-367.008L322.727-367.008L322.727-367.008L322.727-275.799L322.727+106.084L322.727+106.084C322.727+106.084+241.957+199.374+143.816+256.123C94.9131+284.401+69.3196+189.72+23.6311+141.755C-15.9474+100.205-79.3337+106.084-79.3337+106.084L-79.3337+106.084L-79.3337-367.008L-79.3337-367.008Z" fill-opacity="0.399261"/>
<path opacity="1" fill="#1c71e8" fill-opacity="0.399261" d="M-51.5921-52.8562L431.046-52.8562L431.046-52.8562L431.046+296.173L431.046+296.173C431.046+296.173+362.781+267.396+270.305+255.196C177.83+242.995+130.31+476.704+40.0538+371.611C-50.2022+266.517-51.5921+296.173-51.5921+296.173L-51.5921+296.173L-51.5921-52.8562L-51.5921-52.8562Z"/>
<path fill="#1c71e8" opacity="1" fill-opacity="0.326028" d="M-186.747+185.044C-186.747+185.044-119.612+312.297-9.00775+248.671C53.2874+212.835+91.004+13.743+162.89+60.1503C228.812+102.708+366.497+185.044+366.497+185.044L366.497+185.044L366.497+613.394L366.497+613.394L-186.747+613.394L-186.747+613.394L-186.747+185.044L-186.747+185.044Z"/>
<path d="M-267.109+175.923C-267.109+175.923-242.91+596.764-85.1982+261.872C72.5137-73.021+215.205+175.923+215.205+175.923L215.205+175.923L215.205+736.139L215.205+736.139L-267.109+736.139L-267.109+736.139L-267.109+175.923L-267.109+175.923Z" fill="#1c71e8" fill-opacity="0.326028" opacity="1"/>
<path d="M-25.9519-436.536L476.292-436.536L476.292-436.536L476.292+30.6475L476.292+30.6475C476.292+30.6475+455.153-8.73501+294.249-57.6493C210.826-83.0098+175.541+63.7231+76.3921+183.679C-3.60171+280.46-25.9519+30.6475-25.9519+30.6475L-25.9519+30.6475L-25.9519-436.536L-25.9519-436.536Z" fill="#1c71e8" fill-opacity="0.399261" opacity="1"/>
<path opacity="1" d="M44.3505+226.057C44.3505+226.057+77.3881+146.123+185.373+146.123C236.817+146.123+295.858+244.198+353.439+263.195C416.726+284.076+476.292+226.057+476.292+226.057L476.292+226.057L476.292+676.957L476.292+676.957L44.3505+676.957L44.3505+676.957L44.3505+226.057L44.3505+226.057Z" fill="#1c71e8" fill-opacity="0.326028"/>
</g>
</g>
<g opacity="1">
<path d="M363.663+75.66C327.419+75.66+298.038+105.041+298.038+141.285C298.038+177.529+327.419+206.91+363.663+206.91C381.785+206.91+398.19+199.563+410.065+187.687L394.602+172.224C386.685+180.142+375.744+185.035+363.663+185.035C339.5+185.035+319.913+165.447+319.913+141.285C319.913+117.123+339.501+97.535+363.663+97.535C375.744+97.535+386.685+102.428+394.602+110.346L410.065+94.8827C398.19+83.0069+381.785+75.66+363.663+75.66Z" fill="#323232" opacity="1"/>
<path d="M427.565+75.66L449.44+75.66L449.44+75.66L449.44+206.91L449.44+206.91L427.565+206.91L427.565+206.91L427.565+75.66L427.565+75.66Z" opacity="1" fill="#323232"/>
<path d="M477.878+75.66C471.837+75.66+466.94+80.5569+466.94+86.5975C466.94+92.6381+471.837+97.535+477.878+97.535C483.918+97.535+488.815+92.6381+488.815+86.5975C488.815+80.5569+483.918+75.66+477.878+75.66ZM466.94+119.41L466.94+206.91L488.815+206.91L488.815+119.41L466.94+119.41Z" opacity="1" fill="#323232"/>
<path opacity="1" d="M506.315+119.41L506.315+163.16L506.315+250.66L528.19+250.66L528.19+201.004C534.632+204.736+542.085+206.91+550.065+206.91C574.228+206.91+593.815+187.322+593.815+163.16C593.815+138.998+574.228+119.41+550.065+119.41C542.085+119.41+534.632+121.584+528.19+125.316L528.19+119.41L506.315+119.41ZM550.065+141.285C562.147+141.285+571.94+151.079+571.94+163.16C571.94+175.241+562.147+185.035+550.065+185.035C537.984+185.035+528.19+175.241+528.19+163.16C528.19+151.079+537.984+141.285+550.065+141.285Z" fill="#323232"/>
<path opacity="1" fill="#323232" d="M676.94+75.66C640.697+75.66+611.315+105.041+611.315+141.285C611.315+177.529+640.697+206.91+676.94+206.91C695.062+206.91+711.467+199.563+723.343+187.687L707.88+172.224C699.963+180.142+689.022+185.035+676.94+185.035C652.778+185.035+633.19+165.447+633.19+141.285C633.19+117.123+652.778+97.535+676.94+97.535C689.022+97.535+699.963+102.428+707.88+110.346L723.343+94.8827C711.467+83.0069+695.062+75.66+676.94+75.66Z"/>
<path opacity="1" fill="#323232" d="M806.468+75.66C770.224+75.66+740.843+105.041+740.843+141.285C740.843+177.529+770.224+206.91+806.468+206.91C824.59+206.91+840.994+199.563+852.87+187.687L837.407+172.224C829.49+180.142+818.549+185.035+806.468+185.035C782.305+185.035+762.718+165.447+762.718+141.285C762.718+117.123+782.305+97.535+806.468+97.535C818.549+97.535+829.49+102.428+837.407+110.346L852.87+94.8827C840.994+83.0069+824.589+75.66+806.468+75.66Z"/>
</g>
</g>
</svg>
