<?xml version="1.0" encoding="utf-8"?>
<!-- Generator: Adobe Illustrator 15.0.0, SVG Export Plug-In . SVG Version: 6.00 Build 0)  -->
<!DOCTYPE svg PUBLIC "-//W3C//DTD SVG 1.1//EN" "http://www.w3.org/Graphics/SVG/1.1/DTD/svg11.dtd">
<svg version="1.1" id="图层_1" xmlns="http://www.w3.org/2000/svg" xmlns:xlink="http://www.w3.org/1999/xlink" x="0px" y="0px"
	 width="510px" height="204px" viewBox="0 0 510 204" enable-background="new 0 0 510 204" xml:space="preserve">
<g id="_x23_ffffffff">
</g>
<g>
	<g>
		<g id="_x23_4d90edff">
			<path fill="#4D90ED" d="M117.093,28.338c5.212-2.83,11.14-4.362,17.074-4.338c-2.354,3.463-4.584,7.01-6.806,10.561
				c-3.209,0.886-6.264,2.363-8.914,4.385c-2.153,1.596-3.922,3.624-5.838,5.48c-2.265,2.266-4.53,4.531-6.797,6.799
				c-4.029-0.212-7.985,1.211-11.369,3.315c-2.364,1.526-4.558,3.323-6.489,5.372c-2.602,2.488-4.827,5.336-6.968,8.225
				c-0.386,0.481-0.659,1.069-1.151,1.458c-0.379,0.113-0.78,0.073-1.169,0.073c-1.646-0.063-3.294,0.011-4.94-0.021
				c11.607-11.674,23.28-23.286,34.91-34.938C111.135,32.2,113.977,30.024,117.093,28.338z"/>
		</g>
		<g id="_x23_6ea4f0ff">
			<path fill="#6EA4F0" d="M127.361,34.56c2.222-3.55,4.451-7.097,6.806-10.56c6.877-0.051,13.759,1.945,19.539,5.678
				c5.545,3.564,10.096,8.675,12.956,14.617c3.056,6.309,4.193,13.525,3.246,20.47c-0.883,6.731-3.747,13.189-8.144,18.367
				c-2.783-1.709-5.564-3.423-8.344-5.143c4.546-4.792,7.174-11.341,7.165-17.949c0.062-6.683-2.577-13.338-7.2-18.165
				c-4.587-4.901-11.118-7.918-17.827-8.211C132.802,33.518,130.023,33.838,127.361,34.56z"/>
		</g>
		<g id="_x23_3d85ebff">
			<path fill="#3D85EB" d="M94.443,54.541c3.383-2.104,7.339-3.527,11.368-3.315c-6.445,6.476-12.934,12.912-19.371,19.396
				l-0.024-0.007c-1.464-0.438-3-0.515-4.507-0.719c-0.705-0.079-1.436-0.175-2.132,0.005c-0.496,0.501-0.839,1.126-1.248,1.694
				c-3.239,4.876-6.212,9.922-9.056,15.032c-0.279,0.518-0.586,1.026-0.693,1.611c-6.763,6.82-13.597,13.604-20.384,20.41
				c-0.553-0.389-0.881-0.991-1.295-1.508c-1.602-2.021-3.21-4.041-4.966-5.933c8.435-8.45,16.886-16.888,25.326-25.335
				c2.094-2.067,4.145-4.188,6.265-6.229c1.646,0.031,3.294-0.042,4.94,0.021c0.389,0,0.79,0.04,1.169-0.073
				c0.492-0.389,0.766-0.977,1.151-1.458c2.142-2.889,4.366-5.734,6.968-8.225C89.885,57.864,92.079,56.067,94.443,54.541z"/>
		</g>
		<g id="_x23_327feaff">
			<path fill="#327FEA" d="M79.777,69.899c0.696-0.18,1.428-0.084,2.132-0.005c1.508,0.204,3.043,0.28,4.507,0.719
				c-4.158,4.207-8.362,8.369-12.537,12.561c-1.705,1.684-3.368,3.409-5.099,5.065c0.107-0.585,0.414-1.096,0.693-1.611
				c2.844-5.11,5.818-10.156,9.056-15.032C78.938,71.025,79.281,70.4,79.777,69.899z"/>
			<path fill="#327FEA" d="M83.248,87.674c1.769-0.787,4.004-0.375,5.346,1.032c1.9,1.78,1.852,5.104-0.033,6.877
				c-8.817,8.811-17.624,17.628-26.442,26.438c-0.957,1.01-2.007,1.935-2.81,3.085c-1.812-2.839-3.626-5.673-5.446-8.505
				c3.903-4.021,7.915-7.937,11.862-11.913c4.856-4.856,9.712-9.712,14.569-14.568C81.218,89.242,82.033,88.171,83.248,87.674z"/>
		</g>
		<g id="_x23_5393edff">
			<path fill="#5393ED" d="M131.691,99.729c7.242-7.249,14.494-14.483,21.729-21.738c2.778,1.72,5.561,3.434,8.344,5.143
				c-1.003,1.254-2.19,2.338-3.313,3.479c-6.01,6.025-12.049,12.021-18.04,18.063l-0.021-0.017c-0.809-0.6-1.822-0.795-2.736-1.172
				c-1.131-0.294-2.217-0.838-3.404-0.834C133.342,101.728,132.533,100.714,131.691,99.729z"/>
			<path fill="#5393ED" d="M31.327,116.814c2.413-5.908,6.213-11.194,10.808-15.604c1.755,1.892,3.364,3.91,4.966,5.933
				c0.414,0.517,0.742,1.119,1.295,1.508c-5.195,4.983-8.847,11.574-10.234,18.642c-0.077,0.021-0.232,0.06-0.311,0.078
				c-1.875-2.265-3.443-4.771-4.846-7.352C32.425,118.962,31.951,117.848,31.327,116.814z"/>
		</g>
		<g id="_x23_3581eaff">
			<path fill="#3581EA" d="M84.253,147.138c15.825-15.783,31.608-31.623,47.438-47.408c0.843,0.984,1.65,1.998,2.558,2.925
				c0.621,0.898,1.388,1.688,2.031,2.568c0.506,0.688,1.153,1.29,1.469,2.104c-15.495,15.488-30.981,30.985-46.477,46.474
				c-2.319,2.154-5.024,3.912-7.968,5.086c-2.583-2.277-4.781-4.945-6.95-7.609C79.294,150.63,82.054,149.195,84.253,147.138z"/>
			<path fill="#3581EA" d="M125.813,132.687c1.16-1.152,2.942-1.659,4.527-1.234c1.368,0.31,2.561,1.272,3.184,2.525
				c0.908,1.788,0.563,4.123-0.851,5.556c-4.582,4.606-9.187,9.191-13.778,13.787c-1.227,1.206-2.41,2.457-3.668,3.624
				c-0.91,0.195-1.625,0.829-2.416,1.279c-2.065,1.258-4.129,2.521-6.237,3.712c-3.519,2.132-7.725,3.436-11.857,2.826
				c-0.52-0.066-1.087-0.089-1.504-0.449c2.455-1.631,4.659-3.604,6.699-5.724C108.544,149.956,117.18,141.324,125.813,132.687z"/>
		</g>
		<g id="_x23_4188ebff">
			<path fill="#4188EB" d="M134.249,102.654c1.188-0.004,2.272,0.541,3.403,0.834c0.916,0.377,1.929,0.572,2.736,1.172
				c-0.859,0.908-1.77,1.771-2.64,2.667c-0.315-0.813-0.963-1.415-1.47-2.104C135.636,104.34,134.87,103.553,134.249,102.654z"/>
		</g>
		<g id="_x23_4188ecff">
			<path fill="#4188EC" d="M51.645,119.402c0.675-0.984,1.447-1.894,2.218-2.801c1.82,2.832,3.635,5.666,5.446,8.505
				c-1.818,2.484-2.869,5.471-3.166,8.525c-1.59,0.49-3.198,0.99-4.874,1.063c-1.403,0.104-2.79-0.186-4.157-0.471
				c-0.026,0.53-0.078,1.062-0.131,1.594C46.621,130.028,48.335,124.157,51.645,119.402z"/>
		</g>
		<g id="_x23_78aaf1ff">
			<path fill="#78AAF1" d="M31.021,151.369c-4.411-10.969-4.318-23.67,0.306-34.555c0.625,1.033,1.098,2.146,1.678,3.203
				c1.403,2.581,2.97,5.087,4.846,7.352c0.079-0.021,0.234-0.06,0.311-0.078c-1.081,5.015-0.962,10.262,0.174,15.255
				c-1.705,2.447-3.572,4.784-5.556,7.014C32.236,150.202,31.648,150.806,31.021,151.369z"/>
		</g>
		<g id="_x23_5a97eeff">
			<path fill="#5A97EE" d="M51.27,134.698c1.675-0.073,3.284-0.574,4.874-1.064c-0.058,1.439-0.022,2.889,0.244,4.311
				c-0.3,0.337-0.586,0.69-0.811,1.085c-1.037,1.774-2.143,3.513-3.029,5.369c-0.258,0.529-0.559,1.07-0.557,1.677
				c-0.03,1.288,0.049,2.576-0.049,3.862c-2.974-4.09-4.743-9.063-4.959-14.115c0.053-0.532,0.105-1.063,0.131-1.593
				C48.48,134.512,49.867,134.799,51.27,134.698z"/>
			<path fill="#5A97EE" d="M32.78,149.558c1.984-2.229,3.851-4.564,5.556-7.015c1.905,8.298,6.875,15.84,13.761,20.842l-0.002,0.02
				c-0.197,1.138-0.079,2.293-0.103,3.441c-0.026,2.616,0.047,5.234-0.037,7.854c-9.428-4.994-17.015-13.397-20.934-23.33
				C31.648,150.806,32.236,150.202,32.78,149.558z"/>
		</g>
		<g id="_x23_468becff">
			<path fill="#468BEC" d="M55.576,139.027c0.225-0.395,0.511-0.749,0.811-1.085c0.588,3.076,2.016,5.995,4.153,8.29
				c3.891,4.313,10.141,6.321,15.814,5.043c2.169,2.664,4.367,5.332,6.95,7.609c-5.751,2.367-12.349,2.597-18.254,0.637
				c-5.236-1.699-9.897-5.116-13.109-9.587c0.098-1.286,0.019-2.573,0.049-3.861c-0.002-0.604,0.298-1.146,0.557-1.677
				C53.433,142.54,54.54,140.802,55.576,139.027z"/>
			<path fill="#468BEC" d="M112.811,158.224c0.791-0.45,1.506-1.084,2.414-1.279c-2.086,2.173-4.256,4.271-6.373,6.411
				c-2.367,2.347-4.658,4.784-7.292,6.838c-5.341,4.251-11.667,7.254-18.334,8.722c-10.481,2.346-21.791,0.862-31.269-4.216
				c0.083-2.617,0.01-5.234,0.037-7.854c0.024-1.147-0.094-2.305,0.103-3.44c5.526,4.041,12.215,6.479,19.055,6.868
				c7.737,0.491,15.624-1.636,22.061-5.961c0.417,0.361,0.984,0.384,1.504,0.45c4.132,0.606,8.339-0.694,11.857-2.827
				C108.68,160.747,110.744,159.481,112.811,158.224z"/>
		</g>
	</g>
	<g>
		<path d="M201.98,85.764l21.919-21.919h27.396v32.879h-16.438V80.284h-16.439v49.317h32.878v16.438H201.98V85.764z"/>
		<path d="M270.479,55.625h5.479v90.416h-16.439V66.585L270.479,55.625z"/>
		<path d="M300.617,55.625v16.439h-16.439V55.625H300.617z M300.617,80.284v65.757h-16.439V80.284H300.617z"/>
		<path d="M358.156,80.284v43.838l-21.919,21.919h-10.96v16.439h-16.439v-60.277l21.919-21.919H358.156L358.156,80.284z
			 M325.277,129.602h16.438V96.724h-16.438V129.602z"/>
		<path d="M366.377,85.764l21.919-21.919h27.398v32.879h-16.439V80.284h-16.438v49.317h32.878v16.438h-49.317L366.377,85.764
			L366.377,85.764z"/>
		<path d="M423.917,85.764l21.919-21.919h27.398v32.879h-16.438V80.284h-16.438v49.317h32.878v16.438h-49.317L423.917,85.764
			L423.917,85.764z"/>
	</g>
</g>
</svg>
