<?xml version="1.0" encoding="utf-8"?>
<!-- Generator: Adobe Illustrator 25.3.1, SVG Export Plug-In . SVG Version: 6.00 Build 0)  -->
<svg version="1.0" id="图层_1" xmlns="http://www.w3.org/2000/svg" xmlns:xlink="http://www.w3.org/1999/xlink" x="0px" y="0px"
	 viewBox="0 0 853 293" enable-background="new 0 0 853 293" xml:space="preserve">
<path fill="#FFFFFF" d="M185.25,0.81c13.47-1.24,27.82-1.25,40.03,5.41c21.16,9.21,36.44,30.14,39.41,52.94
	c0.33,9.44,1.03,19.24-2.17,28.31c-2.07,6.57-4.97,12.84-8.63,18.68c-4.5,7.24-11.25,12.62-17.05,18.75
	c-36.11,36.08-72.18,72.19-108.23,108.33c-6.87,6.83-13.67,14.28-22.99,17.72c-7.4,3.46-15.64,3.66-23.65,3.26
	c-19.69-1.6-37.04-16.86-41.97-35.87c-4.62-16.04,0.37-33.92,11.44-46.17c18.37-18.35,36.72-36.72,55.04-55.11
	c3.22-3.49,8.8-5.14,13.09-2.69c5.7,2.8,7.41,11.65,2.67,16.05c-18.57,18.96-37.9,37.17-56.07,56.53
	c-6.82,6.93-8.7,17.56-6.41,26.78c3.35,9.63,11.78,18.01,22.16,19.31c5.52,0.52,11.3,0.46,16.48-1.77
	c5.79-2.34,9.85-7.29,14.16-11.58c39.12-38.87,77.69-78.25,116.81-117.09c8.76-7.92,13.9-19.37,14.99-31.05
	c1.82-24.63-18.34-49.55-43.59-50.28c-13.25-1.39-26.86,3.3-36.54,12.45c-42.05,41.71-83.46,84.04-125.48,125.74
	c-9.96,9.84-15.66,23.34-17.8,37.02c-3.3,23.41,6.88,48.37,26.09,62.29c12.34,9.47,28.03,14.59,43.59,13.71
	c18.61-0.73,35.97-10.29,48.46-23.8c15.2-15.34,30.57-30.49,45.7-45.89c2.43-2.41,4.69-5.16,7.82-6.67
	c3.16-0.84,6.68-0.88,9.74,0.36c3.84,1.58,5.16,6.14,5.01,9.95c-0.46,3.82-3.26,6.76-5.9,9.3c-6.3,6.09-12.44,12.33-18.48,18.66
	c-12.62,11.69-24.44,24.23-36.76,36.25c-13.72,12.39-31.4,20.48-49.88,21.98c-13.86,1.92-27.93-0.85-41.02-5.37
	c-5.47-1.84-10.37-4.96-15.22-8.03c-11.67-6.96-20.78-17.51-28.19-28.74c-7.75-13.75-12.73-29.4-12.26-45.31
	c-0.36-15.87,4.73-31.39,12.56-45.01c7.17-11.87,17.6-21.16,27.3-30.89C75.43,93.01,112.01,57.4,147.9,21.11
	C157.64,10.49,171.09,3.27,185.25,0.81z"/>
<g>
	<defs>
		<path id="SVGID_1_" d="M185.25,0.81c13.47-1.24,27.82-1.25,40.03,5.41c21.16,9.21,36.44,30.14,39.41,52.94
			c0.33,9.44,1.03,19.24-2.17,28.31c-2.07,6.57-4.97,12.84-8.63,18.68c-4.5,7.24-11.25,12.62-17.05,18.75
			c-36.11,36.08-72.18,72.19-108.23,108.33c-6.87,6.83-13.67,14.28-22.99,17.72c-7.4,3.46-15.64,3.66-23.65,3.26
			c-19.69-1.6-37.04-16.86-41.97-35.87c-4.62-16.04,0.37-33.92,11.44-46.17c18.37-18.35,36.72-36.72,55.04-55.11
			c3.22-3.49,8.8-5.14,13.09-2.69c5.7,2.8,7.41,11.65,2.67,16.05c-18.57,18.96-37.9,37.17-56.07,56.53
			c-6.82,6.93-8.7,17.56-6.41,26.78c3.35,9.63,11.78,18.01,22.16,19.31c5.52,0.52,11.3,0.46,16.48-1.77
			c5.79-2.34,9.85-7.29,14.16-11.58c39.12-38.87,77.69-78.25,116.81-117.09c8.76-7.92,13.9-19.37,14.99-31.05
			c1.82-24.63-18.34-49.55-43.59-50.28c-13.25-1.39-26.86,3.3-36.54,12.45c-42.05,41.71-83.46,84.04-125.48,125.74
			c-9.96,9.84-15.66,23.34-17.8,37.02c-3.3,23.41,6.88,48.37,26.09,62.29c12.34,9.47,28.03,14.59,43.59,13.71
			c18.61-0.73,35.97-10.29,48.46-23.8c15.2-15.34,30.57-30.49,45.7-45.89c2.43-2.41,4.69-5.16,7.82-6.67
			c3.16-0.84,6.68-0.88,9.74,0.36c3.84,1.58,5.16,6.14,5.01,9.95c-0.46,3.82-3.26,6.76-5.9,9.3c-6.3,6.09-12.44,12.33-18.48,18.66
			c-12.62,11.69-24.44,24.23-36.76,36.25c-13.72,12.39-31.4,20.48-49.88,21.98c-13.86,1.92-27.93-0.85-41.02-5.37
			c-5.47-1.84-10.37-4.96-15.22-8.03c-11.67-6.96-20.78-17.51-28.19-28.74c-7.75-13.75-12.73-29.4-12.26-45.31
			c-0.36-15.87,4.73-31.39,12.56-45.01c7.17-11.87,17.6-21.16,27.3-30.89C75.43,93.01,112.01,57.4,147.9,21.11
			C157.64,10.49,171.09,3.27,185.25,0.81z"/>
	</defs>
	<clipPath id="SVGID_2_">
		<use xlink:href="#SVGID_1_"  overflow="visible"/>
	</clipPath>
	<g clip-path="url(#SVGID_2_)">
		<g id="Untitled">
			<path id="Mask" fill="#FFFFFF" d="M242.04,24.72c-25.37-25.36-66.51-25.36-91.88,0L27.66,147.23
				c-32.14,32.14-32.13,84.24,0,116.38c32.13,32.14,84.24,32.14,116.38,0l49-49c3.35-3.41,3.31-8.9-0.11-12.25
				c-3.37-3.31-8.77-3.31-12.14,0l-49,49c-25.37,25.37-66.51,25.37-91.88,0c-25.37-25.37-25.37-66.51,0-91.88l122.5-122.51
				c18.68-18.54,48.84-18.42,67.38,0.25c18.44,18.58,18.44,48.55,0,67.13l-122.51,122.5l-0.08-0.08c-0.27,0.3-0.48,0.63-0.77,0.92
				c-12.05,11.63-31.24,11.3-42.87-0.75c-11.34-11.75-11.34-30.37,0-42.12c0.29-0.29,0.62-0.49,0.92-0.77l-0.08-0.08l49-49.01
				c3.33-3.44,3.24-8.92-0.2-12.25c-3.36-3.25-8.69-3.25-12.05,0l-49,49c-18.47,18.74-18.25,48.91,0.5,67.38
				c18.55,18.28,48.33,18.28,66.88,0l122.51-122.5C267.41,91.23,267.41,50.1,242.04,24.72z"/>
			<path fill="#1C71E8" fill-opacity="0.4" d="M-74.79-360.05h397.06v467.21l0,0c0,0-79.77,92.13-176.69,148.18
				c-48.3,27.93-73.57-65.58-118.69-112.95c-39.09-41.03-101.69-35.23-101.69-35.23l0,0V-360.05z"/>
			<path fill="#1C71E8" fill-opacity="0.4" d="M-47.4-49.81h476.64v344.69l0,0c0,0-67.42-28.42-158.73-40.47
				c-91.32-12.05-138.25,218.75-227.38,114.97s-90.52-74.5-90.52-74.5l0,0V-49.81z"/>
			<path fill="#1C71E8" fill-opacity="0.33" d="M-180.87,185.14c0,0,66.3,125.67,175.53,62.83c61.52-35.39,98.77-232,169.76-186.18
				c65.1,42.03,201.06,123.34,201.06,123.34l0,0v423.02h-546.36V185.14L-180.87,185.14z"/>
			<path fill="#1C71E8" fill-opacity="0.33" d="M-260.24,176.13c0,0,23.9,415.61,179.65,84.88s296.67-84.88,296.67-84.88l0,0v553.26
				h-476.32V176.13L-260.24,176.13z"/>
			<path fill="#1C71E8" fill-opacity="0.4" d="M-22.08-428.72h496.01V32.66l0,0c0,0-20.87-38.89-179.78-87.2
				C211.76-79.59,176.91,65.32,79,183.79C0,279.37-22.08,32.66-22.08,32.66l0,0V-428.72z"/>
			<path fill="#1C71E8" fill-opacity="0.33" d="M47.35,240.13c0,0,32.63-93.43,139.27-93.43c50.8,0,109.11,96.87,165.98,115.62
				c62.5,20.62,121.32-36.68,121.32-36.68l0,0v445.29H47.35V240.13z"/>
		</g>
	</g>
</g>
<g>
	<path d="M409.23,206.52c-9.94,5.25-22.31,7.88-37.12,7.88c-19.12,0-34.44-6.16-45.94-18.47c-11.5-12.31-17.25-28.47-17.25-48.47
		c0-21.5,6.47-38.87,19.41-52.12c12.94-13.25,29.34-19.88,49.22-19.88c12.75,0,23.31,1.84,31.69,5.53v16.78
		c-9.63-5.37-20.25-8.06-31.88-8.06c-15.44,0-27.95,5.16-37.55,15.47c-9.59,10.31-14.39,24.09-14.39,41.34
		c0,16.38,4.48,29.42,13.45,39.14c8.97,9.72,20.73,14.58,35.3,14.58c13.5,0,25.19-3,35.06-9V206.52z"/>
	<path d="M449.92,212.15h-15.38V70.02h15.38V212.15z"/>
	<path d="M488.92,91.77c-2.75,0-5.09-0.94-7.03-2.81c-1.94-1.88-2.91-4.25-2.91-7.12c0-2.87,0.97-5.26,2.91-7.17
		c1.94-1.91,4.28-2.86,7.03-2.86c2.81,0,5.2,0.95,7.17,2.86c1.97,1.91,2.95,4.3,2.95,7.17c0,2.75-0.98,5.09-2.95,7.03
		C494.12,90.81,491.73,91.77,488.92,91.77z M496.42,212.15h-15.38v-96h15.38V212.15z"/>
	<path d="M543.29,198.27h-0.38v58.03h-15.38V116.15h15.38v16.88h0.38c7.56-12.75,18.62-19.12,33.19-19.12
		c12.38,0,22.03,4.3,28.97,12.89c6.94,8.59,10.41,20.11,10.41,34.55c0,16.06-3.91,28.92-11.72,38.58
		c-7.81,9.66-18.5,14.48-32.06,14.48C559.64,214.4,550.04,209.02,543.29,198.27z M542.92,159.56v13.41c0,7.94,2.58,14.67,7.73,20.2
		s11.7,8.3,19.64,8.3c9.31,0,16.61-3.56,21.89-10.69c5.28-7.12,7.92-17.03,7.92-29.72c0-10.69-2.47-19.06-7.41-25.12
		c-4.94-6.06-11.62-9.09-20.06-9.09c-8.94,0-16.12,3.11-21.56,9.33C545.64,142.38,542.92,150.18,542.92,159.56z"/>
	<path d="M733.98,206.52c-9.94,5.25-22.31,7.88-37.12,7.88c-19.12,0-34.44-6.16-45.94-18.47c-11.5-12.31-17.25-28.47-17.25-48.47
		c0-21.5,6.47-38.87,19.41-52.12c12.94-13.25,29.34-19.88,49.22-19.88c12.75,0,23.31,1.84,31.69,5.53v16.78
		c-9.63-5.37-20.25-8.06-31.88-8.06c-15.44,0-27.95,5.16-37.55,15.47c-9.59,10.31-14.39,24.09-14.39,41.34
		c0,16.38,4.48,29.42,13.45,39.14c8.97,9.72,20.73,14.58,35.3,14.58c13.5,0,25.19-3,35.06-9V206.52z"/>
	<path d="M852.86,206.52c-9.94,5.25-22.31,7.88-37.12,7.88c-19.12,0-34.44-6.16-45.94-18.47c-11.5-12.31-17.25-28.47-17.25-48.47
		c0-21.5,6.47-38.87,19.41-52.12c12.94-13.25,29.34-19.88,49.22-19.88c12.75,0,23.31,1.84,31.69,5.53v16.78
		c-9.63-5.37-20.25-8.06-31.88-8.06c-15.44,0-27.95,5.16-37.55,15.47c-9.59,10.31-14.39,24.09-14.39,41.34
		c0,16.38,4.48,29.42,13.45,39.14c8.97,9.72,20.73,14.58,35.3,14.58c13.5,0,25.19-3,35.06-9V206.52z"/>
</g>
</svg>
