<?xml version="1.0" encoding="utf-8"?>
<!-- Generator: Adobe Illustrator 23.0.0, SVG Export Plug-In . SVG Version: 6.00 Build 0)  -->
<svg version="1.1" id="Layer_1" xmlns="http://www.w3.org/2000/svg" xmlns:xlink="http://www.w3.org/1999/xlink" x="0px" y="0px"
	 viewBox="0 0 1200 800" style="enable-background:new 0 0 1200 800;" xml:space="preserve">
<style type="text/css">
	.st0{fill:#FFFFFF;}
</style>
<g>
	<path d="M756.9,611.9c0,0-18.2-21.7-33.3-40.9c66.1-18.7,91.3-60,91.3-60c-20.7,13.6-40.4,23.2-58,29.8
		c-25.2,10.6-49.4,17.7-73.2,21.7c-48.4,9.1-92.8,6.6-130.7-0.5c-28.8-5.5-53.5-13.6-74.2-21.7c-11.6-4.5-24.2-10.1-36.8-17.2
		c-1.5-1-3-1.5-4.5-2.5c-1-0.5-1.5-1-2-1.5c-9.1-5-14.1-8.6-14.1-8.6s24.2,40.4,88.3,59.5c-15.1,19.2-33.8,41.9-33.8,41.9
		C364.4,608.4,322,535.2,322,535.2c0-162.4,72.6-294.1,72.6-294.1c72.6-54.5,141.8-53,141.8-53l5,6.1
		c-90.8,26.2-132.7,66.1-132.7,66.1s11.1-6.1,29.8-14.6c54-23.7,96.9-30.3,114.5-31.8c3-0.5,5.5-1,8.6-1c30.8-4,65.6-5,101.9-1
		c47.9,5.5,99.4,19.7,151.9,48.4c0,0-39.9-37.8-125.6-64.1l7.1-8.1c0,0,69.1-1.5,141.8,53c0,0,72.6,131.7,72.6,294.1
		C911.3,535.2,868.4,608.4,756.9,611.9L756.9,611.9z"/>
	<path id="path116" class="st0" d="M522.3,376.3c-28.8,0-51.5,25.2-51.5,56s23.2,56,51.5,56c28.8,0,51.5-25.2,51.5-56
		C574.3,401.5,551,376.3,522.3,376.3z M706.4,376.3c-28.8,0-51.5,25.2-51.5,56s23.2,56,51.5,56c28.8,0,51.5-25.2,51.5-56
		S735.2,376.3,706.4,376.3z"/>
</g>
</svg>
