<?xml version="1.0" encoding="UTF-8" standalone="no"?> <!-- Created with Vectornator for iOS (http://vectornator.io/) --><!DOCTYPE svg PUBLIC "-//W3C//DTD SVG 1.1//EN" "http://www.w3.org/Graphics/SVG/1.1/DTD/svg11.dtd">
<svg xmlns="http://www.w3.org/2000/svg" xml:space="preserve" width="100%" viewBox="0 0 1024 1024" version="1.1" style="fill-rule:nonzero;clip-rule:evenodd;stroke-linecap:round;stroke-linejoin:round;" xmlns:xlink="http://www.w3.org/1999/xlink" height="100%" xmlns:vectornator="http://vectornator.io">
<metadata>
<vectornator:setting key="WDDynamicGuides" value="true"/>
<vectornator:setting value="false" key="WDSnapToPoints"/>
<vectornator:setting key="WDOutlineMode" value="false"/>
<vectornator:setting key="WDSnapToGrid" value="false"/>
<vectornator:setting value="false" key="WDIsolateActiveLayer"/>
<vectornator:setting key="WDSnapToEdges" value="false"/>
<vectornator:setting key="UndoHistoryDisabled" value="true"/>
<vectornator:setting value="true" key="WDGuidesVisible"/>
<vectornator:setting key="WDUnits" value="Pixels"/>
<vectornator:setting value="true" key="VNSnapToGuides"/>
<vectornator:setting key="WDDisplayWhiteBackground" value="false"/>
<vectornator:setting key="VNDimensionsVisible" value="true"/>
<vectornator:setting key="IsTimeLapseWatermarkDisabled" value="false"/>
<vectornator:setting key="WDRulersVisible" value="true"/>
<vectornator:setting key="WDCMYKEnabledKey" value="false"/>
</metadata>
<defs/>
<g id="图层 1" vectornator:layerName="图层 1">
<g opacity="1">
<path d="M512+460.177C487.161+460.177+466.52+479.058+466.52+502.498C466.52+505.571+466.52+509.989+466.52+514.747C467.161+514.928+467.845+515.245+468.621+515.805C468.621+515.805+489.268+526.639+512.358+526.639C535.447+526.639+556.08+515.805+556.08+515.805C556.575+515.403+557.043+515.088+557.48+514.866C557.469+510.073+557.138+505.938+557.138+502.498C557.138+479.058+536.839+460.177+512+460.177Z" stroke-width="2" opacity="1" fill="#787878" stroke="#000000" stroke-linejoin="round" stroke-linecap="round"/>
<path opacity="1" fill="#000000" d="M499.766+477.671C504.663+477.671+508.513+483.259+508.513+489.906C508.513+496.553+504.663+502.155+499.766+502.155C494.868+502.155+491.018+496.553+491.018+489.906C491.018+483.259+494.868+477.671+499.766+477.671Z"/>
<path fill="#000000" d="M524.249+477.671C529.147+477.671+532.997+483.259+532.997+489.906C532.997+496.553+529.147+502.155+524.249+502.155C519.351+502.155+515.502+496.553+515.502+489.906C515.502+483.259+519.351+477.671+524.249+477.671Z" opacity="1"/>
<path d="M501.509+484.66C499.41+484.66+498.007+487.107+498.007+489.906C498.007+492.705+499.41+495.151+501.509+495.151C503.608+495.151+505.011+492.705+505.011+489.906C505.011+487.107+503.608+484.66+501.509+484.66Z" opacity="1" fill="#000000"/>
<path opacity="1" d="M522.506+484.66C520.407+484.66+519.004+487.107+519.004+489.906C519.004+492.705+520.407+488.162+522.506+488.162C524.605+488.162+525.993+492.705+525.993+489.906C525.993+487.107+524.605+484.66+522.506+484.66Z" fill="#000000"/>
<path fill="#000000" opacity="1" d="M512+506.819C524.828+506.819+535.321+508.853+535.321+511.186C535.321+513.518+524.828+518.488+512+518.487C499.172+518.487+488.679+513.518+488.679+511.186C488.679+508.853+499.172+506.819+512+506.819Z"/>
<path d="M499.766+477.671C494.868+477.672+491.018+483.259+491.018+489.906C491.018+496.553+494.868+502.155+499.766+502.155C504.663+502.155+508.513+496.553+508.513+489.906C508.513+483.259+504.663+477.671+499.766+477.671Z" fill="#ffffff" opacity="1"/>
<path d="M524.249+477.671C519.351+477.672+515.502+483.259+515.502+489.906C515.502+496.553+519.351+502.155+524.249+502.155C529.147+502.155+532.997+496.553+532.997+489.906C532.997+483.259+529.147+477.671+524.249+477.671Z" opacity="1" fill="#ffffff"/>
<path stroke-linecap="round" fill="#787878" stroke="#000000" stroke-linejoin="round" stroke-width="2" d="M501.509+484.66C503.608+484.66+505.011+487.107+505.011+489.906C505.011+492.705+503.608+495.151+501.509+495.151C499.41+495.151+498.007+492.705+498.007+489.906C498.007+487.107+499.41+484.66+501.509+484.66Z" opacity="1"/>
<path stroke-linecap="round" opacity="1" d="M522.705+487.127C525.74+486.333+529.296+486.507+529.296+489.306C529.296+492.105+525.4+489.386+522.705+490.628C520.799+491.507+519.014+493.971+519.014+491.172C519.014+488.373+520.674+487.657+522.705+487.127Z" fill="#787878" stroke="#000000" stroke-width="2" stroke-linejoin="round"/>
<path fill="#ffab19" stroke="#cf8b17" opacity="1" stroke-width="2" stroke-linecap="round" stroke-linejoin="round" d="M512+506.819C499.172+506.819+488.679+508.853+488.679+511.186C488.679+513.518+499.172+519.82+512+519.82C524.828+519.82+535.321+513.518+535.321+511.186C535.321+508.853+524.828+506.819+512+506.819Z"/>
<path fill="#ff6680" stroke-linecap="round" stroke-width="2" d="M557.371+514.235C557.371+514.235+556.465+514.767+555.968+515.17C555.968+515.17+535.291+526.031+512.167+526.031C489.043+526.031+468.388+515.17+468.388+515.17C467.611+514.609+466.273+514.124+466.273+514.124L462+528.591C462+528.591+462.891+529.221+463.469+529.548C463.819+529.898+468.369+532.337+475.376+535.49C473.274+547.753+473.64+559.317+473.64+560.017C473.776+562.049+474.498+563.187+475.643+563.823L490.6+563.823C492.633+563.206+493.961+561.938+493.961+558.971C493.961+555.818+493.956+548.813+495.007+541.455C500.613+542.506+506.216+543.547+512.523+543.547C538.1+543.547+560.52+529.898+561.221+529.548C561.525+529.367+562+529.014+562+529.014L557.371+514.235Z" opacity="1" stroke-linejoin="round" stroke="#ff4867"/>
</g>
</g>
</svg>
