<?xml version="1.0" encoding="utf-8"?>
<!-- Generator: Adobe Illustrator 23.0.0, SVG Export Plug-In . SVG Version: 6.00 Build 0)  -->
<svg version="1.1" id="图层_1" xmlns="http://www.w3.org/2000/svg" xmlns:xlink="http://www.w3.org/1999/xlink" x="0px" y="0px"
	 viewBox="0 0 1200 800" style="enable-background:new 0 0 1200 800;" xml:space="preserve">
<path d="M600,660.5c-46.5,0-89.1-15.5-116.6-38.8c-13.9,4.2-31.8,10.9-43,19.2c-9.6,7.1-8.4,14.4-6.7,17.3
	c7.6,12.9,130.7,8.2,166.3,4.2V660.5z M600,660.5c46.5,0,89.1-15.5,116.6-38.8c13.9,4.2,31.8,10.9,43,19.2
	c9.6,7.1,8.4,14.4,6.7,17.3c-7.6,12.9-130.7,8.2-166.3,4.2V660.5z"/>
<path d="M600.3,382.1c76.7-0.5,138.2-15.4,159-21.1c5-1.4,7.6-3.8,7.6-3.8c0-0.7,0.3-12.5,0.3-18.6c0-102.4-48.3-205.3-167.3-205.3
	c-118.9,0-167.3,102.9-167.3,205.3c0,6.1,0.3,17.9,0.3,18.6c0,0,2.2,2.3,6.1,3.4c19.2,5.4,81.9,20.9,160.5,21.5H600.3z M808.8,467.4
	c-4.8-15.3-11.2-33.2-17.8-50.3c0,0-3.8-0.5-5.7,0.1c-59,17.1-130.5,28.1-185,27.4h-0.6c-54.2,0.6-125.2-10.1-184-27.1
	c-2.2-0.6-6.7-0.4-6.7-0.4c-6.6,17.1-13.1,35-17.8,50.3c-22.7,73-15.3,103.2-9.7,103.9c12,1.5,46.7-54.9,46.7-54.9
	c0,57.3,51.7,145.3,170.2,146.1h3.1c118.5-0.8,170.2-88.8,170.2-146.1c0,0,34.7,56.4,46.7,54.9C824.1,570.6,831.4,540.4,808.8,467.4
	"/>
<path d="M557.7,284.6c-16.1,0.7-29.9-17.6-30.8-41c-0.9-23.4,11.5-42.9,27.6-43.6c16.1-0.7,29.9,17.6,30.8,41
	C586.2,264.4,573.8,283.9,557.7,284.6 M673.1,243.6c-0.9,23.4-14.6,41.7-30.8,41c-16.1-0.7-28.5-20.3-27.6-43.6
	c0.9-23.4,14.6-41.7,30.8-41C661.6,200.7,674,220.3,673.1,243.6 M375.8,133.3"/>
<path d="M577.5,244c0.7,9.2-4.3,17.4-11.3,18.3c-7,0.9-13.2-5.9-14-15.1c-0.7-9.2,4.3-17.4,11.3-18.3
	C570.5,228,576.8,234.8,577.5,244 M621.8,247.1c1.4-2.6,11.1-16,31.2-11.1c5.3,1.3,7.7,3.2,8.2,3.9c0.8,1.1,1,2.7,0.2,4.8
	c-1.5,4.2-4.7,4.1-6.4,3.2c-1.1-0.5-15.1-9.9-28,4.1c-0.9,1-2.5,1.3-4,0.1C621.6,251,620.9,248.7,621.8,247.1"/>
<path d="M600.3,441.3h-0.6c-37.1,0.4-82-4.5-125.5-13c-3.7,21.6-6,48.7-4,81c4.9,81.7,53.4,133.1,128.3,133.8h3
	c74.9-0.7,123.4-52.1,128.3-133.8c1.9-32.3-0.3-59.4-4-81C682.3,436.8,637.3,441.7,600.3,441.3"/>
<path d="M494.7,434.4v80.4c0,0,36.8,7.4,73.7,2.3V443C545.1,441.6,519.9,438.7,494.7,434.4"/>
<path d="M766.9,357.3c0,0-71.6,22.6-166.7,23.3h-0.6c-94.9-0.6-166.4-23.2-166.7-23.3l-24,59.9c60,18.1,134.4,29.8,190.6,29.1h0.6
	c56.2,0.7,130.6-11,190.7-29.1L766.9,357.3z"/>
</svg>
