<?xml version="1.0" encoding="UTF-8" standalone="no"?> <!-- Created with Vectornator for iOS (http://vectornator.io/) --><!DOCTYPE svg PUBLIC "-//W3C//DTD SVG 1.1//EN" "http://www.w3.org/Graphics/SVG/1.1/DTD/svg11.dtd">
<svg height="100%" xml:space="preserve" viewBox="192 192 128 128" xmlns:vectornator="http://vectornator.io" xmlns="http://www.w3.org/2000/svg" xmlns:xlink="http://www.w3.org/1999/xlink" width="100%" version="1.1" style="fill-rule:nonzero;clip-rule:evenodd;stroke-linecap:round;stroke-linejoin:round;">
<metadata>
<vectornator:setting key="WDSnapToPoints" value="false"/>
<vectornator:setting value="true" key="WDRulersVisible"/>
<vectornator:setting value="Pixels" key="WDUnits"/>
<vectornator:setting key="VNSnapToGuides" value="true"/>
<vectornator:setting value="false" key="WDCMYKEnabledKey"/>
<vectornator:setting key="WDSnapToEdges" value="false"/>
<vectornator:setting value="false" key="WDDisplayWhiteBackground"/>
<vectornator:setting key="WDGuidesVisible" value="true"/>
<vectornator:setting key="IsTimeLapseWatermarkDisabled" value="false"/>
<vectornator:setting value="false" key="WDSnapToGrid"/>
<vectornator:setting key="WDDynamicGuides" value="true"/>
<vectornator:setting key="WDOutlineMode" value="false"/>
<vectornator:setting key="WDIsolateActiveLayer" value="false"/>
<vectornator:setting key="UndoHistoryDisabled" value="true"/>
<vectornator:setting key="VNDimensionsVisible" value="true"/>
</metadata>
<defs/>
<g vectornator:layerName="图层 1" id="图层 1">
<g opacity="1">
<path stroke-linejoin="round" d="M256+204.177C231.161+204.177+210.52+223.058+210.52+246.498C210.52+249.571+210.52+253.989+210.52+258.747C211.161+258.928+211.845+259.245+212.621+259.805C212.621+259.805+233.268+270.639+256.358+270.639C279.447+270.639+300.08+259.805+300.08+259.805C300.575+259.403+301.043+259.088+301.48+258.866C301.469+254.073+301.138+249.938+301.138+246.498C301.138+223.058+280.839+204.177+256+204.177Z" fill="#787878" stroke-linecap="round" stroke-width="2" opacity="1" stroke="#000000"/>
<path fill="#000000" d="M243.766+221.671C248.663+221.671+252.513+227.259+252.513+233.906C252.513+240.553+248.663+246.155+243.766+246.155C238.868+246.155+235.018+240.553+235.018+233.906C235.018+227.259+238.868+221.671+243.766+221.671Z" opacity="1"/>
<path opacity="1" fill="#000000" d="M268.249+221.671C273.147+221.671+276.997+227.259+276.997+233.906C276.997+240.553+273.147+246.155+268.249+246.155C263.351+246.155+259.502+240.553+259.502+233.906C259.502+227.259+263.351+221.671+268.249+221.671Z"/>
<path fill="#000000" d="M245.509+228.66C243.41+228.66+242.007+231.107+242.007+233.906C242.007+236.705+243.41+239.151+245.509+239.151C247.608+239.151+249.011+236.705+249.011+233.906C249.011+231.107+247.608+228.66+245.509+228.66Z" opacity="1"/>
<path fill="#000000" opacity="1" d="M266.506+228.66C264.407+228.66+263.004+231.107+263.004+233.906C263.004+236.705+264.407+232.162+266.506+232.162C268.605+232.162+269.993+236.705+269.993+233.906C269.993+231.107+268.605+228.66+266.506+228.66Z"/>
<path d="M256+250.819C268.828+250.819+279.321+252.853+279.321+255.186C279.321+257.518+268.828+262.488+256+262.487C243.172+262.487+232.679+257.518+232.679+255.186C232.679+252.853+243.172+250.819+256+250.819Z" opacity="1" fill="#000000"/>
<path opacity="1" d="M243.766+221.671C238.868+221.672+235.018+227.259+235.018+233.906C235.018+240.553+238.868+246.155+243.766+246.155C248.663+246.155+252.513+240.553+252.513+233.906C252.513+227.259+248.663+221.671+243.766+221.671Z" fill="#ffffff"/>
<path d="M268.249+221.671C263.351+221.672+259.502+227.259+259.502+233.906C259.502+240.553+263.351+246.155+268.249+246.155C273.147+246.155+276.997+240.553+276.997+233.906C276.997+227.259+273.147+221.671+268.249+221.671Z" fill="#ffffff" opacity="1"/>
<path stroke-linecap="round" opacity="1" d="M245.509+228.66C247.608+228.66+249.011+231.107+249.011+233.906C249.011+236.705+247.608+239.151+245.509+239.151C243.41+239.151+242.007+236.705+242.007+233.906C242.007+231.107+243.41+228.66+245.509+228.66Z" stroke="#000000" stroke-width="2" fill="#787878" stroke-linejoin="round"/>
<path fill="#787878" stroke="#000000" opacity="1" stroke-linecap="round" d="M266.705+231.127C269.74+230.333+273.296+230.507+273.296+233.306C273.296+236.105+269.4+233.386+266.705+234.628C264.799+235.507+263.014+237.971+263.014+235.172C263.014+232.373+264.674+231.657+266.705+231.127Z" stroke-linejoin="round" stroke-width="2"/>
<path stroke-linecap="round" stroke-width="2" stroke="#cf8b17" fill="#ffab19" d="M256+250.819C243.172+250.819+232.679+252.853+232.679+255.186C232.679+257.518+243.172+263.82+256+263.82C268.828+263.82+279.321+257.518+279.321+255.186C279.321+252.853+268.828+250.819+256+250.819Z" stroke-linejoin="round" opacity="1"/>
<path stroke-linecap="round" stroke="#ff4867" fill="#ff6680" opacity="1" stroke-width="2" d="M301.371+258.235C301.371+258.235+300.465+258.767+299.968+259.17C299.968+259.17+279.291+270.031+256.167+270.031C233.043+270.031+212.388+259.17+212.388+259.17C211.611+258.609+210.273+258.124+210.273+258.124L206+272.591C206+272.591+206.891+273.221+207.469+273.548C207.819+273.898+212.369+276.337+219.376+279.49C217.274+291.753+217.64+303.317+217.64+304.017C217.776+306.049+218.498+307.187+219.643+307.823L234.6+307.823C236.633+307.206+237.961+305.938+237.961+302.971C237.961+299.818+237.956+292.813+239.007+285.455C244.613+286.506+250.216+287.547+256.523+287.547C282.1+287.547+304.52+273.898+305.221+273.548C305.525+273.367+306+273.014+306+273.014L301.371+258.235Z" stroke-linejoin="round"/>
</g>
</g>
</svg>
