<?xml version="1.0" encoding="UTF-8" standalone="no"?> <!-- Created with Vectornator for iOS (http://vectornator.io/) --><!DOCTYPE svg PUBLIC "-//W3C//DTD SVG 1.1//EN" "http://www.w3.org/Graphics/SVG/1.1/DTD/svg11.dtd">
<svg xml:space="preserve" height="100%" width="100%" viewBox="0 0 512 512" xmlns:xlink="http://www.w3.org/1999/xlink" version="1.1" xmlns="http://www.w3.org/2000/svg" style="fill-rule:nonzero;clip-rule:evenodd;stroke-linecap:round;stroke-linejoin:round;" xmlns:vectornator="http://vectornator.io">
<metadata>
<vectornator:setting value="false" key="WDSnapToEdges"/>
<vectornator:setting key="WDIsolateActiveLayer" value="false"/>
<vectornator:setting key="WDDynamicGuides" value="true"/>
<vectornator:setting key="WDOutlineMode" value="false"/>
<vectornator:setting value="true" key="VNSnapToGuides"/>
<vectornator:setting key="WDUnits" value="Pixels"/>
<vectornator:setting key="WDDisplayWhiteBackground" value="false"/>
<vectornator:setting key="WDCMYKEnabledKey" value="false"/>
<vectornator:setting value="true" key="WDGuidesVisible"/>
<vectornator:setting key="WDSnapToPoints" value="false"/>
<vectornator:setting key="WDRulersVisible" value="true"/>
<vectornator:setting value="false" key="WDSnapToGrid"/>
<vectornator:setting key="IsTimeLapseWatermarkDisabled" value="false"/>
<vectornator:setting key="UndoHistoryDisabled" value="true"/>
<vectornator:setting value="true" key="VNDimensionsVisible"/>
</metadata>
<defs/>
<g id="图层 1" vectornator:layerName="图层 1">
<path opacity="1" stroke-linecap="round" stroke-width="2" fill="#4c97ff" d="M303.406+212.25C301.427+212.246+298.715+213.246+298.719+213.25L209.875+248.531C209.875+248.531+206+249.771+206+252.375C206+255.5+209.781+256.594+209.781+256.594L231+262.219L231.875+262.656L283.875+231.531C284.333+231.183+284.878+231.057+285.406+231.125C285.934+231.193+286.46+231.479+286.812+231.938C287.508+232.854+287.323+234.148+286.406+234.844L247.688+270.656L281.344+298.625C281.344+298.625+282.6+299.75+285+299.75C289.517+299.75+290.188+296.125+290.188+296.125L305.781+216.438C305.781+216.438+306+215.385+306+214.344C306+212.781+304.623+212.25+303.406+212.25Z" stroke-linejoin="round" stroke="#4280d7"/>
</g>
</svg>
