<svg id="图层_1" data-name="图层 1" xmlns="http://www.w3.org/2000/svg" viewBox="0 0 40 40"><defs><style>.cls-1{fill:#424242;}.cls-2{fill:#fff;}</style></defs><title>JSON_icon</title><path class="cls-1" d="M20.18,29.18,12,21a.57.57,0,0,1,0-.82l8.22-8.21H37V9.81A4.83,4.83,0,0,0,32.19,5H9.81A4.83,4.83,0,0,0,5,9.81V30.19A4.83,4.83,0,0,0,9.81,35H32.19A4.83,4.83,0,0,0,37,30.19v-1Z"/><path class="cls-2" d="M37,11.93H20.18L12,20.14A.57.57,0,0,0,12,21l8.22,8.22H37Z"/><path class="cls-1" d="M17.62,23.26l.83-.86a2,2,0,0,0,1.59.94c.95,0,1.4-.45,1.4-1.63v-4H18.28V16.56h4.56v5.26a2.46,2.46,0,0,1-2.76,2.73A2.92,2.92,0,0,1,17.62,23.26Z"/><path class="cls-1" d="M24.49,23.41l.81-1a3.35,3.35,0,0,0,2.19.89c.92,0,1.4-.4,1.4-.95s-.54-.88-1.3-1.21l-1.08-.46a2.27,2.27,0,0,1-1.68-2.08c0-1.25,1.13-2.21,2.73-2.21a3.62,3.62,0,0,1,2.51,1l-.71.89a2.78,2.78,0,0,0-1.87-.67c-.74,0-1.24.33-1.24.91s.62.84,1.33,1.11l1,.45a2.2,2.2,0,0,1,1.71,2.11c0,1.27-1.08,2.33-2.91,2.33A4.29,4.29,0,0,1,24.49,23.41Z"/><path class="cls-1" d="M37,22.87V18.08a2.79,2.79,0,0,0-2.6-1.65c-1.82,0-3.09,1.45-3.09,4s1.27,4.1,3.09,4.1A2.79,2.79,0,0,0,37,22.87Zm-2.6.47c-1,0-1.65-1-1.65-2.89s.65-2.81,1.65-2.81,1.65,1,1.65,2.81S35.4,23.34,34.4,23.34Z"/></svg>