<?xml version="1.0" encoding="utf-8"?>
<!-- Generator: Adobe Illustrator 19.0.0, SVG Export Plug-In . SVG Version: 6.00 Build 0)  -->
<svg version="1.1" id="图层_1" xmlns="http://www.w3.org/2000/svg" xmlns:xlink="http://www.w3.org/1999/xlink" x="0px" y="0px"
	 viewBox="-415 217 128 128" style="enable-background:new -415 217 128 128;" xml:space="preserve">
<style type="text/css">
	.st0{fill:#FFFFFF;}
</style>
<path class="st0" d="M-309.2,278.5h-6.9v-18.7c0-5-4.4-9.4-9.4-9.4h-18.7v-7.5c-0.6-6.9-6.2-11.9-12.5-11.9c-6.9,0-11.9,5-11.9,11.9
	v6.9h-18.7c-5.6,0-10,4.4-10,10v18.1h6.9c6.9,0,13.1,5.6,13.1,13.1c0,6.9-5.6,13.1-13.1,13.1h-6.9v18.1c0,4.4,4.4,8.8,9.4,8.8h18.1
	v-6.9c0-6.9,5.6-13.1,13.1-13.1c6.9,0,13.1,5.6,13.1,13.1v6.9h18.1c5,0,9.4-4.4,9.4-9.4v-18.7h6.9c6.9,0,11.9-5,11.9-11.9
	C-297.3,283.5-302.3,278.5-309.2,278.5z M-342.7,291.5c0,8.1-4.3,14.8-13.6,14.8c-6.5,0-10.7-2.5-13.7-7.6l6.8-5.1
	c1.4,2.8,3.6,4.1,5.6,4.1c3.2,0,5-1.6,5-7V264h10V291.5z"/>
</svg>
