<svg id="图层_1" data-name="图层 1" xmlns="http://www.w3.org/2000/svg" viewBox="0 0 40 40"><defs><style>.cls-1{fill:#0fbd8c;}.cls-2{fill:#fff;}</style></defs><title>Redlist LOGO</title><rect class="cls-1" width="40" height="40"/><polygon class="cls-2" points="28.9 9.8 28.85 9.86 28.85 16.45 32.2 13.1 28.9 9.8"/><path class="cls-2" d="M34.12,8.69l-.81-.81a1.74,1.74,0,0,0-2.48,0l-1,1,3.3,3.3,1-1A1.74,1.74,0,0,0,34.12,8.69Z" transform="translate(0)"/><path class="cls-2" d="M22.3,22.82H20.06a.89.89,0,0,1-.88-.88V19.7a.48.48,0,0,1,.13-.31l9.54-9.53V9.4A2.4,2.4,0,0,0,26.45,7H8.4A2.39,2.39,0,0,0,6,9.4V30.6A2.39,2.39,0,0,0,8.4,33h18a2.4,2.4,0,0,0,2.4-2.4V16.45l-6.24,6.24A.48.48,0,0,1,22.3,22.82Z" transform="translate(0)"/><rect class="cls-1" x="9.64" y="10.52" width="14.06" height="1.76" rx="0.56"/><rect class="cls-1" x="9.64" y="15.79" width="9.67" height="1.76" rx="0.56"/><path class="cls-1" d="M17.13,26.83H19.3v1.06H15.07V26.77a2.51,2.51,0,0,0,.85-.33,2.67,2.67,0,0,0,.67-.58,3.14,3.14,0,0,0,.44-.78,2.66,2.66,0,0,0,.15-.9,2.52,2.52,0,0,0-.21-1,2.69,2.69,0,0,0-.56-.84,2.71,2.71,0,0,0-.84-.57,2.61,2.61,0,0,0-2.05,0,2.6,2.6,0,0,0-.84.57,2.71,2.71,0,0,0-.57.84,2.52,2.52,0,0,0-.21,1,2.44,2.44,0,0,0,.16.9,2.65,2.65,0,0,0,1.1,1.36,2.51,2.51,0,0,0,.85.33v1.12H9.78V26.83H12a3.87,3.87,0,0,1-.82-1.21,3.67,3.67,0,0,1-.29-1.44,3.58,3.58,0,0,1,.29-1.43,3.73,3.73,0,0,1,.8-1.18,3.8,3.8,0,0,1,1.17-.8,3.72,3.72,0,0,1,2.88,0,3.85,3.85,0,0,1,1.18.8A3.71,3.71,0,0,1,18,22.75a3.42,3.42,0,0,1,.29,1.43A3.5,3.5,0,0,1,18,25.62,3.56,3.56,0,0,1,17.13,26.83ZM19.3,30H9.78V29H19.3Z" transform="translate(0)"/></svg>
