<svg id="图层_1" data-name="图层 1" xmlns="http://www.w3.org/2000/svg" viewBox="0 0 180.33 199.13"><defs><style>.cls-1{fill:#fff;}</style></defs><title>ClipLOGO-Classic_White</title><path class="cls-1" d="M131.59,1.3c9.16-.84,18.9-.85,27.2,3.67,14.39,6.26,24.77,20.48,26.79,36,.23,6.41.7,13.07-1.47,19.24a55.14,55.14,0,0,1-5.86,12.69c-3.07,4.92-7.65,8.58-11.59,12.74q-36.81,36.76-73.55,73.61c-4.67,4.65-9.29,9.71-15.63,12.05-5,2.35-10.62,2.48-16.07,2.21C48,172.4,36.25,162,32.9,149.12c-3.14-10.91.25-23.06,7.77-31.39Q59.4,99,78.07,80.29c2.19-2.37,6-3.49,8.9-1.83,3.87,1.9,5,7.92,1.82,10.91C76.16,102.25,63,114.63,50.68,127.78c-4.63,4.71-5.91,11.94-4.35,18.2,2.28,6.54,8,12.24,15.06,13.12,3.75.35,7.68.31,11.2-1.2,3.94-1.59,6.69-5,9.62-7.87,26.58-26.42,52.79-53.18,79.38-79.57a32.52,32.52,0,0,0,10.17-21.1C173,32.62,159.3,15.69,142.14,15.19a31.8,31.8,0,0,0-24.83,8.46C88.74,52,60.61,80.76,32.05,109.11,25.28,115.79,21.41,125,20,134.27c-2.25,15.9,4.67,32.86,17.72,42.32a45.1,45.1,0,0,0,29.62,9.32c12.64-.51,24.46-7,32.93-16.18C110.55,159.3,121,149,131.29,138.55c1.65-1.64,3.18-3.51,5.31-4.54a10.63,10.63,0,0,1,6.62.25c2.61,1.07,3.5,4.17,3.41,6.76-.31,2.6-2.21,4.59-4,6.32q-6.42,6.21-12.55,12.68c-8.58,7.95-16.61,16.47-25,24.63a58,58,0,0,1-33.89,14.93c-9.42,1.3-19-.58-27.88-3.65A48.48,48.48,0,0,1,33,190.47C25,185.75,18.85,178.57,13.81,171c-5.26-9.35-8.65-20-8.33-30.8-.25-10.77,3.21-21.31,8.53-30.57,4.87-8.07,12-14.38,18.55-21C57,64,81.82,39.75,106.21,15.09A45.26,45.26,0,0,1,131.59,1.3Z" transform="translate(-5.46 -0.87)"/></svg>