<?xml version="1.0" encoding="utf-8"?>
<!-- Generator: Adobe Illustrator 23.0.0, SVG Export Plug-In . SVG Version: 6.00 Build 0)  -->
<svg version="1.1" id="图层_1" xmlns="http://www.w3.org/2000/svg" xmlns:xlink="http://www.w3.org/1999/xlink" x="0px" y="0px"
	 viewBox="0 0 57 49" style="enable-background:new 0 0 57 49;" xml:space="preserve">
<style type="text/css">
	.st0{fill:#673AB7;stroke:#5326A3;stroke-miterlimit:10;}
	.st1{fill:#5326A3;stroke:#5326A3;stroke-linecap:round;stroke-linejoin:round;}
</style>
<title>R1_ C.Procedure Editble Inputs</title>
<path class="st0" d="M4.5,0.5h48c2.2,0,4,1.8,4,4v40c0,2.2-1.8,4-4,4h-48c-2.2,0-4-1.8-4-4v-40C0.5,2.3,2.3,0.5,4.5,0.5z"/>
<path class="st1" d="M24.5,8.5h8c8.8,0,16,7.2,16,16l0,0c0,8.8-7.2,16-16,16h-8c-8.8,0-16-7.2-16-16l0,0C8.5,15.7,15.7,8.5,24.5,8.5
	z"/>
</svg>
