<svg id="图层_1" data-name="图层 1" xmlns="http://www.w3.org/2000/svg" viewBox="0 0 40 40"><defs><style>.cls-1{fill:#424242;}.cls-2{fill:#fff;}</style></defs><title>HTTPIO_icon</title><path class="cls-1" d="M22.65,30.51l-11.44,0a.88.88,0,0,1-.47-1.56,12.25,12.25,0,0,0,3.85-5.28,12.59,12.59,0,0,0,.7-3V16.57c0-4.49,3.36-8.16,7.46-8.16h13A4.73,4.73,0,0,0,31.31,5H8.69A4.94,4.94,0,0,0,4,10.13V29.87A4.94,4.94,0,0,0,8.69,35H31.31a4.86,4.86,0,0,0,4.63-4.49H22.65Z"/><path class="cls-2" d="M36,10.13a5.14,5.14,0,0,0-.31-1.72H21.87a8.09,8.09,0,0,0-8,8.16v4.08a11.49,11.49,0,0,1-.74,3,12.26,12.26,0,0,1-4.1,5.28.87.87,0,0,0,.49,1.56l12.21,0H35.94c0-.21.06-.42.06-.64Z"/><path class="cls-1" d="M33.93,19.4a15.08,15.08,0,0,0-.14-1.92H36V15.55H33.42a14.82,14.82,0,0,0-1.33-3.41,7.66,7.66,0,0,1,3.91,3V12.25a9.61,9.61,0,1,0,0,14.29V23.63a7.76,7.76,0,0,1-3.91,3,15.08,15.08,0,0,0,1.33-3.42H36V21.32H33.79A15.36,15.36,0,0,0,33.93,19.4ZM29.6,11.75a13.38,13.38,0,0,1,1.84,3.8H27.77A13.63,13.63,0,0,1,29.6,11.75Zm-7.43,9.57a8.15,8.15,0,0,1-.25-1.92,8,8,0,0,1,.25-1.92h3.25a15.08,15.08,0,0,0-.14,1.92,15.36,15.36,0,0,0,.14,1.92ZM23,23.24h2.83a15.08,15.08,0,0,0,1.33,3.42A7.7,7.7,0,0,1,23,23.24Zm2.83-7.69H23a7.64,7.64,0,0,1,4.16-3.41A14.82,14.82,0,0,0,25.79,15.55ZM29.6,27a13.63,13.63,0,0,1-1.83-3.8h3.67A13.38,13.38,0,0,1,29.6,27Zm2.25-5.72H27.36a13.69,13.69,0,0,1-.16-1.92,13.32,13.32,0,0,1,.16-1.92h4.49A13.33,13.33,0,0,1,32,19.4,13.68,13.68,0,0,1,31.85,21.32Z"/></svg>